<?xml version="1.0" standalone="no"?>
<!DOCTYPE svg PUBLIC "-//W3C//DTD SVG 1.1//EN" "http://www.w3.org/Graphics/SVG/1.1/DTD/svg11.dtd" >
<svg xmlns="http://www.w3.org/2000/svg">
<metadata></metadata>
<defs>
<font id="kanitblack" horiz-adv-x="0" >
<font-face units-per-em="2048" ascent="1536" descent="-512" />
<missing-glyph horiz-adv-x="614" />
<glyph unicode="fi" horiz-adv-x="1269" d="M-10 614v357h114v20q0 113 53.5 209t163 154.5t267.5 58.5q190 0 313 -47v-315q-55 20 -123 20q-82 0 -130 -25.5t-48 -62.5v-12h598v-971h-496v614h-102v-614h-496v614h-114z" />
<glyph unicode="fl" horiz-adv-x="1269" d="M-10 614v357h114v20q0 119 56.5 214t166 151.5t261.5 56.5q156 0 295 -45h315v-1368h-485v614h-123v-614h-486v614h-114zM586 971h135v98q-135 0 -135 -86v-12z" />
<glyph unicode="&#xe24;&#xe45;" horiz-adv-x="1986" d="M31 625v317q119 80 272.5 132t329.5 52q248 0 401 -82q66 35 167.5 58.5t201.5 23.5q262 0 387 -118.5t125 -352.5v-983h-453v906q0 76 -36.5 111.5t-120.5 35.5q-31 0 -45 -2q4 -37 4 -57v-994h-516v963q0 80 -31 113.5t-113 33.5t-155 -32v-5l202 -73v-195 q-94 -31 -94 -121v-18q0 -51 51 -51h47v-287h-385q-102 0 -160.5 58.5t-58.5 154.5v133q0 68 40 131.5t106 87.5z" />
<glyph unicode="&#xe26;&#xe45;" horiz-adv-x="2033" d="M31 0v307h41q51 0 51 51v23q0 70 27.5 115t93.5 69l-166 60v317q119 80 272.5 132t329.5 52q248 0 401 -82q66 35 167.5 58.5t201.5 23.5q262 0 387 -118.5t125 -352.5v-983h-453v906q0 76 -36.5 111.5t-120.5 35.5q-31 0 -45 -2q4 -37 4 -57v-994h-516v963 q0 80 -31 113.5t-113 33.5t-155 -32v-5l202 -73v-195q-41 -14 -55 -39.5t-14 -75.5v-149q0 -96 -58.5 -154.5t-160.5 -58.5h-379z" />
<glyph unicode=" "  horiz-adv-x="614" />
<glyph unicode="&#x09;" horiz-adv-x="614" />
<glyph unicode="&#xa0;" horiz-adv-x="614" />
<glyph unicode="!" horiz-adv-x="573" d="M31 0v342h512v-342h-512zM39 950v369h496v-369l-15 -542h-467z" />
<glyph unicode="&#x22;" horiz-adv-x="919" d="M31 809v510h397l-35 -510h-362zM492 809v510h397l-33 -510h-364z" />
<glyph unicode="#" horiz-adv-x="1478" d="M31 279v313h198l45 139h-165v316h264l86 272h422l-86 -272h147l86 272h420l-86 -272h86v-316h-184l-45 -139h153v-313h-252l-86 -279h-420l86 279h-147l-88 -279h-420l86 279h-100zM651 592h148l45 139h-150z" />
<glyph unicode="$" horiz-adv-x="1146" d="M31 928q0 319 348 391v176h430v-172q147 -20 235 -47v-373q-195 80 -350 80q-158 0 -157 -51q0 -20 28.5 -33.5t114.5 -38.5l53 -14q158 -43 241 -105.5t112.5 -143.5t29.5 -202q0 -137 -77.5 -235.5t-229.5 -143.5v-192h-430v164q-211 20 -336 84v370q98 -47 218 -77.5 t214 -30.5q61 0 96 15.5t35 43.5q0 25 -28.5 40.5t-106.5 41.5q-90 31 -102 35q-131 49 -203 102.5t-103.5 127t-31.5 188.5z" />
<glyph unicode="%" horiz-adv-x="1654" d="M31 997q0 160 86 251t241 91q156 0 242 -91t86 -251q0 -141 -86 -227t-242 -86q-155 0 -241 86t-86 227zM252 0l684 1319h467l-684 -1319h-467zM281 1008q0 -82 77 -82q78 0 78 82q0 47 -18.5 68.5t-59.5 21.5t-59 -21.5t-18 -68.5zM969 293q0 160 86 251t241 91 q156 0 242 -91t86 -251q0 -141 -86 -227t-242 -86q-155 0 -241 86t-86 227zM1219 303q0 -82 77 -82q78 0 78 82q0 47 -18.5 68.5t-59.5 21.5t-59 -21.5t-18 -68.5z" />
<glyph unicode="&#x26;" horiz-adv-x="1447" d="M31 371q0 250 239 379q-53 53 -77.5 107t-24.5 128q0 162 123 258t325 96q207 0 333 -96t126 -258q0 -90 -33.5 -157.5t-105.5 -131.5l127 -131q14 16 14 58v28h361v-47q0 -82 -29 -164t-74 -137l72 -76l-303 -276l-117 119q-68 -43 -171 -66.5t-218 -23.5 q-172 0 -300 48t-197.5 136t-69.5 207zM506 383q0 -33 24.5 -52.5t67.5 -19.5q53 1 90 21l-121 123q-61 -16 -61 -72zM559 963q0 -27 15.5 -45.5t46.5 -38.5q32 20 47.5 38.5t15.5 45.5t-16.5 43t-44.5 16q-31 0 -47.5 -16.5t-16.5 -42.5z" />
<glyph unicode="'" horiz-adv-x="458" d="M31 809v510h397l-35 -510h-362z" />
<glyph unicode="(" horiz-adv-x="831" d="M31 621q0 244 64.5 438t185.5 330h561q-305 -289 -305 -768t305 -768h-561q-121 135 -185.5 329.5t-64.5 438.5z" />
<glyph unicode=")" horiz-adv-x="831" d="M-10 -147q305 289 305 768t-305 768h561q121 -135 185.5 -330t64.5 -438q0 -244 -64.5 -438.5t-185.5 -329.5h-561z" />
<glyph unicode="*" horiz-adv-x="937" d="M31 961l143 290l129 -80l-14 148h360l-14 -148l129 80l143 -290l-190 -80l145 -136l-276 -200l-117 168l-117 -168l-276 200l145 136z" />
<glyph unicode="+" horiz-adv-x="929" d="M31 420v377h245v215h377v-215h246v-377h-246v-215h-377v215h-245z" />
<glyph unicode="," horiz-adv-x="544" d="M31 -246l75 510h408l-133 -510h-350z" />
<glyph unicode="-" horiz-adv-x="888" d="M31 420v377h827v-377h-827z" />
<glyph unicode="." horiz-adv-x="442" d="M31 0v346h381v-346h-381z" />
<glyph unicode="/" horiz-adv-x="1048" d="M31 0l479 1356h508l-479 -1356h-508z" />
<glyph unicode="0" horiz-adv-x="1392" d="M31 659q0 338 159.5 509t505.5 171t506 -171t160 -509t-160 -508.5t-506 -170.5t-505.5 171t-159.5 508zM537 659q0 -133 36.5 -195.5t122.5 -62.5t123 62.5t37 195.5t-37 196t-123 63t-122.5 -62.5t-36.5 -196.5z" />
<glyph unicode="1" horiz-adv-x="821" d="M31 825v412l719 102v-1339h-496v858z" />
<glyph unicode="2" horiz-adv-x="1095" d="M31 0v219q57 92 128.5 172t172.5 168q131 113 174 161t43 101q0 96 -141 97q-166 0 -338 -74v411q92 39 215 61.5t254 22.5q256 0 386 -115.5t130 -314.5q0 -123 -41 -201.5t-152 -177.5l-37 -32q-96 -80 -125 -121h365v-377h-1034z" />
<glyph unicode="3" horiz-adv-x="1126" d="M31 59v375q86 -41 192.5 -61.5t196.5 -20.5t130 17.5t40 66.5q0 33 -29 51.5t-90 18.5h-242l31 313h199q59 0 83.5 17.5t24.5 58.5q0 33 -40 52.5t-124 19.5q-94 0 -190 -22.5t-164 -59.5v372q88 37 210 59.5t243 22.5q174 0 303 -51t198.5 -141t69.5 -203 q0 -172 -104 -282q127 -80 127 -263q0 -211 -163 -315t-431 -104q-94 0 -241.5 23.5t-229.5 55.5z" />
<glyph unicode="4" horiz-adv-x="1144" d="M-10 221v314l631 784h423v-701h111v-397h-111v-221h-495v221h-559zM467 598h174v190z" />
<glyph unicode="5" horiz-adv-x="1095" d="M31 535v194l35 590h923l-31 -377h-466l-7 -84h101q238 0 358.5 -108.5t120.5 -317.5q0 -207 -146.5 -329.5t-433.5 -122.5q-100 0 -231 19t-217 58v377q68 -33 183.5 -55.5t182.5 -22.5q82 0 119 23.5t37 71.5q0 45 -28.5 64.5t-92.5 19.5h-407z" />
<glyph unicode="6" horiz-adv-x="1236" d="M31 530v226q0 166 78.5 299t229 208.5t355.5 75.5q119 0 207 -14t172 -47v-358q-76 33 -153.5 48t-169.5 15q-80 0 -138.5 -18.5t-89 -46t-30.5 -56.5v-12q39 23 107.5 37t129.5 14q248 0 362.5 -110.5t114.5 -331.5t-139 -350t-444 -129q-297 0 -444.5 140t-147.5 410z M492 461q0 -76 32.5 -109t102.5 -33q69 0 104 30t35 91t-30.5 92t-104.5 31q-61 0 -139 -37v-65z" />
<glyph unicode="7" horiz-adv-x="1032" d="M10 942v377h1012v-272l-444 -1047h-517l400 942h-451z" />
<glyph unicode="8" horiz-adv-x="1286" d="M31 401q0 82 36.5 161t96.5 122q-47 45 -75 107.5t-28 128.5q0 420 580 419q307 0 445.5 -108.5t138.5 -310.5q0 -66 -27 -132.5t-74 -109.5q61 -49 96 -120t35 -157q0 -213 -148.5 -317t-465.5 -104q-315 0 -462.5 104t-147.5 317zM500 428q0 -109 141 -109 q74 0 109.5 25t35.5 68q0 74 -92 94l-119 24q-76 -23 -75 -102zM530 909q0 -74 64 -86l94 -18q37 16 52.5 40.5t15.5 63.5q0 90 -115 90q-111 0 -111 -90z" />
<glyph unicode="9" horiz-adv-x="1236" d="M31 860q0 221 139 350t444 129q309 0 450.5 -137t141.5 -414v-225q0 -166 -78.5 -299t-229 -208.5t-355.5 -75.5q-125 0 -210 11t-165 44v358q74 -33 147.5 -45t171.5 -12q125 0 191.5 38t66.5 83v12q-39 -23 -107.5 -37t-129.5 -14q-248 0 -362.5 110.5t-114.5 331.5z M471 879q0 -61 30.5 -92t104.5 -31q61 0 139 37v65q0 78 -30.5 109.5t-104.5 31.5q-70 0 -104.5 -29.5t-34.5 -90.5z" />
<glyph unicode=":" horiz-adv-x="440" d="M31 29v350h379v-350h-379zM31 637v350h379v-350h-379z" />
<glyph unicode=";" horiz-adv-x="544" d="M31 -246l75 510h408l-133 -510h-350zM125 637v350h379v-350h-379z" />
<glyph unicode="&#x3c;" horiz-adv-x="1103" d="M31 453v405l1042 453v-457l-516 -199l516 -198v-457z" />
<glyph unicode="=" horiz-adv-x="888" d="M31 221v336h827v-336h-827zM31 647v336h827v-336h-827z" />
<glyph unicode="&#x3e;" horiz-adv-x="1103" d="M31 0v457l516 198l-516 199v457l1042 -453v-405z" />
<glyph unicode="?" horiz-adv-x="1044" d="M31 903v342q86 45 203.5 69.5t242.5 24.5q258 0 397.5 -104.5t139.5 -294.5q0 -111 -35 -184.5t-129 -151.5l-64 -47q-59 -45 -84.5 -71.5t-25.5 -61.5v-16h-451v30q0 92 29 143.5t119 127.5l37 32q57 47 77.5 74t20.5 66q0 53 -43 78.5t-133 25.5q-82 0 -164 -23.5 t-137 -58.5zM195 0v342h512v-342h-512z" />
<glyph unicode="@" horiz-adv-x="1544" d="M31 385q0 344 211 517t567 173q213 0 371.5 -66.5t245.5 -192.5t87 -298q0 -199 -118.5 -306.5t-345.5 -107.5h-144q-92 -49 -233 -49q-104 0 -172 58.5t-68 169.5q0 225 287 225h141v6q0 18 -30.5 28.5t-88.5 10.5q-111 0 -225 -35v182q53 23 133 36.5t160 13.5 q164 0 242.5 -68t78.5 -211v-139q27 0 41.5 40t14.5 122q0 154 -96.5 234.5t-280.5 80.5q-219 0 -335 -106.5t-116 -321.5q0 -195 106.5 -290t328.5 -95q225 0 354 39v-268q-156 -37 -350 -37q-359 0 -562.5 166.5t-203.5 488.5zM737 285q0 -47 47 -47q49 -1 76 32v68h-61 q-61 0 -62 -53z" />
<glyph unicode="A" horiz-adv-x="1591" d="M31 0l508 1319h514l508 -1319h-517l-94 246h-309l-94 -246h-516zM694 584h201l-100 252z" />
<glyph unicode="B" horiz-adv-x="1355" d="M72 0v1319h782q203 0 314.5 -97.5t111.5 -275.5q0 -94 -33 -164.5t-90 -113.5q84 -41 126 -100.5t42 -168.5q0 -186 -123 -292.5t-340 -106.5h-790zM537 336h184q98 0 98 88q0 39 -24.5 60.5t-73.5 21.5h-184v-170zM537 813h184q98 0 98 88q0 39 -24.5 60.5t-73.5 21.5 h-184v-170z" />
<glyph unicode="C" horiz-adv-x="1265" d="M31 659q0 336 197.5 508t586.5 172q121 0 218 -17t198 -54v-432q-186 86 -383 86q-154 0 -232.5 -59.5t-78.5 -203.5q0 -141 80.5 -201.5t234.5 -60.5q197 0 383 86v-432q-100 -37 -197.5 -54t-218.5 -17q-389 0 -588.5 172t-199.5 507z" />
<glyph unicode="D" horiz-adv-x="1413" d="M72 0v1319h626q684 0 684 -668q0 -334 -177 -492.5t-507 -158.5h-626zM567 377h74q121 0 179.5 56t58.5 218q0 111 -26 168.5t-76 75.5t-136 18h-74v-536z" />
<glyph unicode="E" horiz-adv-x="1136" d="M72 0v1319h1054v-356h-559v-119h482v-369h-482v-119h559v-356h-1054z" />
<glyph unicode="F" horiz-adv-x="1116" d="M72 0v1319h1054v-356h-559v-119h482v-369h-482v-475h-495z" />
<glyph unicode="G" horiz-adv-x="1357" d="M31 659q0 334 205.5 507t597.5 173q129 0 230 -14t193 -45v-422q-164 63 -391 64q-156 0 -242.5 -60.5t-86.5 -202.5q0 -143 63.5 -202.5t194.5 -59.5q66 0 123 15v80h-220v299h629v-682q-94 -57 -226 -93t-302 -36q-375 0 -571.5 172t-196.5 507z" />
<glyph unicode="H" horiz-adv-x="1464" d="M72 0v1319h495v-430h330v430h496v-1319h-496v430h-330v-430h-495z" />
<glyph unicode="I" horiz-adv-x="638" d="M72 0v1319h495v-1319h-495z" />
<glyph unicode="J" horiz-adv-x="946" d="M-10 27v411q98 -39 229 -39q92 0 131 37t39 127v756h496v-877q0 -229 -144.5 -345.5t-418.5 -116.5q-189 0 -332 47z" />
<glyph unicode="K" horiz-adv-x="1486" d="M72 0v1319h495v-369l289 369h559l-450 -547l491 -772h-524l-270 459l-95 -115v-344h-495z" />
<glyph unicode="L" horiz-adv-x="1095" d="M72 0v1319h495v-942h539v-377h-1034z" />
<glyph unicode="M" horiz-adv-x="1619" d="M72 0v1319h471l268 -545l266 545h471v-1319h-495v463l-117 -238h-252l-117 238v-463h-495z" />
<glyph unicode="N" horiz-adv-x="1423" d="M72 0v1319h415l369 -516v516h496v-1319h-418l-367 516v-516h-495z" />
<glyph unicode="O" horiz-adv-x="1474" d="M31 659q0 360 179 520t527 160t527.5 -159.5t179.5 -520.5q0 -360 -179.5 -519.5t-527.5 -159.5t-527 159.5t-179 519.5zM537 659q0 -143 46 -201.5t154 -58.5q109 0 155 58.5t46 201.5t-46 202t-155 59t-154.5 -58.5t-45.5 -202.5z" />
<glyph unicode="P" horiz-adv-x="1302" d="M72 0v1319h741q164 0 275.5 -68.5t168 -185.5t56.5 -260t-62.5 -260t-178.5 -183.5t-267 -66.5h-238v-295h-495zM567 682h121q59 0 90 33t31 90q0 127 -113 127h-129v-250z" />
<glyph unicode="Q" horiz-adv-x="1474" d="M31 659q0 360 179 520t527 160t527.5 -159.5t179.5 -520.5q0 -309 -132 -469.5t-388 -197.5q8 -33 34.5 -47.5t77.5 -14.5q78 0 148 25v-274q-45 -14 -120 -23.5t-153 -9.5q-190 0 -284.5 92t-102.5 256q-244 41 -368.5 200.5t-124.5 462.5zM537 659q0 -143 46 -201.5 t154 -58.5q109 0 155 58.5t46 201.5t-46 202t-155 59t-154.5 -58.5t-45.5 -202.5z" />
<glyph unicode="R" horiz-adv-x="1343" d="M72 0v1319h741q244 0 372 -136t128 -358q0 -127 -64.5 -228t-169.5 -171q39 -27 56 -68l155 -358h-516l-129 293q-10 25 -22.5 34t-34.5 9h-21v-336h-495zM567 723h121q121 0 121 102q0 55 -27.5 81t-85.5 26h-129v-209z" />
<glyph unicode="S" horiz-adv-x="1146" d="M31 928q0 209 144 310t435 101q96 0 223.5 -19.5t210.5 -43.5v-373q-195 80 -350 80q-157 0 -157 -50q0 -21 28.5 -34.5t114.5 -38.5l53 -14q158 -43 241 -105.5t112.5 -143.5t29.5 -202q0 -193 -150.5 -304t-437.5 -111q-141 0 -270 24.5t-215 67.5v370 q98 -47 218 -77.5t214 -30.5q61 0 96 15.5t35 43.5q0 25 -28.5 40.5t-106.5 41.5q-90 31 -102 35q-131 49 -203 102.5t-103.5 127t-31.5 188.5z" />
<glyph unicode="T" horiz-adv-x="1146" d="M-10 963v356h1167v-356h-336v-963h-495v963h-336z" />
<glyph unicode="U" horiz-adv-x="1441" d="M61 520v799h496v-735q0 -184 164 -185q164 0 164 185v735h495v-799q0 -172 -86 -294t-235.5 -184t-337.5 -62q-189 0 -338.5 62t-235.5 184t-86 294z" />
<glyph unicode="V" horiz-adv-x="1591" d="M31 1319h516l248 -733l249 733h517l-508 -1319h-514z" />
<glyph unicode="W" horiz-adv-x="1865" d="M31 1319h483l100 -504l76 281v223h404l147 -506l113 506h481l-305 -1319h-432l-158 520l-170 -520h-432z" />
<glyph unicode="X" horiz-adv-x="1656" d="M31 0l499 674l-475 645h592l180 -244l183 244h592l-476 -645l500 -674h-600l-199 268l-196 -268h-600z" />
<glyph unicode="Y" horiz-adv-x="1511" d="M31 1319h516l209 -420l209 420h516l-477 -840v-479h-496v479z" />
<glyph unicode="Z" horiz-adv-x="1200" d="M31 0v244l483 669h-455v406h1108v-281l-477 -661h490v-377h-1149z" />
<glyph unicode="[" horiz-adv-x="811" d="M31 -203v1649h755l13 -377h-273v-895h275l-13 -377h-757z" />
<glyph unicode="\" horiz-adv-x="1093" d="M31 1356h516l516 -1467h-514z" />
<glyph unicode="]" horiz-adv-x="811" d="M10 174h275v895h-273l13 377h755v-1649h-757z" />
<glyph unicode="^" horiz-adv-x="1159" d="M31 743l372 535h330l395 -535h-452l-96 179l-95 -179h-454z" />
<glyph unicode="_" horiz-adv-x="1040" d="M31 0h979v-315h-979v315z" />
<glyph unicode="`" horiz-adv-x="679" d="M51 1532h381l197 -463h-363z" />
<glyph unicode="a" horiz-adv-x="1202" d="M31 303q0 332 422 332h217v10q0 25 -45 41t-129 16q-80 0 -171.5 -13t-170.5 -38v267q78 33 201.5 53t238.5 20q252 0 399.5 -103.5t147.5 -307.5v-580h-434l-21 70q-111 -90 -313 -90q-152 0 -247 79.5t-95 243.5zM487 317q0 -67 70 -67h2q66 0 111 45v90h-90 q-49 0 -71 -15.5t-22 -52.5z" />
<glyph unicode="b" horiz-adv-x="1286" d="M72 0v1380h495v-426q39 16 98.5 26.5t112.5 10.5q233 0 355 -117.5t122 -379.5q0 -252 -122.5 -383t-335.5 -131q-84 0 -149.5 21.5t-123.5 61.5l-22 -63h-430zM567 365q20 -16 40 -23.5t46 -7.5q47 0 72 33.5t25 117.5t-25 118t-72 34q-27 0 -46 -7t-40 -24v-241z" />
<glyph unicode="c" horiz-adv-x="1064" d="M31 485q0 252 162.5 379t441.5 127q121 0 216 -16.5t179 -54.5v-345q-125 61 -285 62q-109 0 -158.5 -35t-49.5 -117t52 -116.5t161 -34.5q139 0 284 78v-361q-84 -39 -179 -55t-216 -16q-281 0 -444.5 126.5t-163.5 378.5z" />
<glyph unicode="d" horiz-adv-x="1286" d="M31 455q0 264 130 400t347 136q53 0 112.5 -10t98.5 -27v426h495v-1380h-430l-22 63q-57 -41 -123 -62t-150 -21q-458 0 -458 475zM537 459q0 -80 22.5 -102.5t73.5 -22.5q26 0 45.5 7t40.5 24v241q-20 16 -40 23.5t-46 7.5q-45 0 -70.5 -46t-25.5 -132z" />
<glyph unicode="e" horiz-adv-x="1161" d="M31 481q0 238 141 374t410 136q252 0 400 -124t148 -349v-166h-647q66 -82 285 -82q86 0 173 14.5t140 34.5v-266q-152 -73 -438 -73h-8q-174 0 -311.5 58t-215 171t-77.5 272zM483 600h224v18q0 35 -26 57.5t-83 22.5q-59 0 -87 -26.5t-28 -71.5z" />
<glyph unicode="f" horiz-adv-x="808" d="M-10 614v357h114v30q0 184 106.5 298t307.5 114q172 0 301 -55v-307q-59 20 -123 20q-96 0 -96 -82v-18h211l-20 -357h-191v-614h-496v614h-114z" />
<glyph unicode="g" horiz-adv-x="1200" d="M31 166q0 70 43 119t119 71q-84 43 -120 104.5t-36 162.5q0 186 136 277t394 91q51 0 123 -7t105 -13h395l-8 -293h-107q12 -33 12 -62q0 -156 -83.5 -237.5t-266.5 -81.5q-47 0 -104 4q-76 -4 -76 -37q0 -16 13.5 -21t39.5 -5h172q158 0 247 -69t89 -208 q0 -150 -144.5 -235.5t-445.5 -85.5q-127 0 -262 12t-200 37v282q76 -25 197.5 -38t234.5 -13q196 0 196 33q0 14 -20.5 18t-65.5 4h-233q-172 0 -258 46.5t-86 144.5zM471 643q0 -43 22.5 -61.5t77.5 -18.5q56 0 78.5 18.5t22.5 61.5q0 45 -23.5 64.5t-77.5 19.5 q-53 0 -76.5 -19.5t-23.5 -64.5z" />
<glyph unicode="h" horiz-adv-x="1282" d="M72 0v1380h495v-446q43 25 113 41t141 16q205 0 302.5 -96t97.5 -297v-598h-496v557q0 70 -68 70q-23 0 -49 -12.5t-41 -28.5v-586h-495z" />
<glyph unicode="i" horiz-adv-x="774" d="M72 614l41 357h589v-971h-495v614h-135zM172 1051v342h530v-342h-530z" />
<glyph unicode="j" horiz-adv-x="774" d="M-12 -117q59 -20 123 -20q96 0 96 82v669h-135l41 357h589v-1059q0 -180 -101 -285.5t-312 -105.5q-172 0 -301 55v307zM172 1051v342h530v-342h-530z" />
<glyph unicode="k" horiz-adv-x="1353" d="M72 0v1380h495v-604l178 195h558l-383 -420l403 -551h-524l-187 293l-45 -51v-242h-495z" />
<glyph unicode="l" horiz-adv-x="751" d="M72 332v1048h495v-983q0 -39 15.5 -57t56.5 -18q57 0 102 18v-307q-70 -29 -127 -41t-153 -12q-211 0 -300 83.5t-89 268.5z" />
<glyph unicode="m" horiz-adv-x="1779" d="M72 0v971h458l11 -60q141 80 299 80q84 0 134 -21.5t85 -68.5q70 45 149.5 67.5t180.5 22.5q172 0 250.5 -90t78.5 -276v-625h-485v565q0 33 -12.5 47.5t-44.5 14.5q-33 0 -58 -27v-600h-456v578q0 27 -10.5 38t-35.5 11q-39 0 -69 -37v-590h-475z" />
<glyph unicode="n" horiz-adv-x="1282" d="M72 0v971h465l10 -56q57 31 149 53.5t193 22.5q172 0 252 -90t80 -276v-625h-496v561q0 66 -68 66q-23 0 -49 -12.5t-41 -28.5v-586h-495z" />
<glyph unicode="o" horiz-adv-x="1284" d="M31 485q0 506 610 506q612 0 612 -506q0 -505 -610 -505h-2h-2q-608 0 -608 505zM537 485q0 -84 25.5 -117.5t78.5 -33.5q55 0 81 33.5t26 117.5t-26 118t-81 34q-53 0 -78.5 -34t-25.5 -118z" />
<glyph unicode="p" horiz-adv-x="1286" d="M72 -410v1381h430l22 -64q57 41 123 62.5t150 21.5q225 0 341.5 -119.5t116.5 -373.5q0 -256 -124.5 -387t-352.5 -131q-53 0 -112.5 10t-98.5 26v-426h-495zM567 365q20 -16 40 -23.5t46 -7.5q47 0 72 37t25 121q0 82 -24 113.5t-73 31.5q-27 0 -46 -7t-40 -24v-241z " />
<glyph unicode="q" horiz-adv-x="1449" d="M31 467q0 254 124 389t341 135q84 0 145 -21.5t121 -62.5l22 64h430v-1049q0 -39 13.5 -57.5t48.5 -18.5q55 0 102 19v-307q-70 -29 -127 -41.5t-153 -12.5q-199 0 -289 85t-90 268v159q-39 -16 -98.5 -26t-112.5 -10q-477 0 -477 487zM537 475q0 -82 23.5 -111.5 t72.5 -29.5q26 0 45.5 7t40.5 24v241q-23 16 -38 23.5t-42 7.5q-47 0 -74.5 -39t-27.5 -123z" />
<glyph unicode="r" horiz-adv-x="878" d="M72 0v971h485l10 -56q57 31 144.5 53.5t177.5 22.5v-364q-82 0 -175 -11.5t-147 -29.5v-586h-495z" />
<glyph unicode="s" horiz-adv-x="1038" d="M31 674q0 317 524 317q98 0 218 -14t181 -35v-311q-66 27 -141.5 43t-132.5 16q-70 0 -106.5 -4t-36.5 -22q0 -10 22.5 -18.5t77.5 -22.5q53 -10 100 -25q106 -31 165 -68.5t82.5 -91t23.5 -135.5q0 -152 -133.5 -237.5t-385.5 -85.5q-137 0 -261 19t-189 50v313 q68 -37 174 -59t178 -22q61 0 86 3t25 19q0 12 -25.5 22.5t-77.5 22.5q-109 33 -116 35q-137 51 -194.5 113.5t-57.5 177.5z" />
<glyph unicode="t" horiz-adv-x="811" d="M-10 614v357h116v190l496 101v-291h199l-10 -357h-189v-206q0 -86 96 -86q63 0 123 20v-307q-129 -55 -301 -55q-414 0 -414 401v233h-116z" />
<glyph unicode="u" horiz-adv-x="1282" d="M61 356v615h496v-561q0 -66 68 -66q23 0 49 12.5t41 28.5v586h495v-971h-465l-10 55q-57 -35 -140 -55t-177 -20q-166 0 -261.5 97t-95.5 279z" />
<glyph unicode="v" horiz-adv-x="1345" d="M31 971h516l125 -447l127 447h516l-385 -971h-514z" />
<glyph unicode="w" horiz-adv-x="1667" d="M31 971h471l82 -332l61 180v152h356l86 -332l78 332h471l-258 -971h-436l-106 313l-107 -313h-440z" />
<glyph unicode="x" horiz-adv-x="1355" d="M31 0l379 494l-363 477h535l96 -127l96 127h535l-363 -477l379 -494h-541l-106 139l-107 -139h-540z" />
<glyph unicode="y" horiz-adv-x="1386" d="M31 971h518l170 -484l162 484h516l-334 -854q-92 -233 -235.5 -355t-358.5 -122q-98 0 -161.5 10t-127.5 37v315q59 -20 123 -20q66 0 106 10t66 39z" />
<glyph unicode="z" horiz-adv-x="1036" d="M31 0v260l325 332h-315v379h948v-287l-309 -328h326v-356h-975z" />
<glyph unicode="{" horiz-adv-x="714" d="M-10 471v279q55 8 81.5 42.5t26.5 106.5v207q0 158 79 244t226 86h302v-377h-68q-31 0 -47.5 -17.5t-16.5 -50.5v-184q0 -66 -22.5 -113t-63.5 -84q41 -37 63.5 -84t22.5 -112v-183q0 -33 16.5 -50t47.5 -17h68v-377h-302q-147 0 -226 86t-79 244v207q0 72 -26.5 105.5 t-81.5 41.5z" />
<glyph unicode="|" horiz-adv-x="557" d="M31 -246v1751h495v-1751h-495z" />
<glyph unicode="}" horiz-adv-x="714" d="M10 164h68q31 0 47 17.5t16 49.5v183q0 66 22.5 112.5t63.5 83.5q-41 37 -63.5 84t-22.5 113v184q0 33 -16 50.5t-47 17.5h-68v377h301q147 0 226 -86t79 -244v-207q0 -72 27 -106.5t82 -42.5v-279q-55 -8 -82 -42t-27 -105v-207q0 -158 -78.5 -244t-226.5 -86h-301v377z " />
<glyph unicode="~" horiz-adv-x="1058" d="M31 369v415q35 47 102.5 73t145.5 26q63 0 124.5 -17.5t139.5 -50.5q82 -31 133 -46t106 -15q80 0 139.5 26.5t106.5 87.5v-415q-35 -47 -100.5 -73t-145.5 -26q-59 0 -115.5 16.5t-138.5 49.5q-84 33 -138 48t-111 15q-80 0 -140.5 -26.5t-107.5 -87.5z" />
<glyph unicode="&#xa1;" horiz-adv-x="573" d="M31 782v342h512v-342h-512zM39 174l14 543h467l15 -543v-369h-496v369z" />
<glyph unicode="&#xa2;" horiz-adv-x="1064" d="M31 485q0 186 91 304t255 167v191h430v-166q119 -14 223 -61v-345q-125 61 -285 62q-109 0 -158.5 -35t-49.5 -117t52 -116.5t161 -34.5q139 0 284 78v-361q-100 -45 -227 -61v-166h-430v190q-164 49 -255 167t-91 304z" />
<glyph unicode="&#xa3;" horiz-adv-x="985" d="M31 0v356h47q68 0 67 66v67h-114v357h114v82q0 184 106.5 297.5t307.5 113.5q172 0 301 -55v-307q-59 20 -123 20q-96 0 -96 -82v-69h211l-21 -357h-190v-34q0 -35 -8 -56.5t-29 -42.5h350v-356h-923z" />
<glyph unicode="&#xa4;" horiz-adv-x="1175" d="M31 305l151 111q-23 68 -22 135q0 68 22 135l-149 113l211 256l162 -129q80 37 180 37q104 0 184 -39l164 127l211 -254l-156 -111q25 -63 25 -135q0 -63 -25 -133l152 -117l-207 -252l-166 127q-84 -39 -180 -39q-90 0 -180 37l-164 -127zM492 553q0 -39 27.5 -66.5 t66.5 -27.5q41 0 68.5 27.5t27.5 66.5q0 41 -27.5 68.5t-68.5 27.5q-39 0 -66.5 -27.5t-27.5 -68.5z" />
<glyph unicode="&#xa5;" horiz-adv-x="1511" d="M31 1319h516l209 -420l209 420h516l-369 -649h139v-232h-247v-94h247v-231h-247v-113h-496v113h-252v231h252v94h-252v232h143z" />
<glyph unicode="&#xa6;" horiz-adv-x="557" d="M31 -246v762h495v-762h-495zM31 743v762h495v-762h-495z" />
<glyph unicode="&#xa7;" horiz-adv-x="1146" d="M31 897q0 39 14 80t35 70q-20 29 -33.5 69.5t-13.5 83.5q0 367 577 367q96 0 223.5 -19.5t210.5 -44.5v-373q-195 80 -350 80q-158 0 -157 -51q0 -20 28.5 -33.5t114.5 -38.5l53 -14q160 -45 243 -96t111.5 -116.5t28.5 -170.5q0 -49 -14.5 -96t-36.5 -72 q23 -27 37 -66.5t14 -78.5q0 -190 -149.5 -293.5t-438.5 -103.5q-141 0 -270 24.5t-215 67.5v370q98 -47 218 -77.5t214 -30.5q61 0 96 15.5t35 43.5q0 25 -28.5 40.5t-106.5 41.5q-90 31 -102 35q-131 49 -203 99t-103.5 118t-31.5 170zM428 846q0 -31 43 -52.5t125 -41.5 q51 -12 99 -31t65 -35q6 11 6 23q0 31 -49 57.5t-131 44.5q-47 10 -92 26.5t-62 32.5q-4 -12 -4 -24z" />
<glyph unicode="&#xa8;" horiz-adv-x="903" d="M31 1106v330h360v-330h-360zM512 1106v330h360v-330h-360z" />
<glyph unicode="&#xa9;" horiz-adv-x="1421" d="M31 659q0 184 91 341t247.5 248t341.5 91q184 0 340.5 -91t248 -247.5t91.5 -341.5q0 -184 -91.5 -340.5t-248 -247.5t-340.5 -91q-185 0 -341.5 91t-247.5 247.5t-91 340.5zM283 659q0 -129 56 -228t153.5 -154.5t218.5 -55.5q120 0 217.5 55.5t154 154.5t56.5 228 t-56.5 228.5t-154 155t-217.5 55.5q-121 0 -218.5 -55.5t-153.5 -155t-56 -228.5zM352 662q0 172 102.5 273t262.5 101q78 0 138 -22.5t120 -65.5v-205q-47 29 -88 42.5t-88 13.5q-55 0 -94 -31t-39 -106q0 -135 131 -136q104 0 182 66v-217q-119 -86 -260 -86 q-105 0 -189 46t-131 130t-47 197z" />
<glyph unicode="&#xaa;" horiz-adv-x="677" d="M31 958q0 182 233 183h121v6q0 14 -24.5 23.5t-71.5 9.5q-94 0 -191 -29v147q45 18 113 29.5t133 11.5q139 0 221 -57t82 -170v-321h-241l-13 36q-59 -49 -172 -49q-84 0 -137 45t-53 135zM285 967q0 -39 39 -39q36 -1 61 24v52h-49q-29 0 -40 -8.5t-11 -28.5z" />
<glyph unicode="&#xab;" horiz-adv-x="1470" d="M31 496v168l569 419l184 -268l-319 -235l319 -236l-184 -268zM686 496v168l569 419l185 -268l-320 -235l320 -236l-185 -268z" />
<glyph unicode="&#xac;" horiz-adv-x="1011" d="M31 420v377h950v-588h-377v211h-573z" />
<glyph unicode="&#xad;" horiz-adv-x="888" d="M31 420v377h827v-377h-827z" />
<glyph unicode="&#xae;" horiz-adv-x="1421" d="M31 659q0 184 91 341t247.5 248t341.5 91q184 0 340.5 -91t248 -247.5t91.5 -341.5q0 -184 -91.5 -340.5t-248 -247.5t-340.5 -91q-185 0 -341.5 91t-247.5 247.5t-91 340.5zM283 659q0 -129 56 -228t153.5 -154.5t218.5 -55.5q120 0 217.5 55.5t154 154.5t56.5 228 t-56.5 228.5t-154 155t-217.5 55.5q-121 0 -218.5 -55.5t-153.5 -155t-56 -228.5zM432 346v643h381q119 0 181.5 -66.5t62.5 -172.5q0 -139 -127 -203q14 -12 22 -35l54 -166h-244l-41 143q-6 23 -25 23h-8v-166h-256zM688 700h53q59 0 60 50q0 49 -53 49h-60v-99z" />
<glyph unicode="&#xaf;" horiz-adv-x="608" d="M-51 1135v286h715v-286h-715z" />
<glyph unicode="&#xb0;" horiz-adv-x="583" d="M31 1253q0 117 75.5 184.5t184.5 67.5q111 0 186.5 -67.5t75.5 -184.5q0 -115 -76 -182t-186 -67q-109 0 -184.5 67.5t-75.5 181.5zM225 1253q0 -27 19.5 -46t46.5 -19q28 0 46.5 19.5t18.5 45.5q0 29 -18.5 47.5t-46.5 18.5q-27 0 -46.5 -18.5t-19.5 -47.5z" />
<glyph unicode="&#xb1;" horiz-adv-x="929" d="M31 0v377h868v-377h-868zM31 668v376h245v216h377v-216h246v-376h-246v-215h-377v215h-245z" />
<glyph unicode="&#xb2;" horiz-adv-x="643" d="M31 758v125q29 33 54.5 53t70.5 51q53 35 66.5 50.5t13.5 35.5t-16.5 27.5t-49.5 7.5q-27 0 -64.5 -11.5t-68.5 -27.5v223q49 18 129 32.5t158 14.5q135 0 209.5 -49t74.5 -133q0 -47 -15 -77.5t-48 -59.5l-56 -45h123v-217h-581z" />
<glyph unicode="&#xb3;" horiz-adv-x="653" d="M31 776v174q39 -18 85 -27.5t85 -9.5t57 7.5t18 23.5q0 14 -12 19.5t-41 5.5h-104l10 145h90q29 0 38 4t9 19q0 27 -71 26q-41 0 -84 -9t-72 -26v175q37 14 118 25t142 11q156 0 234.5 -50t78.5 -128q0 -72 -45 -121q55 -33 56 -112q0 -186 -324 -187q-49 0 -141 10.5 t-127 24.5z" />
<glyph unicode="&#xb4;" horiz-adv-x="679" d="M51 1069l197 463h381l-215 -463h-363z" />
<glyph unicode="&#xb6;" horiz-adv-x="1388" d="M31 977q0 238 139 357.5t365 119.5h823v-1612h-414v1256h-106v-1256h-406v676q-180 0 -290.5 118t-110.5 341z" />
<glyph unicode="&#xb7;" horiz-adv-x="442" d="M31 416v346h381v-346h-381z" />
<glyph unicode="&#xb8;" horiz-adv-x="466" d="M-12 -317q59 -16 118 -17q68 0 103 18.5t35 53.5q0 57 -76 57h-152l58 205h248l-27 -76q100 0 160.5 -55t60.5 -141q0 -102 -89 -161t-259 -59q-39 0 -98.5 5.5t-81.5 11.5v158z" />
<glyph unicode="&#xb9;" horiz-adv-x="475" d="M31 989v262l454 88v-581h-358v252z" />
<glyph unicode="&#xba;" horiz-adv-x="739" d="M31 1059q0 281 338 280q340 0 340 -280q0 -281 -340 -281q-338 0 -338 281zM311 1059q0 -47 13.5 -65.5t44.5 -18.5q30 0 44.5 19.5t14.5 64.5t-14.5 64.5t-44.5 19.5q-31 0 -44.5 -18.5t-13.5 -65.5z" />
<glyph unicode="&#xbb;" horiz-adv-x="1470" d="M31 344l319 236l-319 235l184 268l569 -419v-168l-569 -420zM686 344l320 236l-320 235l184 268l570 -419v-168l-570 -420z" />
<glyph unicode="&#xbc;" horiz-adv-x="1460" d="M31 989v262l454 88v-581h-358v252zM145 0l684 1319h467l-684 -1319h-467zM799 70v198l250 314h321v-297h60v-215h-60v-70h-332v70h-239zM1061 266h80v99z" />
<glyph unicode="&#xbd;" horiz-adv-x="1527" d="M31 989v262l454 88v-581h-358v252zM145 0l684 1319h467l-684 -1319h-467zM915 0v125q29 33 54.5 53.5t70.5 50.5q53 35 66.5 50.5t13.5 35.5t-16.5 27.5t-48.5 7.5q-27 0 -65 -11t-68 -28v224q49 18 128.5 32.5t157.5 14.5q135 0 210 -49.5t75 -133.5q0 -47 -15.5 -77.5 t-47.5 -59.5l-56 -45h123v-217h-582z" />
<glyph unicode="&#xbe;" horiz-adv-x="1513" d="M31 776v174q39 -18 85 -27.5t85 -9.5t57 7.5t18 23.5q0 14 -12 19.5t-41 5.5h-104l10 145h90q29 0 38 4t9 19q0 27 -71 26q-41 0 -84 -9t-72 -26v175q37 14 118 25t142 11q156 0 234.5 -50t78.5 -128q0 -72 -45 -121q55 -33 56 -112q0 -186 -324 -187q-49 0 -141 10.5 t-127 24.5zM199 0l684 1319h467l-684 -1319h-467zM852 70v198l250 314h321v-297h60v-215h-60v-70h-331v70h-240zM1114 266h80v99z" />
<glyph unicode="&#xbf;" horiz-adv-x="1044" d="M215 184q0 111 35 184.5t129 151.5l63 47q59 45 85 72t26 61v17h451v-31q0 -92 -29 -143t-119 -127l-37 -33q-57 -47 -77.5 -73.5t-20.5 -65.5q0 -53 43 -79t133 -26q82 0 164 23.5t137 58.5v-342q-86 -45 -203.5 -69.5t-242.5 -24.5q-256 0 -396.5 104.5t-140.5 294.5z M522 782v342h512v-342h-512z" />
<glyph unicode="&#xc0;" horiz-adv-x="1591" d="M31 0l508 1319h514l508 -1319h-517l-94 246h-309l-94 -246h-516zM393 1872h381l197 -463h-363zM694 584h201l-100 252z" />
<glyph unicode="&#xc1;" horiz-adv-x="1591" d="M31 0l508 1319h514l508 -1319h-517l-94 246h-309l-94 -246h-516zM606 1409l197 463h381l-215 -463h-363zM694 584h201l-100 252z" />
<glyph unicode="&#xc2;" horiz-adv-x="1591" d="M31 0l508 1319h514l508 -1319h-517l-94 246h-309l-94 -246h-516zM293 1409l358 442h289l358 -442h-344l-157 219l-150 -219h-354zM694 584h201l-100 252z" />
<glyph unicode="&#xc3;" horiz-adv-x="1591" d="M31 0l508 1319h514l508 -1319h-517l-94 246h-309l-94 -246h-516zM385 1425v289q33 29 90 50.5t119 21.5q51 0 97 -11.5t114 -33.5q66 -23 109.5 -34t91.5 -11q68 0 121 23.5t79 60.5v-289q-20 -29 -76.5 -50.5t-117.5 -21.5q-49 0 -98.5 11.5t-125.5 35.5 q-61 20 -104 31.5t-84 11.5q-131 0 -215 -84zM694 584h201l-100 252z" />
<glyph unicode="&#xc4;" horiz-adv-x="1591" d="M31 0l508 1319h514l508 -1319h-517l-94 246h-309l-94 -246h-516zM395 1468v289h320v-289h-320zM694 584h201l-100 252zM877 1468v289h319v-289h-319z" />
<glyph unicode="&#xc5;" horiz-adv-x="1591" d="M31 0l508 1317q-57 72 -58 180q0 129 82 212t232 83t232.5 -83t82.5 -212q0 -109 -57 -180l508 -1317h-517l-94 246h-309l-94 -246h-516zM684 1497q0 -45 28.5 -74.5t82.5 -29.5q53 0 81.5 29.5t28.5 74.5t-28.5 75t-81.5 30q-54 0 -82.5 -30t-28.5 -75zM694 584h201 l-100 252z" />
<glyph unicode="&#xc6;" horiz-adv-x="1789" d="M31 0l508 1319h1220v-356h-456v-119h378v-369h-378v-119h456v-356h-932v246h-186l-94 -246h-516zM694 584h133v379h-12z" />
<glyph unicode="&#xc7;" horiz-adv-x="1265" d="M31 659q0 336 197.5 508t586.5 172q121 0 218 -17t198 -54v-432q-186 86 -383 86q-154 0 -232.5 -59.5t-78.5 -203.5q0 -141 80.5 -201.5t234.5 -60.5q197 0 383 86v-432q-164 -59 -326 -69l-20 -58q100 0 160.5 -55t60.5 -141q0 -102 -89 -161t-259 -59q-39 0 -98.5 5.5 t-81.5 11.5v158q59 -16 118 -17q68 0 103 18.5t35 53.5q0 57 -76 57h-152l54 193q-313 33 -473 201.5t-160 469.5z" />
<glyph unicode="&#xc8;" horiz-adv-x="1136" d="M72 0v1319h1054v-356h-559v-119h482v-369h-482v-119h559v-356h-1054zM240 1872h381l196 -463h-362z" />
<glyph unicode="&#xc9;" horiz-adv-x="1136" d="M72 0v1319h1054v-356h-559v-119h482v-369h-482v-119h559v-356h-1054zM365 1409l196 463h381l-215 -463h-362z" />
<glyph unicode="&#xca;" horiz-adv-x="1136" d="M72 0v1319h1054v-356h-559v-119h482v-369h-482v-119h559v-356h-1054zM98 1409l359 442h288l359 -442h-344l-158 219l-149 -219h-355z" />
<glyph unicode="&#xcb;" horiz-adv-x="1136" d="M72 0v1319h1054v-356h-559v-119h482v-369h-482v-119h559v-356h-1054zM207 1470v289h319v-289h-319zM688 1470v289h320v-289h-320z" />
<glyph unicode="&#xcc;" horiz-adv-x="638" d="M-80 1872h381l197 -463h-363zM72 0v1319h495v-1319h-495z" />
<glyph unicode="&#xcd;" horiz-adv-x="638" d="M72 0v1319h495v-1319h-495zM129 1409l197 463h381l-215 -463h-363z" />
<glyph unicode="&#xce;" horiz-adv-x="638" d="M-182 1409l358 442h289l358 -442h-344l-157 219l-150 -219h-354zM72 0v1319h495v-1319h-495z" />
<glyph unicode="&#xcf;" horiz-adv-x="638" d="M-80 1491v289h320v-289h-320zM72 0v1319h495v-1319h-495zM401 1491v289h320v-289h-320z" />
<glyph unicode="&#xd0;" horiz-adv-x="1503" d="M-10 487v316h172v516h626q685 0 685 -668q0 -334 -177.5 -492.5t-507.5 -158.5h-626v487h-172zM657 377h74q121 0 179.5 56t58.5 218q0 111 -25.5 168.5t-76 75.5t-136.5 18h-74v-110h125v-316h-125v-110z" />
<glyph unicode="&#xd1;" horiz-adv-x="1423" d="M72 0v1319h415l369 -516v516h496v-1319h-418l-367 516v-516h-495zM313 1425v289q33 29 90.5 50.5t118.5 21.5q51 0 97.5 -11.5t113.5 -33.5q66 -23 110 -34t91 -11q68 0 121 23.5t80 60.5v-289q-20 -29 -77 -50.5t-118 -21.5q-49 0 -98 11.5t-125 35.5 q-61 20 -104.5 31.5t-84.5 11.5q-131 0 -215 -84z" />
<glyph unicode="&#xd2;" horiz-adv-x="1474" d="M31 659q0 360 179 520t527 160t527.5 -159.5t179.5 -520.5q0 -360 -179.5 -519.5t-527.5 -159.5t-527 159.5t-179 519.5zM352 1872h381l197 -463h-363zM537 659q0 -143 46 -201.5t154 -58.5q109 0 155 58.5t46 201.5t-46 202t-155 59t-154.5 -58.5t-45.5 -202.5z" />
<glyph unicode="&#xd3;" horiz-adv-x="1474" d="M31 659q0 360 179 520t527 160t527.5 -159.5t179.5 -520.5q0 -360 -179.5 -519.5t-527.5 -159.5t-527 159.5t-179 519.5zM516 1409l197 463h381l-215 -463h-363zM537 659q0 -143 46 -201.5t154 -58.5q109 0 155 58.5t46 201.5t-46 202t-155 59t-154.5 -58.5t-45.5 -202.5 z" />
<glyph unicode="&#xd4;" horiz-adv-x="1474" d="M31 659q0 360 179 520t527 160t527.5 -159.5t179.5 -520.5q0 -360 -179.5 -519.5t-527.5 -159.5t-527 159.5t-179 519.5zM236 1409l358 442h289l358 -442h-344l-158 219l-149 -219h-354zM537 659q0 -143 46 -201.5t154 -58.5q109 0 155 58.5t46 201.5t-46 202t-155 59 t-154.5 -58.5t-45.5 -202.5z" />
<glyph unicode="&#xd5;" horiz-adv-x="1474" d="M31 659q0 360 179 520t527 160t527.5 -159.5t179.5 -520.5q0 -360 -179.5 -519.5t-527.5 -159.5t-527 159.5t-179 519.5zM328 1466v289q33 29 90 50.5t119 21.5q51 0 97 -11.5t114 -33.5q66 -23 109.5 -34t90.5 -11q68 0 121 23.5t80 60.5v-289q-20 -29 -76.5 -50.5 t-118.5 -21.5q-49 0 -98 11.5t-125 35.5q-61 20 -104 31.5t-84 11.5q-131 0 -215 -84zM537 659q0 -143 46 -201.5t154 -58.5q109 0 155 58.5t46 201.5t-46 202t-155 59t-154.5 -58.5t-45.5 -202.5z" />
<glyph unicode="&#xd6;" horiz-adv-x="1474" d="M31 659q0 360 179 520t527 160t527.5 -159.5t179.5 -520.5q0 -360 -179.5 -519.5t-527.5 -159.5t-527 159.5t-179 519.5zM338 1470v289h319v-289h-319zM537 659q0 -143 46 -201.5t154 -58.5q109 0 155 58.5t46 201.5t-46 202t-155 59t-154.5 -58.5t-45.5 -202.5z M819 1470v289h320v-289h-320z" />
<glyph unicode="&#xd7;" horiz-adv-x="899" d="M31 702l237 238l178 -186l187 182l235 -236l-184 -184l184 -184l-233 -234l-182 185l-179 -177l-237 236l178 176z" />
<glyph unicode="&#xd8;" horiz-adv-x="1474" d="M31 659q0 360 179 520t527 160q106 0 191 -14l39 94h157l-53 -129q184 -63 278.5 -216.5t94.5 -414.5q0 -360 -179.5 -519.5t-527.5 -159.5q-111 0 -194 14l-41 -103h-158l55 138q-182 63 -275 216.5t-93 413.5zM526 659q0 -150 45 -208l195 479q-8 2 -29 2 q-115 0 -163 -61.5t-48 -211.5zM702 387h35q115 0 163 61.5t48 210.5q0 147 -49 211z" />
<glyph unicode="&#xd9;" horiz-adv-x="1441" d="M61 520v799h496v-735q0 -184 164 -185q164 0 164 185v735h495v-799q0 -172 -86 -294t-235.5 -184t-337.5 -62q-189 0 -338.5 62t-235.5 184t-86 294zM326 1872h381l196 -463h-362z" />
<glyph unicode="&#xda;" horiz-adv-x="1441" d="M61 520v799h496v-735q0 -184 164 -185q164 0 164 185v735h495v-799q0 -172 -86 -294t-235.5 -184t-337.5 -62q-189 0 -338.5 62t-235.5 184t-86 294zM541 1409l196 463h381l-215 -463h-362z" />
<glyph unicode="&#xdb;" horiz-adv-x="1441" d="M61 520v799h496v-735q0 -184 164 -185q164 0 164 185v735h495v-799q0 -172 -86 -294t-235.5 -184t-337.5 -62q-189 0 -338.5 62t-235.5 184t-86 294zM219 1409l359 442h288l359 -442h-344l-158 219l-150 -219h-354z" />
<glyph unicode="&#xdc;" horiz-adv-x="1441" d="M61 520v799h496v-735q0 -184 164 -185q164 0 164 185v735h495v-799q0 -172 -86 -294t-235.5 -184t-337.5 -62q-189 0 -338.5 62t-235.5 184t-86 294zM322 1470v289h319v-289h-319zM803 1470v289h319v-289h-319z" />
<glyph unicode="&#xdd;" horiz-adv-x="1511" d="M31 1319h516l209 -420l209 420h516l-477 -840v-479h-496v479zM573 1409l197 463h381l-215 -463h-363z" />
<glyph unicode="&#xde;" horiz-adv-x="1302" d="M72 0v1319h495v-148h246q164 0 275.5 -68.5t168 -185t56.5 -260.5q0 -143 -62.5 -259.5t-178.5 -183.5t-267 -67h-238v-147h-495zM567 535h121q59 0 90 32.5t31 89.5q0 127 -113 127h-129v-249z" />
<glyph unicode="&#xdf;" horiz-adv-x="1345" d="M61 0v918q0 156 69 272.5t201 180t314 63.5q201 0 342 -70t212 -181.5t71 -236.5q0 -94 -33 -164.5t-90 -113.5q84 -41 126 -100.5t42 -168.5q0 -125 -55.5 -219t-160 -147t-247.5 -53q-78 0 -150.5 12t-113.5 33v315q20 -8 58 -13t67 -5q96 0 96 102q0 82 -109 82h-110 v307h86q133 0 133 107q0 45 -35 70.5t-104 25.5q-76 0 -110 -38t-34 -97v-881h-465z" />
<glyph unicode="&#xe0;" horiz-adv-x="1202" d="M31 303q0 332 422 332h217v10q0 25 -45 41t-129 16q-80 0 -171.5 -13t-170.5 -38v267q78 33 201.5 53t238.5 20q252 0 399.5 -103.5t147.5 -307.5v-580h-434l-21 70q-111 -90 -313 -90q-152 0 -247 79.5t-95 243.5zM229 1532h381l197 -463h-363zM487 317q0 -68 72 -67 q66 0 111 45v90h-90q-49 0 -71 -15.5t-22 -52.5z" />
<glyph unicode="&#xe1;" horiz-adv-x="1202" d="M31 303q0 332 422 332h217v10q0 25 -45 41t-129 16q-80 0 -171.5 -13t-170.5 -38v267q78 33 201.5 53t238.5 20q252 0 399.5 -103.5t147.5 -307.5v-580h-434l-21 70q-111 -90 -313 -90q-152 0 -247 79.5t-95 243.5zM424 1069l197 463h380l-215 -463h-362zM487 317 q0 -68 72 -67q66 0 111 45v90h-90q-49 0 -71 -15.5t-22 -52.5z" />
<glyph unicode="&#xe2;" horiz-adv-x="1202" d="M31 303q0 332 422 332h217v10q0 25 -45 41t-129 16q-80 0 -171.5 -13t-170.5 -38v267q78 33 201.5 53t238.5 20q252 0 399.5 -103.5t147.5 -307.5v-580h-434l-21 70q-111 -90 -313 -90q-152 0 -247 79.5t-95 243.5zM119 1069l358 442h289l358 -442h-344l-157 219 l-150 -219h-354zM487 317q0 -68 72 -67q66 0 111 45v90h-90q-49 0 -71 -15.5t-22 -52.5z" />
<glyph unicode="&#xe3;" horiz-adv-x="1202" d="M31 303q0 332 422 332h217v10q0 25 -45 41t-129 16q-80 0 -171.5 -13t-170.5 -38v267q78 33 201.5 53t238.5 20q252 0 399.5 -103.5t147.5 -307.5v-580h-434l-21 70q-111 -90 -313 -90q-152 0 -247 79.5t-95 243.5zM240 1085v289q33 29 90 50.5t119 21.5q51 0 97 -11.5 t113 -33.5q66 -23 110 -34t91 -11q68 0 121 23.5t80 60.5v-289q-20 -29 -76.5 -50.5t-118.5 -21.5q-49 0 -98 11.5t-125 35.5q-61 20 -104 31.5t-84 11.5q-131 0 -215 -84zM487 317q0 -68 72 -67q66 0 111 45v90h-90q-49 0 -71 -15.5t-22 -52.5z" />
<glyph unicode="&#xe4;" horiz-adv-x="1202" d="M31 303q0 332 422 332h217v10q0 25 -45 41t-129 16q-80 0 -171.5 -13t-170.5 -38v267q78 33 201.5 53t238.5 20q252 0 399.5 -103.5t147.5 -307.5v-580h-434l-21 70q-111 -90 -313 -90q-152 0 -247 79.5t-95 243.5zM248 1130v289h319v-289h-319zM487 317q0 -68 72 -67 q66 0 111 45v90h-90q-49 0 -71 -15.5t-22 -52.5zM729 1130v289h320v-289h-320z" />
<glyph unicode="&#xe5;" horiz-adv-x="1202" d="M31 303q0 332 422 332h217v10q0 25 -45 41t-129 16q-80 0 -171.5 -13t-170.5 -38v267q78 33 201.5 53t238.5 20q252 0 399.5 -103.5t147.5 -307.5v-580h-434l-21 70q-111 -90 -313 -90q-152 0 -247 79.5t-95 243.5zM340 1362q0 129 82 212t231 83q150 0 233 -83t83 -212 t-83 -211t-233 -82q-147 0 -230 83t-83 210zM487 317q0 -68 72 -67q66 0 111 45v90h-90q-49 0 -71 -15.5t-22 -52.5zM543 1362q0 -45 28.5 -75t81.5 -30q54 0 82.5 30t28.5 75t-28.5 74.5t-82.5 29.5q-53 0 -81.5 -29.5t-28.5 -74.5z" />
<glyph unicode="&#xe6;" horiz-adv-x="1820" d="M31 303q0 332 422 332h217v10q0 25 -45 41t-129 16q-80 0 -171.5 -13t-170.5 -38v267q78 33 201.5 53t238.5 20q92 0 178 -25.5t143 -70.5q59 43 146.5 69.5t179.5 26.5q252 0 400.5 -124t148.5 -349v-166h-647q66 -82 284 -82q86 0 173.5 14.5t140.5 34.5v-266 q-154 -74 -434 -73q-111 0 -221.5 39.5t-170.5 107.5q-86 -72 -190 -109.5t-272 -37.5q-185 0 -303.5 80.5t-118.5 242.5zM487 317q0 -68 72 -67q74 0 111 45v90h-90q-49 0 -71 -15.5t-22 -52.5zM1143 600h223v18q0 35 -25.5 57.5t-83.5 22.5q-59 0 -86.5 -26.5t-27.5 -71.5 z" />
<glyph unicode="&#xe7;" horiz-adv-x="1064" d="M31 485q0 252 162.5 379t441.5 127q121 0 216 -16.5t179 -54.5v-345q-125 61 -285 62q-109 0 -158.5 -35t-49.5 -117t52 -116.5t161 -34.5q139 0 284 78v-361q-129 -57 -293 -67l-20 -60q100 0 160.5 -55t60.5 -141q0 -102 -89 -161t-259 -59q-39 0 -98.5 5.5t-81.5 11.5 v158q59 -16 118 -17q68 0 103 18.5t35 53.5q0 57 -76 57h-152l54 195q-217 29 -341 153.5t-124 341.5z" />
<glyph unicode="&#xe8;" horiz-adv-x="1161" d="M31 481q0 238 141 374t410 136q252 0 400 -124t148 -349v-166h-647q66 -82 285 -82q86 0 173 14.5t140 34.5v-266q-154 -74 -446 -73q-174 0 -311.5 58t-215 171t-77.5 272zM195 1532h380l197 -463h-362zM483 600h224v18q0 35 -26 57.5t-83 22.5q-59 0 -87 -26.5 t-28 -71.5z" />
<glyph unicode="&#xe9;" horiz-adv-x="1161" d="M31 481q0 238 141 374t410 136q252 0 400 -124t148 -349v-166h-647q66 -82 285 -82q86 0 173 14.5t140 34.5v-266q-154 -74 -446 -73q-174 0 -311.5 58t-215 171t-77.5 272zM422 1069l196 463h381l-215 -463h-362zM483 600h224v18q0 35 -26 57.5t-83 22.5 q-59 0 -87 -26.5t-28 -71.5z" />
<glyph unicode="&#xea;" horiz-adv-x="1161" d="M31 481q0 238 141 374t410 136q252 0 400 -124t148 -349v-166h-647q66 -82 285 -82q86 0 173 14.5t140 34.5v-266q-154 -74 -446 -73q-174 0 -311.5 58t-215 171t-77.5 272zM88 1069l358 442h289l359 -442h-344l-158 219l-150 -219h-354zM483 600h224v18q0 35 -26 57.5 t-83 22.5q-59 0 -87 -26.5t-28 -71.5z" />
<glyph unicode="&#xeb;" horiz-adv-x="1161" d="M31 481q0 238 141 374t410 136q252 0 400 -124t148 -349v-166h-647q66 -82 285 -82q86 0 173 14.5t140 34.5v-266q-154 -74 -446 -73q-174 0 -311.5 58t-215 171t-77.5 272zM190 1130v289h320v-289h-320zM483 600h224v18q0 35 -26 57.5t-83 22.5q-59 0 -87 -26.5 t-28 -71.5zM672 1130v289h319v-289h-319z" />
<glyph unicode="&#xec;" horiz-adv-x="774" d="M47 1532h381l197 -463h-363zM72 614l41 357h589v-971h-495v614h-135z" />
<glyph unicode="&#xed;" horiz-adv-x="774" d="M72 614l41 357h589v-971h-495v614h-135zM240 1069l196 463h381l-215 -463h-362z" />
<glyph unicode="&#xee;" horiz-adv-x="774" d="M-84 1069l358 442h289l359 -442h-344l-158 219l-150 -219h-354zM72 614l41 357h589v-971h-495v614h-135z" />
<glyph unicode="&#xef;" horiz-adv-x="774" d="M4 1130v289h320v-289h-320zM72 614l41 357h589v-971h-495v614h-135zM485 1130v289h320v-289h-320z" />
<glyph unicode="&#xf0;" horiz-adv-x="1267" d="M31 420q0 211 124 315.5t353 104.5q61 0 130 -14.5t107 -37.5v27q0 84 -24 131l-180 -78v113l88 37q-53 16 -121 16q-80 0 -151.5 -17.5t-151.5 -51.5v311q160 63 389 63q272 0 434 -149l170 74v-113l-98 -43q53 -76 79.5 -172t26.5 -203v-203q0 -270 -147.5 -410 t-444.5 -140q-309 0 -446 112.5t-137 327.5zM471 420q0 -61 35 -91t104 -30q70 0 102.5 33t32.5 108v66q-78 37 -139 37q-74 0 -104.5 -31t-30.5 -92z" />
<glyph unicode="&#xf1;" horiz-adv-x="1282" d="M72 0v971h465l10 -56q57 31 149 53.5t193 22.5q172 0 252 -90t80 -276v-625h-496v561q0 66 -68 66q-23 0 -49 -12.5t-41 -28.5v-586h-495zM225 1085v289q33 29 90.5 50.5t118.5 21.5q51 0 97.5 -11.5t113.5 -33.5q66 -23 110 -34t91 -11q68 0 121 23.5t80 60.5v-289 q-20 -29 -77 -50.5t-118 -21.5q-49 0 -98 11.5t-125 35.5q-61 20 -104.5 31.5t-84.5 11.5q-131 0 -215 -84z" />
<glyph unicode="&#xf2;" horiz-adv-x="1284" d="M31 485q0 506 610 506q612 0 612 -506t-612 -505q-610 -1 -610 505zM238 1532h380l197 -463h-362zM537 485q0 -84 25.5 -117.5t78.5 -33.5q55 0 81 33.5t26 117.5t-26 118t-81 34q-53 0 -78.5 -34t-25.5 -118z" />
<glyph unicode="&#xf3;" horiz-adv-x="1284" d="M31 485q0 506 610 506q612 0 612 -506t-612 -505q-610 -1 -610 505zM416 1069l196 463h381l-215 -463h-362zM537 485q0 -84 25.5 -117.5t78.5 -33.5q55 0 81 33.5t26 117.5t-26 118t-81 34q-53 0 -78.5 -34t-25.5 -118z" />
<glyph unicode="&#xf4;" horiz-adv-x="1284" d="M31 485q0 506 610 506q612 0 612 -506t-612 -505q-610 -1 -610 505zM139 1069l359 442h288l359 -442h-344l-158 219l-149 -219h-355zM537 485q0 -84 25.5 -117.5t78.5 -33.5q55 0 81 33.5t26 117.5t-26 118t-81 34q-53 0 -78.5 -34t-25.5 -118z" />
<glyph unicode="&#xf5;" horiz-adv-x="1284" d="M31 485q0 506 610 506q612 0 612 -506t-612 -505q-610 -1 -610 505zM231 1126v289q33 29 90.5 50.5t118.5 21.5q51 0 97.5 -11.5t113.5 -33.5q66 -23 110 -34t91 -11q68 0 121 23.5t80 60.5v-289q-20 -29 -76.5 -50.5t-118.5 -21.5q-49 0 -98 11.5t-125 35.5 q-61 20 -104.5 31.5t-84.5 11.5q-131 0 -215 -84zM537 485q0 -84 25.5 -117.5t78.5 -33.5q55 0 81 33.5t26 117.5t-26 118t-81 34q-53 0 -78.5 -34t-25.5 -118z" />
<glyph unicode="&#xf6;" horiz-adv-x="1284" d="M31 485q0 506 610 506q612 0 612 -506t-612 -505q-610 -1 -610 505zM242 1130v289h319v-289h-319zM537 485q0 -84 25.5 -117.5t78.5 -33.5q55 0 81 33.5t26 117.5t-26 118t-81 34q-53 0 -78.5 -34t-25.5 -118zM723 1130v289h319v-289h-319z" />
<glyph unicode="&#xf7;" horiz-adv-x="888" d="M31 420v377h827v-377h-827zM289 59v287h309v-287h-309zM289 872v287h309v-287h-309z" />
<glyph unicode="&#xf8;" horiz-adv-x="1284" d="M31 485q0 506 610 506q66 0 125 -6l39 96h158l-52 -123q342 -94 342 -473q0 -506 -612 -505q-66 0 -125 6l-39 -97h-158l50 123q-338 94 -338 473zM494 485q0 -78 20 -118l127 311q-72 0 -109.5 -44t-37.5 -149zM641 293q72 0 111 44t39 148q0 72 -23 121z" />
<glyph unicode="&#xf9;" horiz-adv-x="1282" d="M61 356v615h496v-561q0 -66 68 -66q23 0 49 12.5t41 28.5v586h495v-971h-465l-10 55q-57 -35 -140 -55t-177 -20q-166 0 -261.5 97t-95.5 279zM285 1532h381l196 -463h-362z" />
<glyph unicode="&#xfa;" horiz-adv-x="1282" d="M61 356v615h496v-561q0 -66 68 -66q23 0 49 12.5t41 28.5v586h495v-971h-465l-10 55q-57 -35 -140 -55t-177 -20q-166 0 -261.5 97t-95.5 279zM408 1069l196 463h381l-215 -463h-362z" />
<glyph unicode="&#xfb;" horiz-adv-x="1282" d="M61 356v615h496v-561q0 -66 68 -66q23 0 49 12.5t41 28.5v586h495v-971h-465l-10 55q-57 -35 -140 -55t-177 -20q-166 0 -261.5 97t-95.5 279zM131 1069l358 442h289l359 -442h-344l-158 219l-150 -219h-354z" />
<glyph unicode="&#xfc;" horiz-adv-x="1282" d="M61 356v615h496v-561q0 -66 68 -66q23 0 49 12.5t41 28.5v586h495v-971h-465l-10 55q-57 -35 -140 -55t-177 -20q-166 0 -261.5 97t-95.5 279zM240 1130v289h319v-289h-319zM721 1130v289h319v-289h-319z" />
<glyph unicode="&#xfd;" horiz-adv-x="1386" d="M31 971h518l170 -484l162 484h516l-334 -854q-92 -233 -235.5 -355t-358.5 -122q-98 0 -161.5 10t-127.5 37v315q59 -20 123 -20q66 0 106 10t66 39zM532 1069l197 463h381l-215 -463h-363z" />
<glyph unicode="&#xfe;" horiz-adv-x="1286" d="M72 -442v1876h495v-480q37 14 105.5 25.5t124.5 11.5q223 0 340.5 -126t117.5 -382q0 -254 -123.5 -378.5t-353.5 -124.5q-53 0 -112.5 10t-98.5 26v-458h-495zM567 365q20 -16 40 -23.5t46 -7.5q47 0 72 37t25 121q0 82 -24 113.5t-73 31.5q-27 0 -46 -7t-40 -24v-241z " />
<glyph unicode="&#xff;" horiz-adv-x="1386" d="M31 971h518l170 -484l162 484h516l-334 -854q-92 -233 -235.5 -355t-358.5 -122q-98 0 -161.5 10t-127.5 37v315q59 -20 123 -20q66 0 106 10t66 39zM319 1188v289h320v-289h-320zM801 1188v289h319v-289h-319z" />
<glyph unicode="&#x100;" horiz-adv-x="1591" d="M31 0l508 1319h514l508 -1319h-517l-94 246h-309l-94 -246h-516zM438 1430v286h715v-286h-715zM694 584h201l-100 252z" />
<glyph unicode="&#x101;" horiz-adv-x="1202" d="M31 303q0 332 422 332h217v10q0 25 -45 41t-129 16q-80 0 -171.5 -13t-170.5 -38v267q78 33 201.5 53t238.5 20q252 0 399.5 -103.5t147.5 -307.5v-580h-434l-21 70q-111 -90 -313 -90q-152 0 -247 79.5t-95 243.5zM305 1090v286h715v-286h-715zM487 317q0 -68 72 -67 q66 0 111 45v90h-90q-49 0 -71 -15.5t-22 -52.5z" />
<glyph unicode="&#x102;" horiz-adv-x="1591" d="M31 0l508 1319h514l508 -1319h-517l-94 246h-309l-94 -246h-516zM344 1860h318q0 -78 30.5 -129.5t102.5 -51.5t103.5 51.5t31.5 129.5h317q0 -217 -121.5 -334t-330.5 -117t-330 118t-121 333zM694 584h201l-100 252z" />
<glyph unicode="&#x103;" horiz-adv-x="1202" d="M31 303q0 332 422 332h217v10q0 25 -45 41t-129 16q-80 0 -171.5 -13t-170.5 -38v267q78 33 201.5 53t238.5 20q252 0 399.5 -103.5t147.5 -307.5v-580h-434l-21 70q-111 -90 -313 -90q-152 0 -247 79.5t-95 243.5zM190 1520h318q0 -78 30.5 -129.5t102.5 -51.5 t103.5 51.5t31.5 129.5h318q0 -217 -122 -334t-331 -117t-330 118t-121 333zM487 317q0 -68 72 -67q66 0 111 45v90h-90q-49 0 -71 -15.5t-22 -52.5z" />
<glyph unicode="&#x104;" horiz-adv-x="1591" d="M31 0l508 1319h514l508 -1319h-117q-100 -76 -101 -156q0 -37 24 -50t73 -13q27 0 56.5 6t47.5 16v-217q-41 -14 -108.5 -25.5t-137.5 -11.5q-143 0 -223 52.5t-80 160.5q0 76 43 137.5t111 100.5h-105l-94 246h-309l-94 -246h-516zM694 584h201l-100 252z" />
<glyph unicode="&#x105;" horiz-adv-x="1202" d="M31 303q0 332 422 332h217v10q0 25 -45 41t-129 16q-80 0 -171.5 -13t-170.5 -38v267q78 33 201.5 53t238.5 20q252 0 399.5 -103.5t147.5 -307.5v-580h-140q-100 -76 -100 -156q0 -37 23.5 -50t72.5 -13q27 0 56.5 6t48.5 16v-217q-41 -14 -108.5 -25.5t-137.5 -11.5 q-143 0 -223 52.5t-80 160.5q0 76 43 137.5t111 100.5l-21 70q-111 -90 -313 -90q-152 0 -247 79.5t-95 243.5zM487 317q0 -68 72 -67q66 0 111 45v90h-90q-49 0 -71 -15.5t-22 -52.5z" />
<glyph unicode="&#x106;" horiz-adv-x="1265" d="M31 659q0 336 197.5 508t586.5 172q121 0 218 -17t198 -54v-432q-186 86 -383 86q-154 0 -232.5 -59.5t-78.5 -203.5q0 -141 80.5 -201.5t234.5 -60.5q197 0 383 86v-432q-100 -37 -197.5 -54t-218.5 -17q-389 0 -588.5 172t-199.5 507zM592 1409l196 463h381l-215 -463 h-362z" />
<glyph unicode="&#x107;" horiz-adv-x="1064" d="M31 485q0 252 162.5 379t441.5 127q121 0 216 -16.5t179 -54.5v-345q-125 61 -285 62q-109 0 -158.5 -35t-49.5 -117t52 -116.5t161 -34.5q139 0 284 78v-361q-84 -39 -179 -55t-216 -16q-281 0 -444.5 126.5t-163.5 378.5zM416 1069l196 463h381l-215 -463h-362z" />
<glyph unicode="&#x108;" horiz-adv-x="1265" d="M31 659q0 336 197.5 508t586.5 172q121 0 218 -17t198 -54v-432q-186 86 -383 86q-154 0 -232.5 -59.5t-78.5 -203.5q0 -141 80.5 -201.5t234.5 -60.5q197 0 383 86v-432q-100 -37 -197.5 -54t-218.5 -17q-389 0 -588.5 172t-199.5 507zM207 1409l358 442h289l358 -442 h-344l-157 219l-150 -219h-354z" />
<glyph unicode="&#x109;" horiz-adv-x="1064" d="M31 485q0 252 162.5 379t441.5 127q121 0 216 -16.5t179 -54.5v-345q-125 61 -285 62q-109 0 -158.5 -35t-49.5 -117t52 -116.5t161 -34.5q139 0 284 78v-361q-84 -39 -179 -55t-216 -16q-281 0 -444.5 126.5t-163.5 378.5zM63 1069l359 442h289l358 -442h-344l-158 219 l-149 -219h-355z" />
<glyph unicode="&#x10a;" horiz-adv-x="1265" d="M31 659q0 336 197.5 508t586.5 172q121 0 218 -17t198 -54v-432q-186 86 -383 86q-154 0 -232.5 -59.5t-78.5 -203.5q0 -141 80.5 -201.5t234.5 -60.5q197 0 383 86v-432q-100 -37 -197.5 -54t-218.5 -17q-389 0 -588.5 172t-199.5 507zM590 1470v289h319v-289h-319z" />
<glyph unicode="&#x10b;" horiz-adv-x="1064" d="M31 485q0 252 162.5 379t441.5 127q121 0 216 -16.5t179 -54.5v-345q-125 61 -285 62q-109 0 -158.5 -35t-49.5 -117t52 -116.5t161 -34.5q139 0 284 78v-361q-84 -39 -179 -55t-216 -16q-281 0 -444.5 126.5t-163.5 378.5zM410 1130v289h319v-289h-319z" />
<glyph unicode="&#x10c;" horiz-adv-x="1265" d="M31 659q0 336 197.5 508t586.5 172q121 0 218 -17t198 -54v-432q-186 86 -383 86q-154 0 -232.5 -59.5t-78.5 -203.5q0 -141 80.5 -201.5t234.5 -60.5q197 0 383 86v-432q-100 -37 -197.5 -54t-218.5 -17q-389 0 -588.5 172t-199.5 507zM285 1851h354l149 -219l158 219 h344l-358 -442h-289z" />
<glyph unicode="&#x10d;" horiz-adv-x="1064" d="M31 485q0 252 162.5 379t441.5 127q121 0 216 -16.5t179 -54.5v-345q-125 61 -285 62q-109 0 -158.5 -35t-49.5 -117t52 -116.5t161 -34.5q139 0 284 78v-361q-84 -39 -179 -55t-216 -16q-281 0 -444.5 126.5t-163.5 378.5zM92 1511h354l150 -219l158 219h344l-359 -442 h-288z" />
<glyph unicode="&#x10e;" horiz-adv-x="1413" d="M72 0v1319h626q684 0 684 -668q0 -334 -177 -492.5t-507 -158.5h-626zM125 1851h354l150 -219l157 219h344l-358 -442h-289zM567 377h74q121 0 179.5 56t58.5 218q0 111 -26 168.5t-76 75.5t-136 18h-74v-536z" />
<glyph unicode="&#x10f;" horiz-adv-x="1765" d="M31 455q0 264 130 400t347 136q53 0 112.5 -10t98.5 -27v426h495v-1380h-430l-22 63q-57 -41 -123 -62t-150 -21q-458 0 -458 475zM537 459q0 -80 22.5 -102.5t73.5 -22.5q26 0 45.5 7t40.5 24v241q-20 16 -40 23.5t-46 7.5q-45 0 -70.5 -46t-25.5 -132zM1278 866 l215 504h403l-237 -504h-381z" />
<glyph unicode="&#x110;" horiz-adv-x="1482" d="M-31 487v316h172v516h627q684 0 684 -668q0 -334 -177 -492.5t-507 -158.5h-627v487h-172zM637 377h74q120 0 178.5 56t58.5 218q0 111 -25.5 168.5t-75.5 75.5t-136 18h-74v-110h125v-316h-125v-110z" />
<glyph unicode="&#x111;" horiz-adv-x="1292" d="M31 455q0 264 130 400t347 136q53 0 112.5 -10t98.5 -27v82h-230v277h230v67h495v-67h68v-277h-68v-1036h-430l-22 63q-57 -41 -123 -62t-150 -21q-459 0 -458 475zM537 459q0 -80 22.5 -102.5t73.5 -22.5q27 0 46 7t40 24v241q-20 16 -40 23.5t-46 7.5q-45 0 -70.5 -46 t-25.5 -132z" />
<glyph unicode="&#x112;" horiz-adv-x="1136" d="M72 0v1319h1054v-356h-559v-119h482v-369h-482v-119h559v-356h-1054zM211 1491v287h715v-287h-715z" />
<glyph unicode="&#x113;" horiz-adv-x="1161" d="M31 481q0 238 141 374t410 136q252 0 400 -124t148 -349v-166h-647q66 -82 285 -82q86 0 173 14.5t140 34.5v-266q-154 -74 -446 -73q-174 0 -311.5 58t-215 171t-77.5 272zM225 1151v287h715v-287h-715zM483 600h224v18q0 35 -26 57.5t-83 22.5q-59 0 -87 -26.5 t-28 -71.5z" />
<glyph unicode="&#x114;" horiz-adv-x="1136" d="M72 0v1319h1054v-356h-559v-119h482v-369h-482v-119h559v-356h-1054zM152 1860h317q0 -78 30.5 -129.5t102.5 -51.5t103.5 51.5t31.5 129.5h318q0 -217 -122 -334t-331 -117t-329.5 118t-120.5 333z" />
<glyph unicode="&#x115;" horiz-adv-x="1161" d="M31 481q0 238 141 374t410 136q252 0 400 -124t148 -349v-166h-647q66 -82 285 -82q86 0 173 14.5t140 34.5v-266q-154 -74 -446 -73q-174 0 -311.5 58t-215 171t-77.5 272zM145 1520h318q0 -78 30.5 -129.5t102.5 -51.5t103.5 51.5t31.5 129.5h318q0 -217 -122 -334 t-331 -117t-330 118t-121 333zM483 600h224v18q0 35 -26 57.5t-83 22.5q-59 0 -87 -26.5t-28 -71.5z" />
<glyph unicode="&#x116;" horiz-adv-x="1136" d="M72 0v1319h1054v-356h-559v-119h482v-369h-482v-119h559v-356h-1054zM428 1470v289h320v-289h-320z" />
<glyph unicode="&#x117;" horiz-adv-x="1161" d="M31 481q0 238 141 374t410 136q252 0 400 -124t148 -349v-166h-647q66 -82 285 -82q86 0 173 14.5t140 34.5v-266q-154 -74 -446 -73q-174 0 -311.5 58t-215 171t-77.5 272zM434 1130v289h320v-289h-320zM483 600h224v18q0 35 -26 57.5t-83 22.5q-59 0 -87 -26.5 t-28 -71.5z" />
<glyph unicode="&#x118;" horiz-adv-x="1136" d="M72 0v1319h1054v-356h-559v-119h482v-369h-482v-119h559v-356h-133q-100 -76 -100 -156q0 -37 23.5 -50t72.5 -13q27 0 56.5 6t48.5 16v-217q-41 -14 -108.5 -25.5t-137.5 -11.5q-143 0 -223 52.5t-80 160.5q0 76 43 137.5t110 100.5h-626z" />
<glyph unicode="&#x119;" horiz-adv-x="1161" d="M31 481q0 238 141 374t410 136q252 0 400 -124t148 -349v-166h-647q66 -82 285 -82q86 0 173 14.5t140 34.5v-266q-94 -45 -239 -63q-88 -70 -88 -146q0 -37 23.5 -50t72.5 -13q27 0 56.5 6t47.5 16v-217q-41 -14 -108.5 -25.5t-136.5 -11.5q-143 0 -223 52.5t-80 160.5 q0 68 35.5 126.5t93.5 97.5q-227 25 -365.5 152.5t-138.5 342.5zM483 600h224v18q0 35 -26 57.5t-83 22.5q-59 0 -87 -26.5t-28 -71.5z" />
<glyph unicode="&#x11a;" horiz-adv-x="1136" d="M72 0v1319h1054v-356h-559v-119h482v-369h-482v-119h559v-356h-1054zM104 1851h355l149 -219l158 219h344l-358 -442h-289z" />
<glyph unicode="&#x11b;" horiz-adv-x="1161" d="M31 481q0 238 141 374t410 136q252 0 400 -124t148 -349v-166h-647q66 -82 285 -82q86 0 173 14.5t140 34.5v-266q-154 -74 -446 -73q-174 0 -311.5 58t-215 171t-77.5 272zM100 1511h355l149 -219l158 219h344l-358 -442h-289zM483 600h224v18q0 35 -26 57.5t-83 22.5 q-59 0 -87 -26.5t-28 -71.5z" />
<glyph unicode="&#x11c;" horiz-adv-x="1357" d="M31 659q0 334 205.5 507t597.5 173q129 0 230 -14t193 -45v-422q-164 63 -391 64q-156 0 -242.5 -60.5t-86.5 -202.5q0 -143 63.5 -202.5t194.5 -59.5q66 0 123 15v80h-220v299h629v-682q-94 -57 -226 -93t-302 -36q-375 0 -571.5 172t-196.5 507zM252 1409l358 442h289 l358 -442h-344l-157 219l-150 -219h-354z" />
<glyph unicode="&#x11d;" horiz-adv-x="1200" d="M31 166q0 70 43 119t119 71q-84 43 -120 104.5t-36 162.5q0 186 136 277t394 91q51 0 123 -7t105 -13h395l-8 -293h-107q12 -33 12 -62q0 -156 -83.5 -237.5t-266.5 -81.5q-47 0 -104 4q-76 -4 -76 -37q0 -16 13.5 -21t39.5 -5h172q158 0 247 -69t89 -208 q0 -150 -144.5 -235.5t-445.5 -85.5q-127 0 -262 12t-200 37v282q76 -25 197.5 -38t234.5 -13q197 0 196 33q0 14 -20.5 18t-65.5 4h-233q-172 0 -258 46.5t-86 144.5zM115 1069l358 442h289l358 -442h-344l-158 219l-149 -219h-354zM471 643q0 -43 22.5 -61.5t77.5 -18.5 q56 0 78.5 18.5t22.5 61.5q0 45 -23.5 64.5t-77.5 19.5q-53 0 -76.5 -19.5t-23.5 -64.5z" />
<glyph unicode="&#x11e;" horiz-adv-x="1357" d="M31 659q0 334 205.5 507t597.5 173q129 0 230 -14t193 -45v-422q-164 63 -391 64q-156 0 -242.5 -60.5t-86.5 -202.5q0 -143 63.5 -202.5t194.5 -59.5q66 0 123 15v80h-220v299h629v-682q-94 -57 -226 -93t-302 -36q-375 0 -571.5 172t-196.5 507zM342 1860h317 q0 -78 31 -129.5t103 -51.5t103.5 51.5t31.5 129.5h317q0 -217 -122 -334t-330 -117q-209 0 -330 118t-121 333z" />
<glyph unicode="&#x11f;" horiz-adv-x="1200" d="M31 166q0 70 43 119t119 71q-84 43 -120 104.5t-36 162.5q0 186 136 277t394 91q51 0 123 -7t105 -13h395l-8 -293h-107q12 -33 12 -62q0 -156 -83.5 -237.5t-266.5 -81.5q-47 0 -104 4q-76 -4 -76 -37q0 -16 13.5 -21t39.5 -5h172q158 0 247 -69t89 -208 q0 -150 -144.5 -235.5t-445.5 -85.5q-127 0 -262 12t-200 37v282q76 -25 197.5 -38t234.5 -13q197 0 196 33q0 14 -20.5 18t-65.5 4h-233q-172 0 -258 46.5t-86 144.5zM166 1520h317q0 -78 31 -129.5t102 -51.5q72 0 104 51.5t32 129.5h317q0 -217 -122 -334t-331 -117 q-208 0 -329 118t-121 333zM471 643q0 -43 22.5 -61.5t77.5 -18.5q56 0 78.5 18.5t22.5 61.5q0 45 -23.5 64.5t-77.5 19.5q-53 0 -76.5 -19.5t-23.5 -64.5z" />
<glyph unicode="&#x120;" horiz-adv-x="1357" d="M31 659q0 334 205.5 507t597.5 173q129 0 230 -14t193 -45v-422q-164 63 -391 64q-156 0 -242.5 -60.5t-86.5 -202.5q0 -143 63.5 -202.5t194.5 -59.5q66 0 123 15v80h-220v299h629v-682q-94 -57 -226 -93t-302 -36q-375 0 -571.5 172t-196.5 507zM657 1470v289h320v-289 h-320z" />
<glyph unicode="&#x121;" horiz-adv-x="1200" d="M31 166q0 70 43 119t119 71q-84 43 -120 104.5t-36 162.5q0 186 136 277t394 91q51 0 123 -7t105 -13h395l-8 -293h-107q12 -33 12 -62q0 -156 -83.5 -237.5t-266.5 -81.5q-47 0 -104 4q-76 -4 -76 -37q0 -16 13.5 -21t39.5 -5h172q158 0 247 -69t89 -208 q0 -150 -144.5 -235.5t-445.5 -85.5q-127 0 -262 12t-200 37v282q76 -25 197.5 -38t234.5 -13q197 0 196 33q0 14 -20.5 18t-65.5 4h-233q-172 0 -258 46.5t-86 144.5zM436 1090v288h320v-288h-320zM471 643q0 -43 22.5 -61.5t77.5 -18.5q56 0 78.5 18.5t22.5 61.5 q0 45 -23.5 64.5t-77.5 19.5q-53 0 -76.5 -19.5t-23.5 -64.5z" />
<glyph unicode="&#x122;" horiz-adv-x="1357" d="M31 659q0 334 205.5 507t597.5 173q129 0 230 -14t193 -45v-422q-164 63 -391 64q-156 0 -242.5 -60.5t-86.5 -202.5q0 -143 63.5 -202.5t194.5 -59.5q66 0 123 15v80h-220v299h629v-682q-94 -57 -226 -93t-302 -36q-375 0 -571.5 172t-196.5 507zM565 -586l76 510h367 l-134 -510h-309z" />
<glyph unicode="&#x123;" horiz-adv-x="1200" d="M31 166q0 70 43 119t119 71q-84 43 -120 104.5t-36 162.5q0 186 136 277t394 91q51 0 123 -7t105 -13h395l-8 -293h-107q12 -33 12 -62q0 -156 -83.5 -237.5t-266.5 -81.5q-47 0 -104 4q-76 -4 -76 -37q0 -16 13.5 -21t39.5 -5h172q158 0 247 -69t89 -208 q0 -150 -144.5 -235.5t-445.5 -85.5q-127 0 -262 12t-200 37v282q76 -25 197.5 -38t234.5 -13q197 0 196 33q0 14 -20.5 18t-65.5 4h-233q-172 0 -258 46.5t-86 144.5zM401 1069l134 510h309l-76 -510h-367zM471 643q0 -43 22.5 -61.5t77.5 -18.5q56 0 78.5 18.5t22.5 61.5 q0 45 -23.5 64.5t-77.5 19.5q-53 0 -76.5 -19.5t-23.5 -64.5z" />
<glyph unicode="&#x124;" horiz-adv-x="1464" d="M72 0v1319h495v-430h330v430h496v-1319h-496v430h-330v-430h-495zM227 1409l359 442h288l359 -442h-344l-158 219l-149 -219h-355z" />
<glyph unicode="&#x125;" horiz-adv-x="1282" d="M72 0v1380h495v-446q43 25 113 41t141 16q205 0 302.5 -96t97.5 -297v-598h-496v557q0 70 -68 70q-23 0 -49 -12.5t-41 -28.5v-586h-495zM88 1458l358 443h289l359 -443h-344l-158 219l-150 -219h-354z" />
<glyph unicode="&#x126;" horiz-adv-x="1509" d="M31 983v236h63v100h496v-100h330v100h495v-100h64v-236h-64v-983h-495v430h-330v-430h-496v983h-63zM590 889h330v94h-330v-94z" />
<glyph unicode="&#x127;" horiz-adv-x="1302" d="M20 1065v201h72v114h496v-114h178v-201h-178v-131q43 25 112.5 41t141.5 16q205 0 302 -96t97 -297v-598h-496v557q0 70 -67 70q-23 0 -49.5 -12.5t-40.5 -28.5v-586h-496v1065h-72z" />
<glyph unicode="&#x128;" horiz-adv-x="638" d="M-90 1487v289q33 29 90 50t119 21q51 0 97 -11t114 -34q66 -23 109.5 -34t90.5 -11q68 0 121.5 23.5t79.5 60.5v-289q-20 -29 -76.5 -50t-117.5 -21q-50 0 -99 11t-125 36q-61 20 -104 31.5t-84 11.5q-131 0 -215 -84zM72 0v1319h495v-1319h-495z" />
<glyph unicode="&#x129;" horiz-adv-x="774" d="M-16 1143v289q33 29 90 50t119 21q51 0 97 -11t113 -34q66 -23 110 -34t91 -11q68 0 121 23.5t80 60.5v-289q-20 -29 -76.5 -50t-118.5 -21q-49 0 -98 11t-125 36q-61 20 -104 31.5t-84 11.5q-131 0 -215 -84zM72 614l41 357h589v-971h-495v614h-135z" />
<glyph unicode="&#x12a;" horiz-adv-x="638" d="M-37 1491v287h715v-287h-715zM72 0v1319h495v-1319h-495z" />
<glyph unicode="&#x12b;" horiz-adv-x="774" d="M43 1208v287h715v-287h-715zM72 614l41 357h589v-971h-495v614h-135z" />
<glyph unicode="&#x12c;" horiz-adv-x="638" d="M-131 1913h317q0 -78 31 -129t102 -51q72 0 104 51t32 129h317q0 -217 -122 -334t-331 -117q-208 0 -329 118t-121 333zM72 0v1319h495v-1319h-495z" />
<glyph unicode="&#x12d;" horiz-adv-x="774" d="M-41 1520h317q0 -78 31 -129.5t103 -51.5t103.5 51.5t31.5 129.5h317q0 -217 -122 -334t-330 -117q-209 0 -330 118t-121 333zM72 614l41 357h589v-971h-495v614h-135z" />
<glyph unicode="&#x12e;" horiz-adv-x="638" d="M18 -238q0 76 43 137.5t111 100.5h-100v1319h495v-1319h-100q-100 -76 -100 -156q0 -37 23.5 -50t72.5 -13q27 0 56.5 6t47.5 16v-217q-41 -14 -108.5 -25.5t-136.5 -11.5q-143 0 -223.5 52.5t-80.5 160.5z" />
<glyph unicode="&#x12f;" horiz-adv-x="774" d="M72 614l41 357h589v-971h-94q-100 -76 -100 -156q0 -37 23.5 -50t72.5 -13q27 0 56.5 6t48.5 16v-217q-41 -14 -109 -25.5t-137 -11.5q-143 0 -223 52.5t-80 160.5q0 76 43 137.5t110 100.5h-106v614h-135zM172 1051v342h530v-342h-530z" />
<glyph unicode="&#x130;" horiz-adv-x="638" d="M72 0v1319h495v-1319h-495zM160 1491v289h319v-289h-319z" />
<glyph unicode="&#x131;" horiz-adv-x="774" d="M72 614l41 357h589v-971h-495v614h-135z" />
<glyph unicode="&#x132;" horiz-adv-x="1576" d="M72 0v1319h495v-1319h-495zM621 27v411q98 -39 229 -39q92 0 131 37t39 127v756h496v-877q0 -229 -144.5 -345.5t-419.5 -116.5q-188 0 -331 47z" />
<glyph unicode="&#x133;" horiz-adv-x="1462" d="M72 614l41 357h589v-971h-495v614h-135zM172 1051v342h530v-342h-530zM676 -117q59 -20 123 -20q96 0 96 82v669h-135l41 357h590v-1059q0 -180 -101.5 -285.5t-312.5 -105.5q-172 0 -301 55v307zM860 1051v342h531v-342h-531z" />
<glyph unicode="&#x134;" horiz-adv-x="946" d="M-10 27v411q98 -39 229 -39q92 0 131 37t39 127v756h496v-877q0 -229 -144.5 -345.5t-418.5 -116.5q-189 0 -332 47zM145 1409l359 442h289l358 -442h-344l-158 219l-149 -219h-355z" />
<glyph unicode="&#x135;" horiz-adv-x="774" d="M-96 1069l358 442h289l358 -442h-344l-157 219l-150 -219h-354zM-10 -117q59 -20 123 -20q96 0 96 82v669h-135l41 357h590v-1059q0 -180 -101.5 -285.5t-312.5 -105.5q-172 0 -301 55v307z" />
<glyph unicode="&#x136;" horiz-adv-x="1486" d="M72 0v1319h495v-369l289 369h559l-450 -547l491 -772h-524l-270 459l-95 -115v-344h-495zM512 -586l76 510h366l-133 -510h-309z" />
<glyph unicode="&#x137;" horiz-adv-x="1353" d="M72 0v1380h495v-604l178 195h558l-383 -420l403 -551h-524l-187 293l-45 -51v-242h-495zM391 -586l76 510h367l-134 -510h-309z" />
<glyph unicode="&#x138;" horiz-adv-x="1353" d="M72 0v971h495v-215l178 215h558l-383 -441l403 -530h-524l-187 272l-45 -51v-221h-495z" />
<glyph unicode="&#x139;" horiz-adv-x="1095" d="M72 0v1319h495v-942h539v-377h-1034zM143 1409l197 463h381l-215 -463h-363z" />
<glyph unicode="&#x13a;" horiz-adv-x="751" d="M72 332v1048h495v-983q0 -39 15.5 -57t56.5 -18q57 0 102 18v-307q-70 -29 -127 -41t-153 -12q-211 0 -300 83.5t-89 268.5zM143 1548l197 463h381l-215 -463h-363z" />
<glyph unicode="&#x13b;" horiz-adv-x="1095" d="M72 0v1319h495v-942h539v-377h-1034zM414 -586l75 510h367l-133 -510h-309z" />
<glyph unicode="&#x13c;" horiz-adv-x="751" d="M72 332v1048h495v-983q0 -39 15.5 -57t56.5 -18q57 0 102 18v-307q-70 -29 -127 -41t-153 -12q-211 0 -300 83.5t-89 268.5zM195 -586l75 510h367l-133 -510h-309z" />
<glyph unicode="&#x13d;" horiz-adv-x="1095" d="M72 0v1319h495v-942h539v-377h-1034zM172 1409l76 510h366l-133 -510h-309z" />
<glyph unicode="&#x13e;" horiz-adv-x="751" d="M72 332v1048h495v-983q0 -39 15.5 -57t56.5 -18q57 0 102 18v-307q-70 -29 -127 -41t-153 -12q-211 0 -300 83.5t-89 268.5zM170 1436l76 510h366l-133 -510h-309z" />
<glyph unicode="&#x13f;" horiz-adv-x="1095" d="M72 0v1319h495v-942h539v-377h-1034zM666 635v289h319v-289h-319z" />
<glyph unicode="&#x140;" horiz-adv-x="841" d="M72 332v1048h495v-983q0 -39 15.5 -57t56.5 -18q57 0 102 18v-307q-70 -29 -127 -41t-153 -12q-211 0 -300 83.5t-89 268.5zM649 635v289h320v-289h-320z" />
<glyph unicode="&#x141;" horiz-adv-x="1179" d="M31 383v346l125 55v535h495v-318l142 62v-346l-142 -62v-278h539v-377h-1034v438z" />
<glyph unicode="&#x142;" horiz-adv-x="751" d="M-59 406v346l131 57v571h495v-354l135 59v-346l-135 -59v-283q0 -39 15.5 -57t56.5 -18q57 0 102 18v-307q-70 -29 -127 -41t-153 -12q-211 0 -300 83.5t-89 268.5v131z" />
<glyph unicode="&#x143;" horiz-adv-x="1423" d="M72 0v1319h415l369 -516v516h496v-1319h-418l-367 516v-516h-495zM463 1409l196 463h381l-215 -463h-362z" />
<glyph unicode="&#x144;" horiz-adv-x="1282" d="M72 0v971h465l10 -56q57 31 149 53.5t193 22.5q172 0 252 -90t80 -276v-625h-496v561q0 66 -68 66q-23 0 -49 -12.5t-41 -28.5v-586h-495zM375 1069l196 463h381l-215 -463h-362z" />
<glyph unicode="&#x145;" horiz-adv-x="1423" d="M72 0v1319h415l369 -516v516h496v-1319h-418l-367 516v-516h-495zM492 -586l75 510h367l-133 -510h-309z" />
<glyph unicode="&#x146;" horiz-adv-x="1282" d="M72 0v971h465l10 -56q57 31 149 53.5t193 22.5q172 0 252 -90t80 -276v-625h-496v561q0 66 -68 66q-23 0 -49 -12.5t-41 -28.5v-586h-495zM412 -586l75 510h367l-133 -510h-309z" />
<glyph unicode="&#x147;" horiz-adv-x="1423" d="M72 0v1319h415l369 -516v516h496v-1319h-418l-367 516v-516h-495zM197 1851h354l149 -219l158 219h344l-358 -442h-289z" />
<glyph unicode="&#x148;" horiz-adv-x="1282" d="M72 0v971h465l10 -56q57 31 149 53.5t193 22.5q172 0 252 -90t80 -276v-625h-496v561q0 66 -68 66q-23 0 -49 -12.5t-41 -28.5v-586h-495zM94 1511h355l149 -219l158 219h344l-359 -442h-288z" />
<glyph unicode="&#x149;" horiz-adv-x="1292" d="M-336 801l76 510h366l-133 -510h-309zM82 0v971h465l10 -56q57 31 149.5 53.5t192.5 22.5q172 0 252 -90t80 -276v-625h-496v561q0 66 -67 66q-23 0 -49.5 -12.5t-40.5 -28.5v-586h-496z" />
<glyph unicode="&#x14a;" horiz-adv-x="1423" d="M72 0v1319h415l369 -516v516h496v-1407q0 -180 -101.5 -285.5t-312.5 -105.5q-172 0 -301 55v307q59 -20 123 -20q96 0 96 82v164l-289 407v-516h-495z" />
<glyph unicode="&#x14b;" horiz-adv-x="1282" d="M72 0v971h465l10 -56q57 31 149 53.5t193 22.5q172 0 252 -90t80 -276v-713q0 -180 -101.5 -285.5t-312.5 -105.5q-172 0 -301 55v307q59 -20 123 -20q96 0 96 82v616q0 66 -68 66q-23 0 -49 -12.5t-41 -28.5v-586h-495z" />
<glyph unicode="&#x14c;" horiz-adv-x="1474" d="M31 659q0 360 179 520t527 160t527.5 -159.5t179.5 -520.5q0 -360 -179.5 -519.5t-527.5 -159.5t-527 159.5t-179 519.5zM367 1493v287h714v-287h-714zM537 659q0 -143 46 -201.5t154 -58.5q109 0 155 58.5t46 201.5t-46 202t-155 59t-154.5 -58.5t-45.5 -202.5z" />
<glyph unicode="&#x14d;" horiz-adv-x="1284" d="M31 485q0 506 610 506q612 0 612 -506t-612 -505q-610 -1 -610 505zM264 1151v287h715v-287h-715zM537 485q0 -84 25.5 -117.5t78.5 -33.5q55 0 81 33.5t26 117.5t-26 118t-81 34q-53 0 -78.5 -34t-25.5 -118z" />
<glyph unicode="&#x14e;" horiz-adv-x="1474" d="M31 659q0 360 179 520t527 160t527.5 -159.5t179.5 -520.5q0 -360 -179.5 -519.5t-527.5 -159.5t-527 159.5t-179 519.5zM287 1860h317q0 -78 31 -129.5t102 -51.5q72 0 103.5 51.5t31.5 129.5h318q0 -217 -122 -334t-331 -117t-329.5 118t-120.5 333zM537 659 q0 -143 46 -201.5t154 -58.5q109 0 155 58.5t46 201.5t-46 202t-155 59t-154.5 -58.5t-45.5 -202.5z" />
<glyph unicode="&#x14f;" horiz-adv-x="1284" d="M31 485q0 506 610 506q612 0 612 -506t-612 -505q-610 -1 -610 505zM190 1520h318q0 -78 30.5 -129.5t102.5 -51.5t103.5 51.5t31.5 129.5h318q0 -217 -122 -334t-331 -117t-330 118t-121 333zM537 485q0 -84 25.5 -117.5t78.5 -33.5q55 0 81 33.5t26 117.5t-26 118 t-81 34q-53 0 -78.5 -34t-25.5 -118z" />
<glyph unicode="&#x150;" horiz-adv-x="1474" d="M31 659q0 360 179 520t527 160t527.5 -159.5t179.5 -520.5q0 -360 -179.5 -519.5t-527.5 -159.5t-527 159.5t-179 519.5zM184 1409l195 416h422l-234 -416h-383zM537 659q0 -143 46 -201.5t154 -58.5q109 0 155 58.5t46 201.5t-46 202t-155 59t-154.5 -58.5t-45.5 -202.5 zM737 1409l195 416h422l-234 -416h-383z" />
<glyph unicode="&#x151;" horiz-adv-x="1284" d="M31 485q0 506 610 506q612 0 612 -506t-612 -505q-610 -1 -610 505zM115 1069l194 416h422l-233 -416h-383zM537 485q0 -84 25.5 -117.5t78.5 -33.5q55 0 81 33.5t26 117.5t-26 118t-81 34q-53 0 -78.5 -34t-25.5 -118zM668 1069l194 416h422l-233 -416h-383z" />
<glyph unicode="&#x152;" horiz-adv-x="2029" d="M31 659q0 360 179 520t527 160q131 0 234 -20h1028v-356h-559v-119h481v-369h-481v-119h559v-356h-1028q-102 -20 -234 -20q-348 0 -527 159.5t-179 519.5zM537 659q0 -143 46 -201.5t154 -58.5q109 0 155 58.5t46 201.5t-46 202t-155 59t-154.5 -58.5t-45.5 -202.5z" />
<glyph unicode="&#x153;" horiz-adv-x="1953" d="M31 485q0 506 610 506q250 0 395 -82q133 82 338 82q252 0 400.5 -124t148.5 -349v-166h-647q66 -82 285 -82q86 0 173 14.5t140 34.5v-266q-154 -74 -447 -73q-221 0 -376 90q-150 -90 -410 -90q-610 0 -610 505zM537 485q0 -84 25.5 -117.5t78.5 -33.5q55 0 81 33.5 t26 117.5t-26 118t-81 34q-53 0 -78.5 -34t-25.5 -118zM1276 600h223v18q0 35 -25.5 57.5t-82.5 22.5q-59 0 -87 -26.5t-28 -71.5z" />
<glyph unicode="&#x154;" horiz-adv-x="1343" d="M72 0v1319h741q244 0 372 -136t128 -358q0 -127 -64.5 -228t-169.5 -171q39 -27 56 -68l155 -358h-516l-129 293q-10 25 -22.5 34t-34.5 9h-21v-336h-495zM408 1409l196 463h381l-215 -463h-362zM567 723h121q121 0 121 102q0 55 -27.5 81t-85.5 26h-129v-209z" />
<glyph unicode="&#x155;" horiz-adv-x="878" d="M72 0v971h485l10 -56q57 31 144.5 53.5t177.5 22.5v-364q-82 0 -175 -11.5t-147 -29.5v-586h-495zM123 1069l196 463h381l-215 -463h-362z" />
<glyph unicode="&#x156;" horiz-adv-x="1343" d="M72 0v1319h741q244 0 372 -136t128 -358q0 -127 -64.5 -228t-169.5 -171q39 -27 56 -68l155 -358h-516l-129 293q-10 25 -22.5 34t-34.5 9h-21v-336h-495zM416 -586l76 510h366l-133 -510h-309zM567 723h121q121 0 121 102q0 55 -27.5 81t-85.5 26h-129v-209z" />
<glyph unicode="&#x157;" horiz-adv-x="878" d="M51 -586l76 510h367l-134 -510h-309zM72 0v971h485l10 -56q57 31 144.5 53.5t177.5 22.5v-364q-82 0 -175 -11.5t-147 -29.5v-586h-495z" />
<glyph unicode="&#x158;" horiz-adv-x="1343" d="M72 0v1319h741q244 0 372 -136t128 -358q0 -127 -64.5 -228t-169.5 -171q39 -27 56 -68l155 -358h-516l-129 293q-10 25 -22.5 34t-34.5 9h-21v-336h-495zM121 1851h354l150 -219l157 219h344l-358 -442h-289zM567 723h121q121 0 121 102q0 55 -27.5 81t-85.5 26h-129 v-209z" />
<glyph unicode="&#x159;" horiz-adv-x="878" d="M-154 1511h355l149 -219l158 219h344l-358 -442h-289zM72 0v971h485l10 -56q57 31 144.5 53.5t177.5 22.5v-364q-82 0 -175 -11.5t-147 -29.5v-586h-495z" />
<glyph unicode="&#x15a;" horiz-adv-x="1146" d="M31 928q0 209 144 310t435 101q96 0 223.5 -19.5t210.5 -43.5v-373q-195 80 -350 80q-158 0 -157 -51q0 -20 28.5 -33.5t114.5 -38.5l53 -14q158 -43 241 -105.5t112.5 -143.5t29.5 -202q0 -193 -150.5 -304t-437.5 -111q-141 0 -270 24.5t-215 67.5v370 q98 -47 218 -77.5t214 -30.5q61 0 96 15.5t35 43.5q0 25 -28.5 40.5t-106.5 41.5q-90 31 -102 35q-131 49 -203 102.5t-103.5 127t-31.5 188.5zM367 1409l196 463h381l-215 -463h-362z" />
<glyph unicode="&#x15b;" horiz-adv-x="1038" d="M31 674q0 317 524 317q98 0 218 -14t181 -35v-311q-66 27 -141.5 43t-132.5 16q-70 0 -106.5 -4t-36.5 -22q0 -10 22.5 -18.5t77.5 -22.5q53 -10 100 -25q106 -31 165 -68.5t82.5 -91t23.5 -135.5q0 -152 -133.5 -237.5t-385.5 -85.5q-137 0 -261 19t-189 50v313 q68 -37 174 -59t178 -22q61 0 86 3t25 19q0 12 -25.5 22.5t-77.5 22.5q-109 33 -116 35q-137 51 -194.5 113.5t-57.5 177.5zM289 1069l196 463h381l-215 -463h-362z" />
<glyph unicode="&#x15c;" horiz-adv-x="1146" d="M31 928q0 209 144 310t435 101q96 0 223.5 -19.5t210.5 -43.5v-373q-195 80 -350 80q-158 0 -157 -51q0 -20 28.5 -33.5t114.5 -38.5l53 -14q158 -43 241 -105.5t112.5 -143.5t29.5 -202q0 -193 -150.5 -304t-437.5 -111q-141 0 -270 24.5t-215 67.5v370 q98 -47 218 -77.5t214 -30.5q61 0 96 15.5t35 43.5q0 25 -28.5 40.5t-106.5 41.5q-90 31 -102 35q-131 49 -203 102.5t-103.5 127t-31.5 188.5zM133 1409l359 442h288l359 -442h-344l-158 219l-150 -219h-354z" />
<glyph unicode="&#x15d;" horiz-adv-x="1038" d="M8 1069l359 442h288l359 -442h-344l-158 219l-150 -219h-354zM31 674q0 317 524 317q98 0 218 -14t181 -35v-311q-66 27 -141.5 43t-132.5 16q-70 0 -106.5 -4t-36.5 -22q0 -10 22.5 -18.5t77.5 -22.5q53 -10 100 -25q106 -31 165 -68.5t82.5 -91t23.5 -135.5 q0 -152 -133.5 -237.5t-385.5 -85.5q-137 0 -261 19t-189 50v313q68 -37 174 -59t178 -22q61 0 86 3t25 19q0 12 -25.5 22.5t-77.5 22.5q-109 33 -116 35q-137 51 -194.5 113.5t-57.5 177.5z" />
<glyph unicode="&#x15e;" horiz-adv-x="1146" d="M31 928q0 209 144 310t435 101q96 0 223.5 -19.5t210.5 -43.5v-373q-195 80 -350 80q-158 0 -157 -51q0 -20 28.5 -33.5t114.5 -38.5l53 -14q158 -43 241 -105.5t112.5 -143.5t29.5 -202q0 -174 -122 -282.5t-355 -128.5l-21 -60q100 0 161 -55t61 -141q0 -102 -89 -161 t-259 -59q-39 0 -98.5 5.5t-82.5 11.5v158q59 -16 119 -17q68 0 102.5 18.5t34.5 53.5q0 57 -75 57h-152l53 191q-221 20 -350 86v370q98 -47 218 -77.5t214 -30.5q61 0 96 15.5t35 43.5q0 25 -28.5 40.5t-106.5 41.5q-90 31 -102 35q-131 49 -203 102.5t-103.5 127 t-31.5 188.5z" />
<glyph unicode="&#x15f;" horiz-adv-x="1038" d="M31 674q0 317 524 317q98 0 218 -14t181 -35v-311q-66 27 -141.5 43t-132.5 16q-70 0 -106.5 -4t-36.5 -22q0 -10 22.5 -18.5t77.5 -22.5q53 -10 100 -25q106 -31 165 -68.5t82.5 -91t23.5 -135.5q0 -133 -104.5 -217t-305.5 -102l-20 -60q100 0 160.5 -55t60.5 -141 q0 -102 -89 -161t-259 -59q-39 0 -98.5 5.5t-82.5 11.5v158q59 -16 119 -17q68 0 102.5 18.5t34.5 53.5q0 57 -75 57h-152l53 191q-98 8 -181 24.5t-132 38.5v313q68 -37 174 -59t178 -22q61 0 86 3t25 19q0 12 -25.5 22.5t-77.5 22.5q-109 33 -116 35q-137 51 -194.5 113.5 t-57.5 177.5z" />
<glyph unicode="&#x160;" horiz-adv-x="1146" d="M31 928q0 209 144 310t435 101q96 0 223.5 -19.5t210.5 -43.5v-373q-195 80 -350 80q-158 0 -157 -51q0 -20 28.5 -33.5t114.5 -38.5l53 -14q158 -43 241 -105.5t112.5 -143.5t29.5 -202q0 -193 -150.5 -304t-437.5 -111q-141 0 -270 24.5t-215 67.5v370 q98 -47 218 -77.5t214 -30.5q61 0 96 15.5t35 43.5q0 25 -28.5 40.5t-106.5 41.5q-90 31 -102 35q-131 49 -203 102.5t-103.5 127t-31.5 188.5zM78 1851h354l150 -219l157 219h344l-358 -442h-289z" />
<glyph unicode="&#x161;" horiz-adv-x="1038" d="M14 1511h355l149 -219l158 219h344l-358 -442h-289zM31 674q0 317 524 317q98 0 218 -14t181 -35v-311q-66 27 -141.5 43t-132.5 16q-70 0 -106.5 -4t-36.5 -22q0 -10 22.5 -18.5t77.5 -22.5q53 -10 100 -25q106 -31 165 -68.5t82.5 -91t23.5 -135.5 q0 -152 -133.5 -237.5t-385.5 -85.5q-137 0 -261 19t-189 50v313q68 -37 174 -59t178 -22q61 0 86 3t25 19q0 12 -25.5 22.5t-77.5 22.5q-109 33 -116 35q-137 51 -194.5 113.5t-57.5 177.5z" />
<glyph unicode="&#x162;" horiz-adv-x="1146" d="M-10 963v356h1167v-356h-336v-963h-129l-26 -76q100 0 160.5 -55t60.5 -141q0 -102 -89 -161t-259 -59q-39 0 -98.5 5.5t-82.5 11.5v158q59 -16 119 -17q68 0 102.5 18.5t34.5 53.5q0 57 -75 57h-152l57 205h-118v963h-336z" />
<glyph unicode="&#x163;" horiz-adv-x="811" d="M-10 614v357h116v190l496 101v-291h199l-10 -357h-189v-206q0 -86 96 -86q63 0 123 20v-307q-74 -33 -178 -49l-22 -62q100 0 160.5 -55t60.5 -141q0 -102 -89 -161t-259 -59q-39 0 -98.5 5.5t-82.5 11.5v158q59 -16 119 -17q68 0 102.5 18.5t34.5 53.5q0 57 -75 57h-152 l55 195q-291 55 -291 391v233h-116z" />
<glyph unicode="&#x164;" horiz-adv-x="1146" d="M-10 963v356h1167v-356h-336v-963h-495v963h-336zM72 1851h354l149 -219l158 219h344l-358 -442h-289z" />
<glyph unicode="&#x165;" horiz-adv-x="1146" d="M-10 614v357h116v190l496 101v-291h199l-10 -357h-189v-206q0 -86 96 -86q63 0 123 20v-307q-129 -55 -301 -55q-414 0 -414 401v233h-116zM739 1143l76 510h367l-133 -510h-310z" />
<glyph unicode="&#x166;" horiz-adv-x="1146" d="M-10 963v356h1167v-356h-336v-158h137v-316h-137v-489h-495v489h-158v316h158v158h-336z" />
<glyph unicode="&#x167;" horiz-adv-x="811" d="M-10 371v250h116v43h-116v307h116v190l496 101v-291h199l-10 -307h-189v-43h197v-250h-191q16 -49 90 -49q63 0 123 20v-307q-129 -55 -301 -55q-410 0 -414 391h-116z" />
<glyph unicode="&#x168;" horiz-adv-x="1441" d="M61 520v799h496v-735q0 -184 164 -185q164 0 164 185v735h495v-799q0 -172 -86 -294t-235.5 -184t-337.5 -62q-189 0 -338.5 62t-235.5 184t-86 294zM311 1425v289q33 29 90.5 50.5t118.5 21.5q51 0 97.5 -11.5t113.5 -33.5q66 -23 110 -34t91 -11q68 0 121 23.5t80 60.5 v-289q-20 -29 -77 -50.5t-118 -21.5q-49 0 -98 11.5t-125 35.5q-61 20 -104.5 31.5t-84.5 11.5q-131 0 -215 -84z" />
<glyph unicode="&#x169;" horiz-adv-x="1282" d="M61 356v615h496v-561q0 -66 68 -66q23 0 49 12.5t41 28.5v586h495v-971h-465l-10 55q-57 -35 -140 -55t-177 -20q-166 0 -261.5 97t-95.5 279zM219 1085v289q33 29 90.5 50.5t118.5 21.5q51 0 97 -11.5t114 -33.5q66 -23 110 -34t91 -11q68 0 121 23.5t79 60.5v-289 q-20 -29 -76.5 -50.5t-117.5 -21.5q-49 0 -98.5 11.5t-124.5 35.5q-61 20 -104.5 31.5t-84.5 11.5q-131 0 -215 -84z" />
<glyph unicode="&#x16a;" horiz-adv-x="1441" d="M61 520v799h496v-735q0 -184 164 -185q164 0 164 185v735h495v-799q0 -172 -86 -294t-235.5 -184t-337.5 -62q-189 0 -338.5 62t-235.5 184t-86 294zM365 1491v287h714v-287h-714z" />
<glyph unicode="&#x16b;" horiz-adv-x="1282" d="M61 356v615h496v-561q0 -66 68 -66q23 0 49 12.5t41 28.5v586h495v-971h-465l-10 55q-57 -35 -140 -55t-177 -20q-166 0 -261.5 97t-95.5 279zM289 1151v287h715v-287h-715z" />
<glyph unicode="&#x16c;" horiz-adv-x="1441" d="M61 520v799h496v-735q0 -184 164 -185q164 0 164 185v735h495v-799q0 -172 -86 -294t-235.5 -184t-337.5 -62q-189 0 -338.5 62t-235.5 184t-86 294zM270 1860h318q0 -78 30.5 -129.5t102.5 -51.5t103.5 51.5t31.5 129.5h318q0 -217 -122 -334t-331 -117t-330 118 t-121 333z" />
<glyph unicode="&#x16d;" horiz-adv-x="1282" d="M61 356v615h496v-561q0 -66 68 -66q23 0 49 12.5t41 28.5v586h495v-971h-465l-10 55q-57 -35 -140 -55t-177 -20q-166 0 -261.5 97t-95.5 279zM197 1520h317q0 -78 30.5 -129.5t102.5 -51.5t103.5 51.5t31.5 129.5h318q0 -217 -122 -334t-331 -117t-329.5 118t-120.5 333 z" />
<glyph unicode="&#x16e;" horiz-adv-x="1441" d="M61 520v799h496v-735q0 -184 164 -185q164 0 164 185v735h495v-799q0 -172 -86 -294t-235.5 -184t-337.5 -62q-189 0 -338.5 62t-235.5 184t-86 294zM408 1702q0 129 81.5 212t231.5 83t232.5 -83t82.5 -212t-83 -211t-232 -82q-148 0 -230.5 83t-82.5 210zM610 1702 q0 -45 29 -75t82 -30t81.5 30t28.5 75t-28.5 74.5t-81.5 29.5t-82 -29.5t-29 -74.5z" />
<glyph unicode="&#x16f;" horiz-adv-x="1282" d="M61 356v615h496v-561q0 -66 68 -66q23 0 49 12.5t41 28.5v586h495v-971h-465l-10 55q-57 -35 -140 -55t-177 -20q-166 0 -261.5 97t-95.5 279zM324 1362q0 129 81.5 212t231.5 83t232.5 -83t82.5 -212t-83 -211t-232 -82q-148 0 -230.5 83t-82.5 210zM526 1362 q0 -45 29 -75t82 -30t82 30t29 75t-29 74.5t-82 29.5t-82 -29.5t-29 -74.5z" />
<glyph unicode="&#x170;" horiz-adv-x="1441" d="M61 520v799h496v-735q0 -184 164 -185q164 0 164 185v735h495v-799q0 -172 -86 -294t-235.5 -184t-337.5 -62q-189 0 -338.5 62t-235.5 184t-86 294zM225 1409l195 416h422l-234 -416h-383zM778 1409l195 416h422l-234 -416h-383z" />
<glyph unicode="&#x171;" horiz-adv-x="1282" d="M61 356v615h496v-561q0 -66 68 -66q23 0 49 12.5t41 28.5v586h495v-971h-465l-10 55q-57 -35 -140 -55t-177 -20q-166 0 -261.5 97t-95.5 279zM96 1069l195 416h422l-234 -416h-383zM649 1069l195 416h422l-234 -416h-383z" />
<glyph unicode="&#x172;" horiz-adv-x="1441" d="M61 520v799h496v-735q0 -184 164 -185q164 0 164 185v735h495v-799q0 -219 -137 -355t-364 -173q-90 -70 -91 -148q0 -37 24 -50t73 -13q27 0 56.5 6t47.5 16v-217q-41 -14 -108.5 -25.5t-137.5 -11.5q-143 0 -223 52.5t-80 160.5q0 70 37 129.5t98 98.5 q-233 33 -373.5 171t-140.5 359z" />
<glyph unicode="&#x173;" horiz-adv-x="1282" d="M61 356v615h496v-561q0 -66 68 -66q23 0 49 12.5t41 28.5v586h495v-971h-170q-100 -76 -100 -156q0 -37 23.5 -50t72.5 -13q27 0 56.5 6t48.5 16v-217q-41 -14 -108.5 -25.5t-137.5 -11.5q-143 0 -223 52.5t-80 160.5q0 76 43 137.5t110 100.5l-10 55q-57 -35 -140 -55 t-177 -20q-166 0 -261.5 97t-95.5 279z" />
<glyph unicode="&#x174;" horiz-adv-x="1865" d="M31 1319h483l100 -504l76 281v223h404l147 -506l113 506h481l-305 -1319h-432l-158 520l-170 -520h-432zM438 1409l359 442h288l359 -442h-344l-158 219l-149 -219h-355z" />
<glyph unicode="&#x175;" horiz-adv-x="1667" d="M31 971h471l82 -332l61 180v152h356l86 -332l78 332h471l-258 -971h-436l-106 313l-107 -313h-440zM334 1069l358 442h289l358 -442h-344l-157 219l-150 -219h-354z" />
<glyph unicode="&#x176;" horiz-adv-x="1511" d="M31 1319h516l209 -420l209 420h516l-477 -840v-479h-496v479zM254 1409l358 442h289l359 -442h-345l-157 219l-150 -219h-354z" />
<glyph unicode="&#x177;" horiz-adv-x="1386" d="M31 971h518l170 -484l162 484h516l-334 -854q-92 -233 -235.5 -355t-358.5 -122q-98 0 -161.5 10t-127.5 37v315q59 -20 123 -20q66 0 106 10t66 39zM217 1069l358 442h289l359 -442h-344l-158 219l-150 -219h-354z" />
<glyph unicode="&#x178;" horiz-adv-x="1511" d="M31 1319h516l209 -420l209 420h516l-477 -840v-479h-496v479zM356 1470v289h320v-289h-320zM838 1470v289h319v-289h-319z" />
<glyph unicode="&#x179;" horiz-adv-x="1200" d="M31 0v244l483 669h-455v406h1108v-281l-477 -661h490v-377h-1149zM393 1409l197 463h381l-215 -463h-363z" />
<glyph unicode="&#x17a;" horiz-adv-x="1036" d="M31 0v260l325 332h-315v379h948v-287l-309 -328h326v-356h-975zM317 1069l197 463h381l-215 -463h-363z" />
<glyph unicode="&#x17b;" horiz-adv-x="1200" d="M31 0v244l483 669h-455v406h1108v-281l-477 -661h490v-377h-1149zM463 1470v289h319v-289h-319z" />
<glyph unicode="&#x17c;" horiz-adv-x="1036" d="M31 0v260l325 332h-315v379h948v-287l-309 -328h326v-356h-975zM348 1130v289h320v-289h-320z" />
<glyph unicode="&#x17d;" horiz-adv-x="1200" d="M31 0v244l483 669h-455v406h1108v-281l-477 -661h490v-377h-1149zM139 1851h355l149 -219l158 219h344l-359 -442h-288z" />
<glyph unicode="&#x17e;" horiz-adv-x="1036" d="M12 1511h355l149 -219l158 219h344l-359 -442h-288zM31 0v260l325 332h-315v379h948v-287l-309 -328h326v-356h-975z" />
<glyph unicode="&#x18f;" horiz-adv-x="1441" d="M31 592v231h927q-23 111 -110.5 158t-282.5 47q-100 0 -249.5 -29.5t-221.5 -60.5v301q111 43 263.5 71.5t314.5 28.5q219 0 387 -87t260 -245.5t92 -367.5q0 -309 -175 -484t-521 -175q-324 0 -504 159.5t-180 452.5zM455 475q0 -82 66.5 -143.5t193.5 -61.5 q243 0 243 244h-503v-39z" />
<glyph unicode="&#x192;" horiz-adv-x="1046" d="M-246 -197l64 308q55 -20 119 -21q53 0 79.5 20.5t34.5 61.5l92 442h-114l75 357h115l6 30q41 184 171 298t331 114q172 0 289 -55l-64 -307q-55 20 -118 20q-53 0 -80 -20.5t-35 -61.5l-4 -18h211l-97 -357h-190l-94 -454q-39 -184 -170 -298t-332 -114q-172 0 -289 55z " />
<glyph unicode="&#x1a0;" horiz-adv-x="1681" d="M31 659q0 360 179 520t527 160q293 0 461 -108q88 8 118 45t30 133h346q0 -213 -65.5 -322.5t-219.5 -148.5q37 -117 37 -279q0 -360 -179.5 -519.5t-527.5 -159.5t-527 159.5t-179 519.5zM537 659q0 -143 46 -201.5t154 -58.5q109 0 155 58.5t46 201.5t-46 202t-155 59 t-154.5 -58.5t-45.5 -202.5z" />
<glyph unicode="&#x1a1;" horiz-adv-x="1570" d="M31 485q0 506 610 506q262 0 412 -92q109 0 145.5 45t36.5 154h346q0 -229 -78 -347t-258 -153q8 -47 8 -113q0 -506 -612 -505q-610 -1 -610 505zM537 485q0 -84 25.5 -117.5t78.5 -33.5q55 0 81 33.5t26 117.5t-26 118t-81 34q-53 0 -78.5 -34t-25.5 -118z" />
<glyph unicode="&#x1af;" horiz-adv-x="1863" d="M61 520v799h496v-735q0 -184 164 -185q164 0 164 185v735h495v-88q88 6 118 44t30 134h346q0 -180 -51 -286.5t-157.5 -154.5t-285.5 -53v-395q0 -172 -86 -294t-235.5 -184t-337.5 -62q-189 0 -338.5 62t-235.5 184t-86 294z" />
<glyph unicode="&#x1b0;" horiz-adv-x="1652" d="M61 356v615h496v-561q0 -66 68 -66q23 0 49 12.5t41 28.5v586h495v-68q55 2 83 22.5t36 59.5t8 113h346q0 -178 -46 -285.5t-148.5 -161t-278.5 -67.5v-584h-465l-10 55q-57 -35 -140 -55t-177 -20q-166 0 -261.5 97t-95.5 279z" />
<glyph unicode="&#x1cd;" horiz-adv-x="1591" d="M31 0l508 1319h514l508 -1319h-517l-94 246h-309l-94 -246h-516zM293 1851h354l150 -219l157 219h344l-358 -442h-289zM694 584h201l-100 252z" />
<glyph unicode="&#x1ce;" horiz-adv-x="1202" d="M31 303q0 332 422 332h217v10q0 25 -45 41t-129 16q-80 0 -171.5 -13t-170.5 -38v267q78 33 201.5 53t238.5 20q252 0 399.5 -103.5t147.5 -307.5v-580h-434l-21 70q-111 -90 -313 -90q-152 0 -247 79.5t-95 243.5zM115 1511h354l149 -219l158 219h344l-358 -442h-289z M487 317q0 -68 72 -67q66 0 111 45v90h-90q-49 0 -71 -15.5t-22 -52.5z" />
<glyph unicode="&#x1cf;" horiz-adv-x="638" d="M-182 1851h354l150 -219l157 219h344l-358 -442h-289zM72 0v1319h495v-1319h-495z" />
<glyph unicode="&#x1d0;" horiz-adv-x="774" d="M-68 1511h355l149 -219l158 219h344l-358 -442h-289zM72 614l41 357h589v-971h-495v614h-135z" />
<glyph unicode="&#x1d1;" horiz-adv-x="1474" d="M31 659q0 360 179 520t527 160t527.5 -159.5t179.5 -520.5q0 -360 -179.5 -519.5t-527.5 -159.5t-527 159.5t-179 519.5zM236 1851h354l149 -219l158 219h344l-358 -442h-289zM537 659q0 -143 46 -201.5t154 -58.5q109 0 155 58.5t46 201.5t-46 202t-155 59t-154.5 -58.5 t-45.5 -202.5z" />
<glyph unicode="&#x1d2;" horiz-adv-x="1284" d="M31 485q0 506 610 506q612 0 612 -506t-612 -505q-610 -1 -610 505zM139 1511h355l149 -219l158 219h344l-359 -442h-288zM537 485q0 -84 25.5 -117.5t78.5 -33.5q55 0 81 33.5t26 117.5t-26 118t-81 34q-53 0 -78.5 -34t-25.5 -118z" />
<glyph unicode="&#x1d3;" horiz-adv-x="1441" d="M61 520v799h496v-735q0 -184 164 -185q164 0 164 185v735h495v-799q0 -172 -86 -294t-235.5 -184t-337.5 -62q-189 0 -338.5 62t-235.5 184t-86 294zM219 1851h354l150 -219l158 219h344l-359 -442h-288z" />
<glyph unicode="&#x1d4;" horiz-adv-x="1282" d="M61 356v615h496v-561q0 -66 68 -66q23 0 49 12.5t41 28.5v586h495v-971h-465l-10 55q-57 -35 -140 -55t-177 -20q-166 0 -261.5 97t-95.5 279zM129 1511h354l150 -219l158 219h344l-359 -442h-289z" />
<glyph unicode="&#x1d5;" horiz-adv-x="1441" d="M61 520v799h496v-735q0 -184 164 -185q164 0 164 185v735h495v-799q0 -172 -86 -294t-235.5 -184t-337.5 -62q-189 0 -338.5 62t-235.5 184t-86 294zM322 1427v289h319v-289h-319zM365 1819v286h714v-286h-714zM803 1427v289h319v-289h-319z" />
<glyph unicode="&#x1d6;" horiz-adv-x="1282" d="M61 356v615h496v-561q0 -66 68 -66q23 0 49 12.5t41 28.5v586h495v-971h-465l-10 55q-57 -35 -140 -55t-177 -20q-166 0 -261.5 97t-95.5 279zM242 1090v288h319v-288h-319zM285 1475v286h714v-286h-714zM723 1090v288h319v-288h-319z" />
<glyph unicode="&#x1d7;" horiz-adv-x="1441" d="M61 520v799h496v-735q0 -184 164 -185q164 0 164 185v735h495v-799q0 -172 -86 -294t-235.5 -184t-337.5 -62q-189 0 -338.5 62t-235.5 184t-86 294zM332 1430v272h311v-272h-311zM549 1765l115 297h364l-151 -297h-328zM801 1430v272h311v-272h-311z" />
<glyph unicode="&#x1d8;" horiz-adv-x="1282" d="M61 356v615h496v-561q0 -66 68 -66q23 0 49 12.5t41 28.5v586h495v-971h-465l-10 55q-57 -35 -140 -55t-177 -20q-166 0 -261.5 97t-95.5 279zM242 1147v272h311v-272h-311zM459 1483l114 297h365l-152 -297h-327zM711 1147v272h311v-272h-311z" />
<glyph unicode="&#x1d9;" horiz-adv-x="1441" d="M61 520v799h496v-735q0 -184 164 -185q164 0 164 185v735h495v-799q0 -172 -86 -294t-235.5 -184t-337.5 -62q-189 0 -338.5 62t-235.5 184t-86 294zM248 2062h360l115 -149l119 149h354l-305 -297h-338zM322 1430v272h311v-272h-311zM791 1430v272h311v-272h-311z" />
<glyph unicode="&#x1da;" horiz-adv-x="1282" d="M61 356v615h496v-561q0 -66 68 -66q23 0 49 12.5t41 28.5v586h495v-971h-465l-10 55q-57 -35 -140 -55t-177 -20q-166 0 -261.5 97t-95.5 279zM170 1722h360l115 -149l119 149h354l-305 -297h-338zM244 1090v272h311v-272h-311zM713 1090v272h311v-272h-311z" />
<glyph unicode="&#x1db;" horiz-adv-x="1441" d="M61 520v799h496v-735q0 -184 164 -185q164 0 164 185v735h495v-799q0 -172 -86 -294t-235.5 -184t-337.5 -62q-189 0 -338.5 62t-235.5 184t-86 294zM332 1501v273h311v-273h-311zM416 2134h364l115 -297h-328zM801 1501v273h311v-273h-311z" />
<glyph unicode="&#x1dc;" horiz-adv-x="1282" d="M61 356v615h496v-561q0 -66 68 -66q23 0 49 12.5t41 28.5v586h495v-971h-465l-10 55q-57 -35 -140 -55t-177 -20q-166 0 -261.5 97t-95.5 279zM258 1147v272h311v-272h-311zM342 1780h365l114 -297h-327zM727 1147v272h311v-272h-311z" />
<glyph unicode="&#x1e6;" horiz-adv-x="1357" d="M31 659q0 334 205.5 507t597.5 173q129 0 230 -14t193 -45v-422q-164 63 -391 64q-156 0 -242.5 -60.5t-86.5 -202.5q0 -143 63.5 -202.5t194.5 -59.5q66 0 123 15v80h-220v299h629v-682q-94 -57 -226 -93t-302 -36q-375 0 -571.5 172t-196.5 507zM276 1849h355l149 -219 l158 219h344l-358 -442h-289z" />
<glyph unicode="&#x1e7;" horiz-adv-x="1200" d="M31 166q0 70 43 119t119 71q-84 43 -120 104.5t-36 162.5q0 186 136 277t394 91q51 0 123 -7t105 -13h395l-8 -293h-107q12 -33 12 -62q0 -156 -83.5 -237.5t-266.5 -81.5q-47 0 -104 4q-76 -4 -76 -37q0 -16 13.5 -21t39.5 -5h172q158 0 247 -69t89 -208 q0 -150 -144.5 -235.5t-445.5 -85.5q-127 0 -262 12t-200 37v282q76 -25 197.5 -38t234.5 -13q197 0 196 33q0 14 -20.5 18t-65.5 4h-233q-172 0 -258 46.5t-86 144.5zM102 1511h355l149 -219l158 219h344l-358 -442h-289zM471 643q0 -43 22.5 -61.5t77.5 -18.5 q56 0 78.5 18.5t22.5 61.5q0 45 -23.5 64.5t-77.5 19.5q-53 0 -76.5 -19.5t-23.5 -64.5z" />
<glyph unicode="&#x1fa;" horiz-adv-x="1591" d="M31 0l508 1317q-57 72 -58 180q0 129 82 212t232 83t232.5 -83t82.5 -212q0 -109 -57 -180l508 -1317h-517l-94 246h-309l-94 -246h-516zM602 1858l197 368h381l-215 -368h-363zM684 1497q0 -45 28.5 -74.5t82.5 -29.5q53 0 81.5 29.5t28.5 74.5t-28.5 75t-81.5 30 q-54 0 -82.5 -30t-28.5 -75zM694 584h201l-100 252z" />
<glyph unicode="&#x1fb;" horiz-adv-x="1202" d="M31 303q0 332 422 332h217v10q0 25 -45 41t-129 16q-80 0 -171.5 -13t-170.5 -38v267q78 33 201.5 53t238.5 20q252 0 399.5 -103.5t147.5 -307.5v-580h-434l-21 70q-111 -90 -313 -90q-152 0 -247 79.5t-95 243.5zM340 1362q0 129 82 212t231 83q150 0 233 -83t83 -212 t-83 -211t-233 -82q-147 0 -230 83t-83 210zM424 1726l197 369h380l-215 -369h-362zM487 317q0 -68 72 -67q66 0 111 45v90h-90q-49 0 -71 -15.5t-22 -52.5zM543 1362q0 -45 28.5 -75t81.5 -30q54 0 82.5 30t28.5 75t-28.5 74.5t-82.5 29.5q-53 0 -81.5 -29.5t-28.5 -74.5z " />
<glyph unicode="&#x1fc;" horiz-adv-x="1789" d="M31 0l508 1319h1220v-356h-456v-119h378v-369h-378v-119h456v-356h-932v246h-186l-94 -246h-516zM694 584h133v379h-12zM836 1409l196 463h381l-215 -463h-362z" />
<glyph unicode="&#x1fd;" horiz-adv-x="1820" d="M31 303q0 332 422 332h217v10q0 25 -45 41t-129 16q-80 0 -171.5 -13t-170.5 -38v267q78 33 201.5 53t238.5 20q92 0 178 -25.5t143 -70.5q59 43 146.5 69.5t179.5 26.5q252 0 400.5 -124t148.5 -349v-166h-647q66 -82 284 -82q86 0 173.5 14.5t140.5 34.5v-266 q-154 -74 -434 -73q-111 0 -221.5 39.5t-170.5 107.5q-86 -72 -190 -109.5t-272 -37.5q-185 0 -303.5 80.5t-118.5 242.5zM487 317q0 -68 72 -67q74 0 111 45v90h-90q-49 0 -71 -15.5t-22 -52.5zM684 1069l197 463h381l-215 -463h-363zM1143 600h223v18q0 35 -25.5 57.5 t-83.5 22.5q-59 0 -86.5 -26.5t-27.5 -71.5z" />
<glyph unicode="&#x1fe;" horiz-adv-x="1474" d="M31 659q0 360 179 520t527 160q106 0 191 -14l39 94h157l-53 -129q184 -63 278.5 -216.5t94.5 -414.5q0 -360 -179.5 -519.5t-527.5 -159.5q-111 0 -194 14l-41 -103h-158l55 138q-182 63 -275 216.5t-93 413.5zM446 1409l197 463h381l-215 -463h-363zM526 659 q0 -150 45 -208l195 479q-8 2 -29 2q-115 0 -163 -61.5t-48 -211.5zM702 387h35q115 0 163 61.5t48 210.5q0 147 -49 211z" />
<glyph unicode="&#x1ff;" horiz-adv-x="1284" d="M31 485q0 506 610 506q66 0 125 -6l39 96h158l-52 -123q342 -94 342 -473q0 -506 -612 -505q-66 0 -125 6l-39 -97h-158l50 123q-338 94 -338 473zM274 1069l197 463h381l-215 -463h-363zM494 485q0 -78 20 -118l127 311q-72 0 -109.5 -44t-37.5 -149zM641 293 q72 0 111 44t39 148q0 72 -23 121z" />
<glyph unicode="&#x218;" horiz-adv-x="1146" d="M31 928q0 209 144 310t435 101q96 0 223.5 -19.5t210.5 -43.5v-373q-195 80 -350 80q-158 0 -157 -51q0 -20 28.5 -33.5t114.5 -38.5l53 -14q158 -43 241 -105.5t112.5 -143.5t29.5 -202q0 -193 -150.5 -304t-437.5 -111q-141 0 -270 24.5t-215 67.5v370 q98 -47 218 -77.5t214 -30.5q61 0 96 15.5t35 43.5q0 25 -28.5 40.5t-106.5 41.5q-90 31 -102 35q-131 49 -203 102.5t-103.5 127t-31.5 188.5zM315 -494l70 418h412l-105 -418h-377z" />
<glyph unicode="&#x219;" horiz-adv-x="1038" d="M31 674q0 317 524 317q98 0 218 -14t181 -35v-311q-66 27 -141.5 43t-132.5 16q-70 0 -106.5 -4t-36.5 -22q0 -10 22.5 -18.5t77.5 -22.5q53 -10 100 -25q106 -31 165 -68.5t82.5 -91t23.5 -135.5q0 -152 -133.5 -237.5t-385.5 -85.5q-137 0 -261 19t-189 50v313 q68 -37 174 -59t178 -22q61 0 86 3t25 19q0 12 -25.5 22.5t-77.5 22.5q-109 33 -116 35q-137 51 -194.5 113.5t-57.5 177.5zM254 -494l70 418h411l-104 -418h-377z" />
<glyph unicode="&#x21a;" horiz-adv-x="1146" d="M-10 963v356h1167v-356h-336v-963h-495v963h-336zM336 -586l76 510h366l-133 -510h-309z" />
<glyph unicode="&#x21b;" horiz-adv-x="811" d="M-10 614v357h116v190l496 101v-291h199l-10 -357h-189v-206q0 -86 96 -86q63 0 123 20v-307q-129 -55 -301 -55q-414 0 -414 401v233h-116zM256 -586l76 510h366l-133 -510h-309z" />
<glyph unicode="&#x237;" horiz-adv-x="774" d="M-12 -117q59 -20 123 -20q96 0 96 82v669h-135l41 357h589v-1059q0 -180 -101 -285.5t-312 -105.5q-172 0 -301 55v307z" />
<glyph unicode="&#x251;" horiz-adv-x="1286" d="M31 442q0 256 124 402.5t343 146.5q72 0 131 -19.5t98 -51.5v51h487v-971h-430l-22 63q-55 -39 -132 -61t-165 -22q-434 -1 -434 462zM537 459q0 -74 23.5 -99.5t72.5 -25.5q51 0 86 31v241q-20 16 -40 23.5t-46 7.5q-96 0 -96 -178z" />
<glyph unicode="&#x259;" horiz-adv-x="1161" d="M31 453v165h647q-29 43 -87.5 62.5t-187.5 19.5q-88 0 -179 -14t-144 -35v267q78 35 204 54t263 19q272 0 427.5 -123t155.5 -379q0 -150 -66.5 -265t-193.5 -179.5t-307 -64.5q-254 0 -393 119.5t-139 353.5zM455 352q0 -35 25.5 -57.5t82.5 -22.5q60 0 87.5 27t27.5 72 h-223v-19z" />
<glyph unicode="&#x2bb;" horiz-adv-x="608" d="M31 821l176 518h371l-140 -518h-407z" />
<glyph unicode="&#x2bc;" horiz-adv-x="608" d="M31 821l139 518h408l-177 -518h-370z" />
<glyph unicode="&#x2be;" d="M-856 889v297q82 0 121 21.5t39 90.5q0 72 -39 93.5t-121 21.5v297q233 0 341.5 -101.5t108.5 -310.5q0 -207 -109.5 -308t-340.5 -101z" />
<glyph unicode="&#x2bf;" d="M-856 1298q0 209 108.5 310.5t341.5 101.5v-297q-82 0 -120.5 -21.5t-38.5 -93.5q0 -70 39 -91t120 -21v-297q-231 0 -340.5 101.5t-109.5 307.5z" />
<glyph unicode="&#x2c6;" horiz-adv-x="512" d="M-248 1069l359 442h288l359 -442h-344l-158 219l-150 -219h-354z" />
<glyph unicode="&#x2c7;" horiz-adv-x="512" d="M-248 1511h354l150 -219l158 219h344l-359 -442h-288z" />
<glyph unicode="&#x2c8;" d="M-246 963v448h307v-448h-307z" />
<glyph unicode="&#x2c9;" d="M166 1135v286h715v-286h-715z" />
<glyph unicode="&#x2ca;" d="M-389 1069l196 463h381l-215 -463h-362z" />
<glyph unicode="&#x2cb;" d="M-389 1532h381l196 -463h-362z" />
<glyph unicode="&#x2cc;" d="M-246 -84h307v-448h-307v448z" />
<glyph unicode="&#x2d8;" horiz-adv-x="452" d="M-227 1524h317q0 -78 31 -129.5t102 -51.5q72 0 103.5 51.5t31.5 129.5h318q0 -217 -122 -334t-331 -117t-329.5 118t-120.5 333z" />
<glyph unicode="&#x2d9;" horiz-adv-x="133" d="M-94 1126v289h319v-289h-319z" />
<glyph unicode="&#x2da;" horiz-adv-x="452" d="M-88 1325q0 129 82 212t231 83q150 0 233 -83t83 -212t-83 -211t-233 -82q-147 0 -230 83t-83 210zM115 1325q0 -45 28.5 -74.5t81.5 -29.5q54 0 82.5 29.5t28.5 74.5t-28.5 75t-82.5 30q-53 0 -81.5 -30t-28.5 -75z" />
<glyph unicode="&#x2db;" horiz-adv-x="333" d="M-90 -238q0 76 43 137.5t110 100.5h295q-100 -76 -100 -156q0 -37 23.5 -50t72.5 -13q27 0 56.5 6t48.5 16v-217q-41 -14 -108.5 -25.5t-137.5 -11.5q-143 0 -223 52.5t-80 160.5z" />
<glyph unicode="&#x2dc;" horiz-adv-x="595" d="M-117 1096v288q33 29 90.5 50.5t118.5 21.5q51 0 97.5 -11t113.5 -34q66 -23 110 -34t91 -11q68 0 121 23.5t80 60.5v-289q-20 -29 -77 -50t-118 -21q-49 0 -98.5 11t-124.5 36q-61 20 -104.5 31.5t-84.5 11.5q-131 0 -215 -84z" />
<glyph unicode="&#x2dd;" horiz-adv-x="643" d="M-236 1063l195 416h422l-234 -416h-383zM317 1063l195 416h422l-234 -416h-383z" />
<glyph unicode="&#x300;" d="M-1092 1532h381l197 -463h-363z" />
<glyph unicode="&#x301;" d="M-1092 1069l197 463h381l-215 -463h-363z" />
<glyph unicode="&#x302;" d="M-616 1069l358 442h289l358 -442h-344l-158 219l-149 -219h-354z" />
<glyph unicode="&#x303;" d="M-1180 1096v288q33 29 90.5 50.5t118.5 21.5q51 0 97.5 -11t113.5 -34q66 -23 110 -34t91 -11q68 0 121 23.5t80 60.5v-289q-20 -29 -77 -50t-118 -21q-49 0 -98 11t-125 36q-61 20 -104.5 31.5t-84.5 11.5q-131 0 -215 -84z" />
<glyph unicode="&#x304;" d="M-465 1135v286h715v-286h-715z" />
<glyph unicode="&#x306;" d="M-543 1524h318q0 -78 30.5 -129.5t102.5 -51.5t103.5 51.5t31.5 129.5h317q0 -217 -121.5 -334t-330.5 -117t-330 118t-121 333z" />
<glyph unicode="&#x307;" d="M-252 1126v289h320v-289h-320z" />
<glyph unicode="&#x308;" d="M-401 1126v289h319v-289h-319zM80 1126v289h319v-289h-319z" />
<glyph unicode="&#x309;" d="M-930 1309v192q109 31 266 31q145 0 227.5 -61.5t82.5 -157.5q0 -90 -39 -137.5t-129 -75.5v-74h-365v166q174 10 174 80q0 31 -24.5 44t-77.5 13q-63 0 -115 -20z" />
<glyph unicode="&#x30a;" d="M-406 1325q0 129 82 212t232 83t232.5 -83t82.5 -212t-83 -211t-232 -82q-150 0 -232 83t-82 210zM-203 1325q0 -45 29 -74.5t82 -29.5t81.5 29.5t28.5 74.5t-28.5 75t-81.5 30t-82 -30t-29 -75z" />
<glyph unicode="&#x30b;" d="M-682 1063l195 416h421l-233 -416h-383zM-129 1063l195 416h421l-233 -416h-383z" />
<glyph unicode="&#x30c;" d="M-616 1511h354l149 -219l158 219h344l-358 -442h-289z" />
<glyph unicode="&#x31b;" d="M-369 1030v316q102 0 143.5 38.5t41.5 139.5h346q0 -188 -51.5 -295t-165 -153t-314.5 -46z" />
<glyph unicode="&#x323;" d="M-866 -147h319v-289h-319v289z" />
<glyph unicode="&#x324;" d="M-494 -147h320v-289h-320v289zM-12 -147h319v-289h-319v289z" />
<glyph unicode="&#x326;" d="M-494 -586l76 510h367l-133 -510h-310z" />
<glyph unicode="&#x327;" d="M-270 -317q59 -16 118 -17q68 0 103 18.5t35 53.5q0 57 -76 57h-152l58 205h247l-26 -76q100 0 160.5 -55t60.5 -141q0 -102 -89 -161t-259 -59q-39 0 -98.5 5.5t-81.5 11.5v158z" />
<glyph unicode="&#x328;" d="M-362 -238q0 76 43 137.5t110 100.5h295q-100 -76 -100 -156q0 -37 23.5 -50t72.5 -13q27 0 56.5 6t47.5 16v-217q-41 -14 -108.5 -25.5t-136.5 -11.5q-144 0 -223.5 52.5t-79.5 160.5z" />
<glyph unicode="&#x32e;" d="M-543 -82h318q0 -78 30.5 -129t102.5 -51t103.5 51t31.5 129h317q0 -217 -121.5 -333.5t-330.5 -116.5t-330 117.5t-121 332.5z" />
<glyph unicode="&#x331;" d="M-465 -139h715v-287h-715v287z" />
<glyph unicode="&#x394;" horiz-adv-x="1294" d="M31 0v256l420 1063h389l424 -1065v-254h-1233zM498 375h295l-148 366z" />
<glyph unicode="&#x3a9;" horiz-adv-x="1523" d="M31 760q0 317 188.5 490t542.5 173t542.5 -173t188.5 -490q0 -270 -184 -402h170v-358h-678v375q100 63 143 149t43 205q0 274 -225 275q-225 0 -225 -275q0 -119 43 -205t143 -149v-375h-678v358h170q-90 74 -137 176.5t-47 225.5z" />
<glyph unicode="&#x3bc;" horiz-adv-x="1292" d="M72 -293v1264h495v-561q0 -66 68 -66q23 0 49.5 12.5t40.5 28.5v586h496v-971h-465l-11 55q-27 -33 -77 -54t-101 -21v-273h-495z" />
<glyph unicode="&#x3c0;" horiz-adv-x="1443" d="M10 571v400h1323v-400h-119v-163q0 -86 97 -86q63 0 123 20v-307q-129 -55 -301 -55q-414 0 -414 401v190h-94v-571h-496v571h-119z" />
<glyph unicode="&#xe01;" horiz-adv-x="1335" d="M31 625v317q119 80 272.5 132t329.5 52q223 0 363.5 -63.5t204 -166.5t63.5 -230v-666h-516v635q0 80 -31 113.5t-113 33.5t-155 -32v-5l202 -73v-195q-94 -31 -94 -143v-334h-506v346q0 68 40 131.5t106 87.5z" />
<glyph unicode="&#xe02;" horiz-adv-x="1267" d="M31 774l39 332h364q121 0 179.5 -55.5t58.5 -157.5q0 -57 -22.5 -106.5t-65.5 -112.5q-37 -59 -53.5 -92t-16.5 -70v-39q0 -47 30.5 -70.5t80.5 -23.5q57 0 87.5 29.5t30.5 78.5v619h453v-694q0 -209 -148.5 -320.5t-422.5 -111.5q-260 0 -412 112.5t-152 310.5v37 q0 55 18.5 98.5t53.5 94.5q20 31 30.5 50t10.5 38q0 29 -12 41t-43 12h-88z" />
<glyph unicode="&#xe03;" horiz-adv-x="1316" d="M31 684v422h262v-57q31 20 93.5 38.5t117.5 18.5q115 0 176 -56.5t61 -156.5q0 -76 -27.5 -133.5t-80.5 -128.5q-37 -49 -53.5 -78t-16.5 -59v-21q0 -47 31 -70.5t80 -23.5q57 0 88 29.5t31 78.5v619h452v-694q0 -209 -148.5 -320.5t-422.5 -111.5q-262 0 -412.5 97 t-150.5 275v33q0 66 36.5 122t104.5 128q37 39 55.5 63.5t18.5 42.5q0 20 -8.5 29.5t-24.5 9.5q-20 0 -35 -20v-76h-227z" />
<glyph unicode="&#xe04;" horiz-adv-x="1359" d="M72 0v627q0 254 164.5 376.5t443.5 122.5t443.5 -122.5t164.5 -376.5v-627h-495v584q0 72 -24 97.5t-89 25.5q-66 0 -89.5 -26t-23.5 -97v-54q43 18 88 19h82l-2 -340h-80q-53 0 -88 -16v-193h-495z" />
<glyph unicode="&#xe05;" horiz-adv-x="1359" d="M72 0v805q0 145 90 233t241 88q78 0 151 -25.5t124 -78.5q51 53 126 78.5t154 25.5q158 0 244 -86t86 -235v-805h-495v643q0 37 -6.5 50.5t-28.5 13.5q-14 0 -23.5 -9.5t-19.5 -27.5h-70q-10 20 -17 28.5t-24 8.5q-23 0 -30 -13.5t-7 -50.5v-113q43 18 88 19h82l-2 -340 h-80q-53 0 -88 -16v-193h-495z" />
<glyph unicode="&#xe06;" horiz-adv-x="1347" d="M31 684v422h305v-57q31 20 93.5 38.5t117.5 18.5q106 0 161.5 -61.5t55.5 -163.5q0 -98 -27.5 -162t-81.5 -135q-37 -51 -53 -83t-16 -71v-45q12 -16 49 -28.5t61 -12.5q94 0 95 90v672h485v-750q0 -178 -106.5 -277t-276.5 -99q-98 0 -182 23.5t-146 62.5l-14 -66h-461 v311q0 78 42 148.5t114 152.5q45 55 62.5 81t17.5 48q0 20 -8.5 29.5t-24.5 9.5q-20 0 -35 -20v-76h-227z" />
<glyph unicode="&#xe07;" horiz-adv-x="1308" d="M31 784h458l185 -473q49 20 73.5 91t24.5 180q0 186 -160 186h-73v338h188q264 0 407.5 -131t143.5 -391q0 -309 -166 -456.5t-463 -147.5q-78 0 -170 13t-153 36z" />
<glyph unicode="&#xe08;" horiz-adv-x="1185" d="M31 334l18 340h402l120 -322q78 61 78 207q0 121 -57 174t-197 53q-78 0 -174 -15t-188 -40v318q113 39 244 58t243 19q236 0 375 -64.5t199.5 -189t60.5 -315.5q0 -184 -82 -315t-214 -196.5t-281 -65.5q-84 0 -169 13t-124 34l-115 307h-139z" />
<glyph unicode="&#xe09;" horiz-adv-x="1286" d="M31 731v318q113 39 260 58t287 19q342 0 489 -141t147 -428v-557h-460l-15 66q-61 -39 -145 -62.5t-182 -23.5q-168 0 -270.5 98t-102.5 278v258h496v-180q0 -47 19 -68.5t64 -21.5q31 0 59 11.5t42 29.5v174q0 123 -58.5 175t-207.5 52q-84 0 -210 -15t-212 -40z" />
<glyph unicode="&#xe0a;" horiz-adv-x="1300" d="M31 774l39 332h344q121 0 179 -55.5t58 -157.5q0 -66 -19.5 -113t-56.5 -110q-31 -47 -46 -84t-15 -80v-35q0 -45 33 -68.5t94 -23.5q63 0 99 23.5t36 68.5v37q0 43 -20.5 64.5t-57.5 21.5h-39l19 332h18q43 0 61.5 26.5t18.5 94.5v79h453v-63q0 -113 -26.5 -186.5 t-94.5 -116.5q66 -39 93.5 -104.5t27.5 -155.5v-80q0 -131 -72 -231.5t-205 -154.5t-311 -54q-264 0 -422 107.5t-158 301.5v37q0 61 19.5 106.5t54.5 100.5q4 6 16.5 26.5t17.5 35t5 26.5q0 29 -12 41t-43 12h-88z" />
<glyph unicode="&#xe0b;" horiz-adv-x="1296" d="M31 684v422h262v-57q33 20 89 38.5t112 18.5q100 0 157.5 -47t67.5 -133q29 2 41 28.5t12 92.5v79h453v-63q0 -113 -27 -186.5t-94 -116.5q66 -39 93.5 -104.5t27.5 -155.5v-88q0 -209 -148.5 -320.5t-423.5 -111.5q-262 0 -412.5 97t-150.5 275v33q0 66 37 122t104 128 q37 39 55.5 63.5t18.5 42.5q0 20 -8 29.5t-25 9.5q-20 0 -34 -20v-76h-207zM543 473q0 -47 30.5 -70.5t79.5 -23.5q58 0 88.5 29.5t30.5 78.5v48q0 43 -18.5 64.5t-51.5 21.5h-26l6 106q-25 -45 -76 -111q-33 -43 -48 -69.5t-15 -52.5v-21z" />
<glyph unicode="&#xe0c;" horiz-adv-x="1966" d="M31 625v317q276 184 594 184q324 0 456.5 -128t132.5 -332v-281q12 -16 45 -28.5t56 -12.5q45 0 64.5 21.5t19.5 68.5v672h495v-750q0 -178 -106.5 -277t-276.5 -99q-178 0 -317 86l-14 -66h-451v635q0 82 -26.5 114.5t-106.5 32.5q-74 0 -147 -32v-5l202 -73v-195 q-94 -31 -94 -121v-18q0 -51 51 -51h47v-287h-385q-102 0 -160.5 58.5t-58.5 154.5v133q0 68 40 131.5t106 87.5z" />
<glyph unicode="&#xe0d;" horiz-adv-x="1984" d="M31 625v317q276 184 594 184q322 0 455.5 -116.5t133.5 -302.5v-43q0 -66 23 -94.5t80 -28.5t79.5 28.5t22.5 94.5v442h496v-465q0 -150 -82 -258q47 -41 73.5 -103.5t26.5 -134.5q0 -154 -150.5 -241.5t-412.5 -87.5q-160 0 -300 24.5t-208 63.5v301q72 -41 215.5 -66.5 t265.5 -25.5q207 0 207 65q0 16 -12 31q-96 -23 -221 -23q-276 0 -432 112t-156 335v22q0 70 -26.5 98.5t-106.5 28.5q-74 0 -147 -32v-5l202 -73v-195q-94 -31 -94 -121v-18q0 -51 51 -51h47v-287h-385q-102 0 -160.5 58.5t-58.5 154.5v133q0 68 40 131.5t106 87.5z" />
<glyph unicode="&#xe0e;" horiz-adv-x="1382" d="M31 0v307h41q51 0 51 51v23q0 70 27.5 115t93.5 69l-166 60v317q119 80 272.5 132t329.5 52q223 0 363.5 -63.5t204 -166.5t63.5 -230v-1063h-430q-61 31 -127 44t-156 13q-84 0 -169 -18.5t-155 -51.5v342q82 31 161 45.5t181 14.5q45 0 100.5 -6t78.5 -15v664 q0 80 -31 113.5t-113 33.5t-155 -32v-5l202 -73v-195q-41 -14 -55 -39.5t-14 -75.5v-149q0 -94 -66.5 -153.5t-171.5 -59.5h-360z" />
<glyph unicode="&#xe0f;" horiz-adv-x="1382" d="M31 0v307h41q51 0 51 51v23q0 70 27.5 115t93.5 69l-166 60v317q119 80 272.5 132t329.5 52q223 0 363.5 -63.5t204 -166.5t63.5 -230v-672q0 -180 -100.5 -293t-288.5 -113q-207 0 -342 90q-39 -37 -97.5 -55t-144.5 -18h-162l25 309h86q45 0 66.5 14.5t29.5 46.5h289 q14 -61 69 -61q53 0 54 63v658q0 80 -31 113.5t-113 33.5t-155 -32v-5l202 -73v-195q-41 -14 -55 -39.5t-14 -75.5v-149q0 -94 -66.5 -153.5t-171.5 -59.5h-360z" />
<glyph unicode="&#xe10;" horiz-adv-x="1269" d="M31 334l18 340h402l120 -322q37 29 57.5 81t20.5 126q0 123 -53 175t-190 52q-80 0 -181.5 -15t-191.5 -40v318q113 39 244 58t243 19q119 0 228 -20h501l-24 -340h-113q43 -104 43 -209q0 -184 -82 -315t-214 -196.5t-281 -65.5q-84 0 -169 13t-124 34l-115 307h-139z M45 -457l16 324h164q43 0 60.5 11t27.5 44h273q16 -68 86 -67q33 0 53 17t20 46v49h379v-59q0 -102 -45 -185t-134 -132.5t-212 -49.5q-170 0 -268 72q-33 -35 -83 -52.5t-101 -17.5h-236z" />
<glyph unicode="&#xe11;" horiz-adv-x="1329" d="M31 684v422h262v-57q33 23 84 40t106 17q92 0 158 -45q41 29 108.5 47t137.5 18q178 0 274 -96t96 -280v-750h-493v754q0 14 -5 20t-18 6q-6 0 -14 -3t-10 -7q0 -78 -13.5 -130t-41.5 -120q-27 -59 -39.5 -106t-12.5 -113v-301h-495v297q0 86 35.5 154.5t101.5 156.5 q39 51 56.5 80t17.5 53q0 39 -33 39q-20 0 -35 -20v-76h-227z" />
<glyph unicode="&#xe12;" horiz-adv-x="2072" d="M31 522q0 299 118.5 451.5t311.5 152.5q76 0 134 -24.5t110 -79.5q51 53 127.5 78.5t156.5 25.5q147 0 239.5 -78.5t92.5 -207.5v-455q12 -16 45 -28.5t55 -12.5q45 0 64.5 21.5t19.5 68.5v672h496v-750q0 -178 -106.5 -277t-276.5 -99q-178 0 -318 86l-14 -66h-438v633 q0 41 -10.5 57.5t-36.5 16.5q-16 0 -30.5 -10.5t-22.5 -26.5h-95q-18 37 -49 37q-33 0 -52.5 -47.5t-19.5 -137.5q0 -109 28 -154.5t104 -45.5q55 0 102 18v-315q-90 -45 -238 -45q-235 0 -366 130t-131 412z" />
<glyph unicode="&#xe13;" horiz-adv-x="1976" d="M31 625v317q276 184 594 184q324 0 462 -129t138 -331v-232q0 -47 19.5 -68.5t64.5 -21.5q23 0 55.5 12.5t44.5 28.5v721h496v-1106h-461l-14 66q-139 -86 -318 -86q-170 0 -276.5 99t-106.5 277v279q0 82 -26.5 114.5t-106.5 32.5q-74 0 -147 -32v-5l202 -73v-195 q-94 -31 -94 -121v-18q0 -51 51 -51h47v-287h-385q-102 0 -160.5 58.5t-58.5 154.5v133q0 68 40 131.5t106 87.5z" />
<glyph unicode="&#xe14;" horiz-adv-x="1366" d="M31 504q0 311 162.5 466.5t504.5 155.5q303 0 449.5 -127t146.5 -323v-676h-473v580q0 61 -27.5 94t-107.5 33t-114.5 -47.5t-34.5 -155.5q0 -104 25.5 -143t101.5 -39q55 0 102 18v-315q-90 -45 -238 -45q-237 0 -367 121.5t-130 402.5z" />
<glyph unicode="&#xe15;" horiz-adv-x="1392" d="M31 522q0 299 118.5 451.5t311.5 152.5q76 0 134 -24.5t110 -79.5q51 53 127.5 78.5t156.5 25.5q147 0 239.5 -78.5t92.5 -207.5v-840h-473v633q0 41 -10.5 57.5t-36.5 16.5q-16 0 -30.5 -10.5t-22.5 -26.5h-95q-18 37 -49 37q-33 0 -52.5 -47.5t-19.5 -137.5 q0 -109 28 -154.5t104 -45.5q55 0 102 18v-315q-90 -45 -238 -45q-235 0 -366 130t-131 412z" />
<glyph unicode="&#xe16;" horiz-adv-x="1335" d="M31 625v317q119 80 272.5 132t329.5 52q223 0 363.5 -63.5t204 -166.5t63.5 -230v-666h-516v635q0 80 -31 113.5t-113 33.5t-155 -32v-5l202 -73v-195q-94 -31 -94 -121v-18q0 -51 51 -51h47v-287h-385q-102 0 -160.5 58.5t-58.5 154.5v133q0 68 40 131.5t106 87.5z" />
<glyph unicode="&#xe17;" horiz-adv-x="1339" d="M72 0v1106h460l15 -66q61 37 150 61.5t188 24.5q180 0 281.5 -97t101.5 -279v-750h-496v672q0 90 -94 90q-25 0 -61.5 -12.5t-49.5 -28.5v-721h-495z" />
<glyph unicode="&#xe18;" horiz-adv-x="1161" d="M31 786q0 164 133 252t436 88q147 0 270 -14t191 -35v-321q-61 27 -169 43t-190 16q-92 0 -128.5 -5t-36.5 -30q0 -18 54 -35.5t163 -44.5l102 -24q150 -39 212 -113t62 -211q0 -182 -140 -277t-398 -95q-154 0 -300.5 27.5t-242.5 72.5v360h412v-116q14 -6 47 -9.5 t57 -3.5q111 0 111 54q0 33 -62.5 54t-216.5 56l-59 12q-158 35 -232.5 106t-74.5 193z" />
<glyph unicode="&#xe19;" horiz-adv-x="1339" d="M72 356v750h495v-672q0 -90 95 -90q25 0 61.5 12.5t48.5 28.5v721h496v-1106h-461l-14 66q-61 -37 -150.5 -61.5t-187.5 -24.5q-170 0 -276.5 99t-106.5 277z" />
<glyph unicode="&#xe1a;" horiz-adv-x="1359" d="M72 500v606h495v-584q0 -80 23.5 -111.5t89.5 -31.5t89.5 31.5t23.5 111.5v584h495v-606q0 -256 -166 -388t-442 -132q-277 0 -442.5 132t-165.5 388z" />
<glyph unicode="&#xe1b;" horiz-adv-x="1359" d="M72 500v606h495v-584q0 -80 23.5 -111.5t89.5 -31.5t89.5 31.5t23.5 111.5v912h495v-934q0 -256 -166 -388t-442 -132q-277 0 -442.5 132t-165.5 388z" />
<glyph unicode="&#xe1c;" horiz-adv-x="1351" d="M72 0v922q0 78 41 131t116 53h389l17 -283h-84q-55 0 -55 -59v-184l106 188h148l106 -188v526h424v-1106h-414l-190 348l-191 -348h-413z" />
<glyph unicode="&#xe1d;" horiz-adv-x="1351" d="M72 0v922q0 78 41 131t116 53h389l17 -283h-84q-55 0 -55 -59v-184l106 188h148l106 -188v854h424v-1434h-414l-190 348l-191 -348h-413z" />
<glyph unicode="&#xe1e;" horiz-adv-x="1550" d="M10 1106h430l103 -414l41 164v250h344l88 -414l96 414h428l-268 -1106h-402l-92 365l-100 -365h-399z" />
<glyph unicode="&#xe1f;" horiz-adv-x="1550" d="M10 1106h430l103 -414l41 164v250h344l88 -414l135 742h428l-307 -1434h-402l-92 365l-100 -365h-399z" />
<glyph unicode="&#xe20;" horiz-adv-x="1382" d="M31 0v307h41q51 0 51 51v23q0 137 121 184l-166 60v317q119 80 272.5 132t329.5 52q223 0 363.5 -63.5t204 -166.5t63.5 -230v-666h-516v635q0 80 -31 113.5t-113 33.5t-155 -32v-5l202 -73v-195q-41 -14 -55 -39.5t-14 -75.5v-149q0 -96 -58.5 -154.5t-160.5 -58.5h-379 z" />
<glyph unicode="&#xe21;" horiz-adv-x="1339" d="M72 0v1106h495v-721q12 -16 49 -28.5t62 -12.5q94 0 94 90v672h496v-750q0 -178 -106.5 -277t-276.5 -99q-99 0 -188 24.5t-150 61.5l-15 -66h-460z" />
<glyph unicode="&#xe22;" horiz-adv-x="1345" d="M31 369q0 63 24.5 115.5t65.5 86.5q-84 80 -84 203q0 174 113.5 263t332.5 89q147 0 244 -36v-271q-47 10 -98 10q-86 0 -86 -55q0 -27 17.5 -40t45.5 -13h90v-287h-92q-31 0 -48 -15.5t-17 -41.5q0 -31 26.5 -48.5t89.5 -17.5q59 0 91 27t32 76v692h496v-688 q0 -215 -163 -326.5t-456 -111.5q-307 0 -465.5 105t-158.5 284z" />
<glyph unicode="&#xe23;" horiz-adv-x="1038" d="M31 772q0 162 133 258t391 96q104 0 219 -14t180 -35v-321q-63 27 -144 43t-140 16q-66 0 -99.5 -9t-33.5 -34q0 -27 31.5 -44t109.5 -42q2 -2 61 -22q104 -39 163 -82t82.5 -102.5t23.5 -149.5q0 -158 -134.5 -254t-384.5 -96q-137 0 -261 19t-189 50v324 q72 -35 177.5 -58.5t174.5 -23.5q57 0 84 8t27 31q0 27 -29 43t-100 43q-14 4 -90 33q-135 55 -193.5 127.5t-58.5 195.5z" />
<glyph unicode="&#xe24;" horiz-adv-x="1335" d="M31 625v317q119 80 272.5 132t329.5 52q223 0 363.5 -63.5t204 -166.5t63.5 -230v-994h-516v963q0 80 -31 113.5t-113 33.5t-155 -32v-5l202 -73v-195q-94 -31 -94 -121v-18q0 -51 51 -51h47v-287h-385q-102 0 -160.5 58.5t-58.5 154.5v133q0 68 40 131.5t106 87.5z" />
<glyph unicode="&#xe25;" horiz-adv-x="1271" d="M31 326q0 186 114.5 287.5t337.5 101.5h244v22q0 55 -195 56q-88 0 -192 -15.5t-197 -44.5v316q92 37 229.5 57t268.5 20q276 0 417.5 -119.5t141.5 -359.5v-647h-473v426h-102q-47 0 -67.5 -17.5t-20.5 -60.5q0 -72 63 -72q31 0 70 11v-271q-96 -37 -244 -36 q-178 0 -286.5 81.5t-108.5 264.5z" />
<glyph unicode="&#xe26;" horiz-adv-x="1382" d="M31 0v307h41q51 0 51 51v23q0 70 27.5 115t93.5 69l-166 60v317q119 80 272.5 132t329.5 52q223 0 363.5 -63.5t204 -166.5t63.5 -230v-994h-516v963q0 80 -31 113.5t-113 33.5t-155 -32v-5l202 -73v-195q-41 -14 -55 -39.5t-14 -75.5v-149q0 -96 -58.5 -154.5 t-160.5 -58.5h-379z" />
<glyph unicode="&#xe27;" horiz-adv-x="1130" d="M31 61v426q76 -41 166 -64.5t165 -23.5q125 0 178.5 32t53.5 122t-53.5 122t-173.5 32q-86 0 -173.5 -17.5t-158.5 -52.5v407q201 82 457 82q311 0 459.5 -135t148.5 -438q0 -305 -149.5 -439t-463.5 -134q-282 -1 -456 81z" />
<glyph unicode="&#xe28;" horiz-adv-x="1417" d="M72 0v627q0 254 164.5 376.5t443.5 122.5q109 0 211 -22v2h506l-25 -340h-112q29 -68 28 -168v-598h-495v584q0 72 -24 97.5t-89 25.5q-66 0 -89.5 -26t-23.5 -97v-54q43 18 88 19h82l-2 -340h-80q-53 0 -88 -16v-193h-495z" />
<glyph unicode="&#xe29;" horiz-adv-x="1382" d="M72 500v606h495v-584q0 -80 23.5 -111.5t89.5 -31.5t89.5 31.5t23.5 111.5v27h-121v340h121v217h495v-217h94l-28 -340h-66v-49q0 -256 -166 -388t-442 -132q-277 0 -442.5 132t-165.5 388z" />
<glyph unicode="&#xe2a;" horiz-adv-x="1329" d="M31 328q0 186 114.5 286.5t337.5 100.5h244v22q0 55 -195 56q-88 0 -192 -15.5t-197 -44.5v316q92 37 229.5 57t268.5 20q102 0 205 -20h463l-25 -340h-108q25 -55 24 -160v-606h-473v426h-102q-47 0 -67.5 -17.5t-20.5 -60.5q0 -72 63 -72q31 0 70 11v-271 q-96 -37 -244 -36q-178 0 -286.5 82.5t-108.5 265.5z" />
<glyph unicode="&#xe2b;" horiz-adv-x="1306" d="M72 0v1106h495v-268h88q84 0 84 96v172h496v-225q0 -76 -26.5 -136.5t-78.5 -93.5q104 -63 105 -223v-428h-496v362q0 96 -84 97h-88v-459h-495z" />
<glyph unicode="&#xe2c;" horiz-adv-x="1550" d="M10 1106h430l103 -414l47 164v121h332l94 -285l43 191q8 31 8 59q0 47 -26.5 68.5t-79.5 21.5h-41l43 250h69q61 0 90 24.5t41 79.5l11 48h415l-22 -99q-35 -158 -154 -196q72 -49 72 -148q0 -43 -12 -96l-201 -895h-402l-92 365l-100 -365h-399z" />
<glyph unicode="&#xe2d;" horiz-adv-x="1259" d="M41 80v592h565l17 -283h-140v-67q37 -10 97 -11q82 0 112.5 55.5t30.5 178.5q0 139 -62.5 190t-201.5 51q-88 0 -200 -15t-206 -44v322q111 37 258.5 57t266.5 20q340 0 495.5 -139t155.5 -442q0 -565 -658 -565q-151 0 -291.5 27.5t-238.5 72.5z" />
<glyph unicode="&#xe2e;" horiz-adv-x="1347" d="M41 80v592h565l17 -283h-140v-67q37 -10 97 -11q82 0 112.5 55.5t30.5 178.5q0 139 -62.5 190t-201.5 51q-88 0 -200 -15t-206 -44v322q111 37 258.5 57t266.5 20q123 0 241 -20h508l-24 -340h-123q49 -98 49 -221q0 -565 -658 -565q-151 0 -291.5 27.5t-238.5 72.5z" />
<glyph unicode="&#xe2f;" horiz-adv-x="1271" d="M31 758q0 98 16 179t53 169h498q-33 -68 -47 -134.5t-14 -152.5q0 -125 96 -125q27 0 53.5 7.5t40.5 17.5v387h473v-1106h-473v420q-37 -16 -113.5 -31.5t-154.5 -15.5q-201 0 -314.5 97t-113.5 288z" />
<glyph unicode="&#xe30;" horiz-adv-x="669" d="M31 72v415h350v-96h258l-10 -319h-598zM31 586v415h350v-96h258l-14 -319h-594z" />
<glyph unicode="&#xe31;" d="M-752 1186v432h351v-133h469l-15 -299h-805z" />
<glyph unicode="&#xe32;" horiz-adv-x="952" d="M0 668v376q66 35 167 58.5t202 23.5q262 0 387 -118.5t125 -352.5v-655h-453v578q0 76 -37 111.5t-121 35.5q-137 0 -270 -57z" />
<glyph unicode="&#xe33;" horiz-adv-x="952" d="M-629 1462q0 129 90 211t224 82q133 0 223 -82t90 -211t-90 -211t-223 -82q-134 0 -224 82t-90 211zM-381 1462q0 -27 19.5 -46t46.5 -19q26 0 45.5 19.5t19.5 45.5q0 27 -19.5 46.5t-45.5 19.5q-27 0 -46.5 -19.5t-19.5 -46.5zM0 668v376q66 35 167 58.5t202 23.5 q262 0 387 -118.5t125 -352.5v-655h-453v578q0 76 -37 111.5t-121 35.5q-137 0 -270 -57z" />
<glyph unicode="&#xe34;" d="M-1128 1188l22 325h1034v-325h-1056z" />
<glyph unicode="&#xe35;" d="M-1128 1188l22 325h643v146h391v-471h-1056z" />
<glyph unicode="&#xe36;" d="M-1128 1188l22 325h553q14 74 80.5 124.5t175.5 50.5q139 0 205.5 -69t66.5 -181q0 -106 -74.5 -178t-199.5 -72h-829zM-348 1436q0 -29 19.5 -47.5t47.5 -18.5q29 0 47.5 18.5t18.5 47.5t-18.5 48t-47.5 19t-48 -19.5t-19 -47.5z" />
<glyph unicode="&#xe37;" d="M-1128 1188l22 325h285v146h332v-146h86v146h331v-471h-1056z" />
<glyph unicode="&#xe38;" d="M-582 -352l15 297h495v-477h-389v180h-121z" />
<glyph unicode="&#xe39;" d="M-952 -332l14 277h434v-160q0 -53 49 -53q51 0 52 53v160h333v-199q0 -135 -91 -223t-294 -88q-176 0 -276 61.5t-100 157.5v14h-121z" />
<glyph unicode="&#xe3a;" d="M-516 -262q0 90 62.5 151.5t152.5 61.5t153.5 -61.5t63.5 -151.5q0 -88 -63.5 -149.5t-153.5 -61.5t-152.5 61.5t-62.5 149.5z" />
<glyph unicode="&#xe3f;" horiz-adv-x="1355" d="M72 0v1319h262v176h430v-176h90q203 0 314.5 -97.5t111.5 -275.5q0 -94 -33 -164.5t-90 -113.5q84 -41 126 -100.5t42 -168.5q0 -186 -123 -292.5t-340 -106.5h-98v-176h-430v176h-262zM537 336h184q98 0 98 88q0 39 -24.5 60.5t-73.5 21.5h-184v-170zM537 813h184 q98 0 98 88q0 39 -24.5 60.5t-73.5 21.5h-184v-170z" />
<glyph unicode="&#xe40;" horiz-adv-x="716" d="M72 213v893h506v-748q0 -51 51 -51h57v-307h-395q-103 0 -161 58.5t-58 154.5z" />
<glyph unicode="&#xe41;" horiz-adv-x="1331" d="M72 213v893h485v-748q0 -51 51 -51h58v-307h-375q-103 0 -161 58.5t-58 154.5zM707 213v893h485v-748q0 -51 51 -51h57v-307h-374q-103 0 -161 58.5t-58 154.5z" />
<glyph unicode="&#xe42;" horiz-adv-x="702" d="M-61 1153v268h794v-307h-198q25 -29 38 -72t13 -92v-592q0 -51 51 -51h57v-307h-362q-103 0 -161 58.5t-58 154.5v715q0 195 -174 225z" />
<glyph unicode="&#xe43;" horiz-adv-x="679" d="M-72 1014v321q160 92 398 92q182 0 283.5 -70.5t101.5 -207.5q0 -70 -27 -122t-78 -118q-47 -61 -71.5 -109t-24.5 -108v-334q0 -51 51 -51h57v-307h-362q-102 0 -160.5 58.5t-58.5 154.5v463q0 72 24.5 123t73.5 121q29 39 42 62.5t13 45.5q0 41 -65 41q-106 0 -197 -55 z" />
<glyph unicode="&#xe44;" horiz-adv-x="696" d="M-61 1114v307h788v-268q-86 -14 -127 -70.5t-41 -154.5v-570q0 -51 51 -51h58v-307h-363q-102 0 -160.5 58.5t-58.5 154.5v737q0 49 13.5 92t37.5 72h-198z" />
<glyph unicode="&#xe45;" horiz-adv-x="952" d="M0 668v376q66 35 167 58.5t202 23.5q262 0 387 -118.5t125 -352.5v-983h-453v906q0 76 -37 111.5t-121 35.5q-137 0 -270 -57z" />
<glyph unicode="&#xe46;" horiz-adv-x="1382" d="M31 633q0 244 108.5 368.5t290.5 124.5q76 0 134.5 -24.5t109.5 -79.5q51 53 128 78.5t156 25.5q147 0 239.5 -78.5t92.5 -207.5v-840h-473v639q0 39 -10 53.5t-37 14.5q-16 0 -30.5 -10.5t-22.5 -26.5h-94q-18 37 -50 37q-41 0 -41 -78q0 -39 29 -55.5t94 -16.5 q61 0 107 18v-315q-41 -20 -112.5 -32.5t-149.5 -12.5q-217 0 -343 106.5t-126 311.5z" />
<glyph unicode="&#xe47;" d="M-1102 1460q0 131 88 214t242 83h563l-18 -235h-506q-31 0 -50.5 -17.5t-19.5 -48.5q0 -29 17.5 -44t44.5 -15q31 0 48 19.5t17 49.5v9h232v-9q0 -63 63 -63h135v-236h-157q-53 0 -98.5 16.5t-63.5 47.5q-20 -31 -90 -49.5t-131 -18.5q-144 0 -230 79t-86 218z" />
<glyph unicode="&#xe48;" d="M-565 1171v355h495v-355h-495z" />
<glyph unicode="&#xe49;" d="M-827 1333v307h456v-161h420l-18 -308h-703v162h-155z" />
<glyph unicode="&#xe4a;" d="M-1034 1415q0 113 65.5 181.5t180.5 68.5q53 0 91 -16.5t54 -44.5h2q20 29 60 45t89 16q111 0 163.5 -49t52.5 -129v-98h10q14 0 18 6t4 24v230h238v-238q0 -102 -61.5 -161.5t-165.5 -59.5h-250v221q0 43 -31 43q-33 0 -33 -39v-18h-166v18q0 39 -28 39q-33 0 -33 -43 q0 -47 53 -47h78v-193h-109q-125 0 -203.5 63.5t-78.5 180.5z" />
<glyph unicode="&#xe4b;" d="M-698 1249v295h116v76h394v-76h114v-295h-114v-78h-394v78h-116z" />
<glyph unicode="&#xe4c;" d="M-700 1180v413h675l-14 -309h-321v-104h-340z" />
<glyph unicode="&#xe4d;" d="M-629 1462q0 129 90 211t224 82q133 0 223 -82t90 -211t-90 -211t-223 -82q-134 0 -224 82t-90 211zM-381 1462q0 -27 19.5 -46t46.5 -19q26 0 45.5 19.5t19.5 45.5q0 27 -19.5 46.5t-45.5 19.5q-27 0 -46.5 -19.5t-19.5 -46.5z" />
<glyph unicode="&#xe4e;" d="M-733 1323q0 125 149 156q-16 27 -16 75q0 63 66.5 105.5t211.5 42.5q41 0 86.5 -6t71.5 -17v-145q-23 12 -54.5 18.5t-57.5 6.5q-33 0 -48.5 -6.5t-15.5 -20.5t16.5 -20.5t55.5 -12.5v-135q-18 8 -47 14t-52 6q-33 0 -49 -7t-16 -27q0 -33 57 -33q35 0 73 7t60 19v-151 q-49 -33 -194 -33q-297 0 -297 164z" />
<glyph unicode="&#xe4f;" horiz-adv-x="1196" d="M31 547q0 154 75.5 285t205.5 206.5t286 75.5q154 0 284 -76.5t206.5 -207t76.5 -283.5q0 -156 -75.5 -286t-206.5 -205.5t-285 -75.5q-156 0 -286 75.5t-205.5 205.5t-75.5 286zM324 547q0 -74 36.5 -137.5t100 -100.5t137.5 -37t137.5 37t100 100.5t36.5 137.5 t-36.5 137.5t-100 100t-137.5 36.5t-137.5 -36.5t-100 -100t-36.5 -137.5zM383 547q0 90 63.5 152.5t151.5 62.5q90 0 152.5 -62.5t62.5 -152.5q0 -88 -62.5 -151.5t-152.5 -63.5q-88 0 -151.5 63.5t-63.5 151.5zM549 547q0 -20 14.5 -34.5t34.5 -14.5q23 0 36 14t13 35 q0 23 -13 36t-36 13q-20 0 -34.5 -13.5t-14.5 -35.5z" />
<glyph unicode="&#xe50;" horiz-adv-x="1245" d="M31 485q0 254 163.5 380t428.5 126q262 0 426.5 -126t164.5 -380q0 -256 -162.5 -380.5t-428.5 -124.5q-267 0 -429.5 124.5t-162.5 380.5zM496 485q0 -80 31.5 -115.5t95.5 -35.5q67 0 96 34.5t29 116.5t-29 117t-96 35q-63 0 -95 -36t-32 -116z" />
<glyph unicode="&#xe51;" horiz-adv-x="1284" d="M31 541q0 223 155.5 336.5t448.5 113.5q311 0 464.5 -133t153.5 -409q0 -262 -161.5 -441.5t-466.5 -234.5v338q86 29 126 75.5t49 107t9 169.5q0 174 -174 174q-78 0 -114 -19.5t-36 -70.5q0 -90 111 -90q70 0 125 28v-290q-43 -25 -117 -42.5t-147 -17.5 q-203 0 -314.5 100.5t-111.5 305.5z" />
<glyph unicode="&#xe52;" horiz-adv-x="1521" d="M72 489v617h374v-516q0 -158 74 -251t287 -93q158 0 218 59.5t60 130.5v221q0 41 -36 41q-16 0 -25.5 -13t-9.5 -34v-33h-154v37q0 43 -31 43q-45 0 -45 -80q0 -41 23.5 -56t77.5 -15q57 0 102 18v-237q-35 -20 -87 -30.5t-107 -10.5q-158 0 -236 76.5t-78 261.5 q0 193 68.5 279.5t200.5 86.5q70 0 118.5 -20.5t79.5 -71.5q41 51 98.5 71.5t135.5 20.5q147 0 208.5 -75.5t61.5 -227.5v-225q0 -213 -150.5 -348t-492.5 -135q-352 0 -543.5 128t-191.5 381z" />
<glyph unicode="&#xe53;" horiz-adv-x="1355" d="M31 461q0 266 109.5 398t283.5 132q76 0 134 -24.5t110 -79.5q51 53 127.5 78.5t156.5 25.5q158 0 245 -90t87 -237v-664h-420v551q0 39 -45 39q-16 0 -29.5 -13.5t-13.5 -33.5v-109h-235v113q0 18 -11.5 30.5t-27.5 12.5q-57 0 -58 -135q0 -72 42 -102.5t128 -30.5 q82 0 136 14v-318q-102 -39 -244 -38q-219 0 -347 120.5t-128 360.5z" />
<glyph unicode="&#xe54;" horiz-adv-x="1253" d="M31 453q0 266 170 402t526 136q180 0 293 18.5t207 69.5v-323q-82 -39 -207 -60.5t-270 -21.5q-129 0 -188.5 -50.5t-59.5 -170.5q0 -76 21.5 -120t54.5 -44h12v35q0 160 89 238.5t273 78.5q84 0 139.5 -9t122.5 -38v-250q-41 16 -74.5 23.5t-78.5 7.5q-43 0 -66.5 -14.5 t-23.5 -36.5q0 -20 14 -32.5t41 -12.5h238v-279h-246q-141 0 -227 29q-113 -49 -261 -49q-231 0 -365 114.5t-134 358.5z" />
<glyph unicode="&#xe55;" horiz-adv-x="1253" d="M31 436q0 170 102.5 294t276.5 177q-27 12 -61 33t-50 37l131 209q115 -92 221.5 -141.5t245.5 -49.5q98 0 176 20.5t154 63.5v-323q-82 -39 -207 -60.5t-270 -21.5q-139 0 -193.5 -51.5t-54.5 -176.5q0 -76 21.5 -116.5t54.5 -40.5h12v35q0 158 92 237.5t270 79.5 q84 0 139.5 -9t122.5 -38v-250q-41 16 -74.5 23.5t-78.5 7.5q-43 0 -66.5 -14.5t-23.5 -36.5q0 -20 14 -32.5t41 -12.5h238v-279h-246q-141 0 -227 29q-113 -49 -261 -49q-499 -1 -499 456z" />
<glyph unicode="&#xe56;" horiz-adv-x="1308" d="M-10 1106h401l55 -209q49 43 139.5 68.5t178.5 25.5q258 0 386 -138t128 -366q0 -246 -162 -376.5t-461 -130.5q-231 -1 -397 77v342q78 -35 172 -50t180 -15q92 0 146.5 39t54.5 114q0 68 -41 109t-115 41t-121 -42t-59 -126h-274z" />
<glyph unicode="&#xe57;" horiz-adv-x="1740" d="M31 461q0 266 107.5 398t279.5 132q76 0 134 -24.5t110 -79.5q98 104 264 104q291 0 291 -303v-334h18q27 0 38 12.5t11 41.5v698h385v-653q0 -227 -104.5 -340t-333.5 -113h-389v532q0 39 -37 39q-16 0 -25.5 -13t-9.5 -34v-90h-235v94q0 43 -29 43t-38 -25.5t-9 -90.5 q0 -70 34.5 -101.5t106.5 -31.5q31 0 77 5t66 13v-315q-90 -45 -237 -45q-221 0 -348 121.5t-127 359.5z" />
<glyph unicode="&#xe58;" horiz-adv-x="1267" d="M31 453q0 266 172 402t528 136q180 0 293 18.5t207 69.5v-323q-82 -39 -208 -60.5t-282 -21.5q-127 0 -193.5 -22.5t-91 -69.5t-24.5 -129q0 -92 13.5 -126t43.5 -34q25 0 40.5 13t15.5 34v145h235v-149q0 -20 13.5 -31.5t35.5 -11.5q43 0 56 35v73h-66l21 232h397v-522 q-49 -68 -115.5 -99.5t-181.5 -31.5q-88 0 -154.5 24.5t-117.5 79.5q-53 -57 -116 -80.5t-159 -23.5q-176 0 -269 125.5t-93 347.5z" />
<glyph unicode="&#xe59;" horiz-adv-x="1544" d="M31 463q0 266 107.5 397t314.5 131q170 0 229 -110q33 55 100.5 82.5t147.5 27.5q123 0 186.5 -54t63.5 -130v-14h6q25 0 34 23.5t9 101.5v147h325v-82q0 -190 -35.5 -299t-117.5 -158t-230 -49h-198v94q0 45 -8.5 63.5t-30.5 18.5q-33 0 -33 -41q0 -27 8 -53l170 -559 h-385l-186 608q-8 27 -17.5 36t-27.5 9q-29 0 -39 -43t-10 -157q0 -100 23.5 -138.5t68.5 -38.5q29 0 74 15v-297q-59 -14 -146 -14q-182 0 -292.5 120.5t-110.5 362.5z" />
<glyph unicode="&#xe5a;" horiz-adv-x="1873" d="M31 758q0 178 69 348h498q-31 -76 -46 -141.5t-15 -145.5q0 -66 21.5 -95.5t70.5 -29.5q61 0 98 25v387h473v-393q14 -18 57 -19q41 0 72 25v387h473v-1106h-473v418q-12 -12 -31.5 -20.5t-37.5 -8.5q-37 0 -60 8v-397h-473v420q-43 -20 -109.5 -33.5t-146.5 -13.5 q-217 0 -328.5 96t-111.5 289z" />
<glyph unicode="&#xe5b;" horiz-adv-x="2394" d="M31 584q0 158 60.5 280.5t177 192t276.5 69.5q221 0 347 -103t126 -282q0 -180 -98.5 -265t-282.5 -111v235q55 18 74.5 46t19.5 81q0 51 -42 83t-122 32q-94 0 -145 -59.5t-51 -178.5q0 -131 62.5 -202.5t187.5 -71.5q209 0 332.5 102.5t123.5 296.5q0 111 -12 229h293 q33 -43 55.5 -88t52.5 -118h4q35 82 52 176h209q37 -74 61 -174h4q33 74 41 131h182q27 -47 43 -125h4q23 43 27 98h201q4 -51 -10 -92h79l-14 -238h-127q-33 -82 -80 -143h-155q-10 33 -29 57h-4q-12 -57 -41 -110h-221q-16 63 -56 143h-4q-12 -59 -22.5 -95t-30.5 -93 h-219q-16 106 -53 186h-4q-55 -199 -238.5 -313.5t-443.5 -114.5q-175 0 -308 61.5t-207.5 183.5t-74.5 294z" />
<glyph unicode="&#x1e0c;" horiz-adv-x="1413" d="M72 0v1319h626q684 0 684 -668q0 -334 -177 -492.5t-507 -158.5h-626zM471 -147h320v-289h-320v289zM567 377h74q121 0 179.5 56t58.5 218q0 111 -26 168.5t-76 75.5t-136 18h-74v-536z" />
<glyph unicode="&#x1e0d;" horiz-adv-x="1286" d="M31 455q0 264 130 400t347 136q53 0 112.5 -10t98.5 -27v426h495v-1380h-430l-22 63q-57 -41 -123 -62t-150 -21q-458 0 -458 475zM418 -147h319v-289h-319v289zM537 459q0 -80 22.5 -102.5t73.5 -22.5q26 0 45.5 7t40.5 24v241q-20 16 -40 23.5t-46 7.5q-45 0 -70.5 -46 t-25.5 -132z" />
<glyph unicode="&#x1e0e;" horiz-adv-x="1413" d="M72 0v1319h626q684 0 684 -668q0 -334 -177 -492.5t-507 -158.5h-626zM188 -106h715v-287h-715v287zM567 377h74q121 0 179.5 56t58.5 218q0 111 -26 168.5t-76 75.5t-136 18h-74v-536z" />
<glyph unicode="&#x1e0f;" horiz-adv-x="1286" d="M31 455q0 264 130 400t347 136q53 0 112.5 -10t98.5 -27v426h495v-1380h-430l-22 63q-57 -41 -123 -62t-150 -21q-458 0 -458 475zM352 -106h715v-287h-715v287zM537 459q0 -80 22.5 -102.5t73.5 -22.5q26 0 45.5 7t40.5 24v241q-20 16 -40 23.5t-46 7.5q-45 0 -70.5 -46 t-25.5 -132z" />
<glyph unicode="&#x1e20;" horiz-adv-x="1357" d="M31 659q0 334 205.5 507t597.5 173q129 0 230 -14t193 -45v-422q-164 63 -391 64q-156 0 -242.5 -60.5t-86.5 -202.5q0 -143 63.5 -202.5t194.5 -59.5q66 0 123 15v80h-220v299h629v-682q-94 -57 -226 -93t-302 -36q-375 0 -571.5 172t-196.5 507zM446 1470v287h715v-287 h-715z" />
<glyph unicode="&#x1e21;" horiz-adv-x="1200" d="M31 166q0 70 43 119t119 71q-84 43 -120 104.5t-36 162.5q0 186 136 277t394 91q51 0 123 -7t105 -13h395l-8 -293h-107q12 -33 12 -62q0 -156 -83.5 -237.5t-266.5 -81.5q-47 0 -104 4q-76 -4 -76 -37q0 -16 13.5 -21t39.5 -5h172q158 0 247 -69t89 -208 q0 -150 -144.5 -235.5t-445.5 -85.5q-127 0 -262 12t-200 37v282q76 -25 197.5 -38t234.5 -13q197 0 196 33q0 14 -20.5 18t-65.5 4h-233q-172 0 -258 46.5t-86 144.5zM223 1130v287h715v-287h-715zM471 643q0 -43 22.5 -61.5t77.5 -18.5q56 0 78.5 18.5t22.5 61.5 q0 45 -23.5 64.5t-77.5 19.5q-53 0 -76.5 -19.5t-23.5 -64.5z" />
<glyph unicode="&#x1e24;" horiz-adv-x="1464" d="M72 0v1319h495v-430h330v430h496v-1319h-496v430h-330v-430h-495zM569 -147h320v-289h-320v289z" />
<glyph unicode="&#x1e25;" horiz-adv-x="1282" d="M72 0v1380h495v-446q43 25 113 41t141 16q205 0 302.5 -96t97.5 -297v-598h-496v557q0 70 -68 70q-23 0 -49 -12.5t-41 -28.5v-586h-495zM475 -147h320v-289h-320v289z" />
<glyph unicode="&#x1e2a;" horiz-adv-x="1464" d="M72 0v1319h495v-430h330v430h496v-1319h-496v430h-330v-430h-495zM283 -82h317q0 -78 31 -129t102 -51q72 0 103.5 51t31.5 129h318q0 -217 -122 -333.5t-331 -116.5t-329.5 117.5t-120.5 332.5z" />
<glyph unicode="&#x1e2b;" horiz-adv-x="1282" d="M72 0v1380h495v-446q43 25 113 41t141 16q205 0 302.5 -96t97.5 -297v-598h-496v557q0 70 -68 70q-23 0 -49 -12.5t-41 -28.5v-586h-495zM207 -82h317q0 -78 31 -129t102 -51q72 0 104 51t32 129h317q0 -217 -122 -333.5t-331 -116.5q-208 0 -329 117.5t-121 332.5z" />
<glyph unicode="&#x1e36;" horiz-adv-x="1095" d="M72 0v1319h495v-942h539v-377h-1034zM408 -147h319v-289h-319v289z" />
<glyph unicode="&#x1e37;" horiz-adv-x="751" d="M72 332v1048h495v-983q0 -39 15.5 -57t56.5 -18q57 0 102 18v-307q-70 -29 -127 -41t-153 -12q-211 0 -300 83.5t-89 268.5zM246 -147h319v-289h-319v289z" />
<glyph unicode="&#x1e38;" horiz-adv-x="1103" d="M-39 1470v287h715v-287h-715zM80 0v1319h495v-942h539v-377h-1034zM412 -147h319v-289h-319v289z" />
<glyph unicode="&#x1e39;" horiz-adv-x="751" d="M-35 1495v287h715v-287h-715zM72 332v1048h495v-983q0 -39 15.5 -57t56.5 -18q57 0 102 18v-307q-70 -29 -127 -41t-153 -12q-211 0 -300 83.5t-89 268.5zM246 -147h319v-289h-319v289z" />
<glyph unicode="&#x1e3a;" horiz-adv-x="1095" d="M72 0v1319h495v-942h539v-377h-1034zM209 -152h715v-286h-715v286z" />
<glyph unicode="&#x1e3b;" horiz-adv-x="751" d="M43 -152h715v-286h-715v286zM72 332v1048h495v-983q0 -39 15.5 -57t56.5 -18q57 0 102 18v-307q-70 -29 -127 -41t-153 -12q-211 0 -300 83.5t-89 268.5z" />
<glyph unicode="&#x1e42;" horiz-adv-x="1619" d="M72 0v1319h471l268 -545l266 545h471v-1319h-495v463l-117 -238h-252l-117 238v-463h-495zM651 -147h320v-289h-320v289z" />
<glyph unicode="&#x1e43;" horiz-adv-x="1779" d="M72 0v971h458l11 -60q141 80 299 80q84 0 134 -21.5t85 -68.5q70 45 149.5 67.5t180.5 22.5q172 0 250.5 -90t78.5 -276v-625h-485v565q0 33 -12.5 47.5t-44.5 14.5q-33 0 -58 -27v-600h-456v578q0 27 -10.5 38t-35.5 11q-39 0 -69 -37v-590h-475zM754 -147h319v-289 h-319v289z" />
<glyph unicode="&#x1e44;" horiz-adv-x="1423" d="M72 0v1319h415l369 -516v516h496v-1319h-418l-367 516v-516h-495zM547 1470v289h319v-289h-319z" />
<glyph unicode="&#x1e45;" horiz-adv-x="1282" d="M72 0v971h465l10 -56q57 31 149 53.5t193 22.5q172 0 252 -90t80 -276v-625h-496v561q0 66 -68 66q-23 0 -49 -12.5t-41 -28.5v-586h-495zM467 1130v289h319v-289h-319z" />
<glyph unicode="&#x1e46;" horiz-adv-x="1423" d="M72 0v1319h415l369 -516v516h496v-1319h-418l-367 516v-516h-495zM565 -147h320v-289h-320v289z" />
<glyph unicode="&#x1e47;" horiz-adv-x="1282" d="M72 0v971h465l10 -56q57 31 149 53.5t193 22.5q172 0 252 -90t80 -276v-625h-496v561q0 66 -68 66q-23 0 -49 -12.5t-41 -28.5v-586h-495zM483 -147h320v-289h-320v289z" />
<glyph unicode="&#x1e48;" horiz-adv-x="1423" d="M72 0v1319h415l369 -516v516h496v-1319h-418l-367 516v-516h-495zM352 -139h715v-287h-715v287z" />
<glyph unicode="&#x1e49;" horiz-adv-x="1282" d="M72 0v971h465l10 -56q57 31 149 53.5t193 22.5q172 0 252 -90t80 -276v-625h-496v561q0 66 -68 66q-23 0 -49 -12.5t-41 -28.5v-586h-495zM295 -139h715v-287h-715v287z" />
<glyph unicode="&#x1e5a;" horiz-adv-x="1343" d="M72 0v1319h741q244 0 372 -136t128 -358q0 -127 -64.5 -228t-169.5 -171q39 -27 56 -68l155 -358h-516l-129 293q-10 25 -22.5 34t-34.5 9h-21v-336h-495zM481 -147h320v-289h-320v289zM567 723h121q121 0 121 102q0 55 -27.5 81t-85.5 26h-129v-209z" />
<glyph unicode="&#x1e5b;" horiz-adv-x="878" d="M72 0v971h485l10 -56q57 31 144.5 53.5t177.5 22.5v-364q-82 0 -175 -11.5t-147 -29.5v-586h-495zM158 -147h319v-289h-319v289z" />
<glyph unicode="&#x1e5c;" horiz-adv-x="1343" d="M72 0v1319h741q244 0 372 -136t128 -358q0 -127 -64.5 -228t-169.5 -171q39 -27 56 -68l155 -358h-516l-129 293q-10 25 -22.5 34t-34.5 9h-21v-336h-495zM256 1470v287h715v-287h-715zM481 -147h320v-289h-320v289zM567 723h121q121 0 121 102q0 55 -27.5 81t-85.5 26 h-129v-209z" />
<glyph unicode="&#x1e5d;" horiz-adv-x="878" d="M72 0v971h485l10 -56q57 31 144.5 53.5t177.5 22.5v-364q-82 0 -175 -11.5t-147 -29.5v-586h-495zM72 1130v287h714v-287h-714zM158 -147h319v-289h-319v289z" />
<glyph unicode="&#x1e5e;" horiz-adv-x="1343" d="M72 0v1319h741q244 0 372 -136t128 -358q0 -127 -64.5 -228t-169.5 -171q39 -27 56 -68l155 -358h-516l-129 293q-10 25 -22.5 34t-34.5 9h-21v-336h-495zM283 -139h714v-287h-714v287zM567 723h121q121 0 121 102q0 55 -27.5 81t-85.5 26h-129v-209z" />
<glyph unicode="&#x1e5f;" horiz-adv-x="878" d="M-37 -139h715v-287h-715v287zM72 0v971h485l10 -56q57 31 144.5 53.5t177.5 22.5v-364q-82 0 -175 -11.5t-147 -29.5v-586h-495z" />
<glyph unicode="&#x1e60;" horiz-adv-x="1146" d="M31 928q0 209 144 310t435 101q96 0 223.5 -19.5t210.5 -43.5v-373q-195 80 -350 80q-158 0 -157 -51q0 -20 28.5 -33.5t114.5 -38.5l53 -14q158 -43 241 -105.5t112.5 -143.5t29.5 -202q0 -193 -150.5 -304t-437.5 -111q-141 0 -270 24.5t-215 67.5v370 q98 -47 218 -77.5t214 -30.5q61 0 96 15.5t35 43.5q0 25 -28.5 40.5t-106.5 41.5q-90 31 -102 35q-131 49 -203 102.5t-103.5 127t-31.5 188.5zM401 1470v289h320v-289h-320z" />
<glyph unicode="&#x1e61;" horiz-adv-x="1038" d="M31 674q0 317 524 317q98 0 218 -14t181 -35v-311q-66 27 -141.5 43t-132.5 16q-70 0 -106.5 -4t-36.5 -22q0 -10 22.5 -18.5t77.5 -22.5q53 -10 100 -25q106 -31 165 -68.5t82.5 -91t23.5 -135.5q0 -152 -133.5 -237.5t-385.5 -85.5q-137 0 -261 19t-189 50v313 q68 -37 174 -59t178 -22q61 0 86 3t25 19q0 12 -25.5 22.5t-77.5 22.5q-109 33 -116 35q-137 51 -194.5 113.5t-57.5 177.5zM319 1130v289h320v-289h-320z" />
<glyph unicode="&#x1e62;" horiz-adv-x="1146" d="M31 928q0 209 144 310t435 101q96 0 223.5 -19.5t210.5 -43.5v-373q-195 80 -350 80q-158 0 -157 -51q0 -20 28.5 -33.5t114.5 -38.5l53 -14q158 -43 241 -105.5t112.5 -143.5t29.5 -202q0 -193 -150.5 -304t-437.5 -111q-141 0 -270 24.5t-215 67.5v370 q98 -47 218 -77.5t214 -30.5q61 0 96 15.5t35 43.5q0 25 -28.5 40.5t-106.5 41.5q-90 31 -102 35q-131 49 -203 102.5t-103.5 127t-31.5 188.5zM408 -147h319v-289h-319v289z" />
<glyph unicode="&#x1e63;" horiz-adv-x="1038" d="M31 674q0 317 524 317q98 0 218 -14t181 -35v-311q-66 27 -141.5 43t-132.5 16q-70 0 -106.5 -4t-36.5 -22q0 -10 22.5 -18.5t77.5 -22.5q53 -10 100 -25q106 -31 165 -68.5t82.5 -91t23.5 -135.5q0 -152 -133.5 -237.5t-385.5 -85.5q-137 0 -261 19t-189 50v313 q68 -37 174 -59t178 -22q61 0 86 3t25 19q0 12 -25.5 22.5t-77.5 22.5q-109 33 -116 35q-137 51 -194.5 113.5t-57.5 177.5zM369 -147h319v-289h-319v289z" />
<glyph unicode="&#x1e6c;" horiz-adv-x="1146" d="M-10 963v356h1167v-356h-336v-963h-495v963h-336zM406 -106h319v-289h-319v289z" />
<glyph unicode="&#x1e6d;" horiz-adv-x="811" d="M-10 614v357h116v190l496 101v-291h199l-10 -357h-189v-206q0 -86 96 -86q63 0 123 20v-307q-129 -55 -301 -55q-414 0 -414 401v233h-116zM293 -106h319v-289h-319v289z" />
<glyph unicode="&#x1e6e;" horiz-adv-x="1146" d="M-10 963v356h1167v-356h-336v-963h-495v963h-336zM217 -98h715v-287h-715v287z" />
<glyph unicode="&#x1e6f;" horiz-adv-x="811" d="M-10 614v357h116v190l496 101v-291h199l-10 -357h-189v-206q0 -86 96 -86q63 0 123 20v-307q-129 -55 -301 -55q-414 0 -414 401v233h-116zM53 -98h715v-287h-715v287z" />
<glyph unicode="&#x1e80;" horiz-adv-x="1865" d="M31 1319h483l100 -504l76 281v223h404l147 -506l113 506h481l-305 -1319h-432l-158 520l-170 -520h-432zM512 1872h381l197 -463h-363z" />
<glyph unicode="&#x1e81;" horiz-adv-x="1667" d="M31 971h471l82 -332l61 180v152h356l86 -332l78 332h471l-258 -971h-436l-106 313l-107 -313h-440zM428 1532h381l197 -463h-363z" />
<glyph unicode="&#x1e82;" horiz-adv-x="1865" d="M31 1319h483l100 -504l76 281v223h404l147 -506l113 506h481l-305 -1319h-432l-158 520l-170 -520h-432zM700 1409l197 463h381l-215 -463h-363z" />
<glyph unicode="&#x1e83;" horiz-adv-x="1667" d="M31 971h471l82 -332l61 180v152h356l86 -332l78 332h471l-258 -971h-436l-106 313l-107 -313h-440zM641 1069l197 463h381l-215 -463h-363z" />
<glyph unicode="&#x1e84;" horiz-adv-x="1865" d="M31 1319h483l100 -504l76 281v223h404l147 -506l113 506h481l-305 -1319h-432l-158 520l-170 -520h-432zM541 1470v289h319v-289h-319zM1022 1470v289h319v-289h-319z" />
<glyph unicode="&#x1e85;" horiz-adv-x="1667" d="M31 971h471l82 -332l61 180v152h356l86 -332l78 332h471l-258 -971h-436l-106 313l-107 -313h-440zM436 1130v289h320v-289h-320zM918 1130v289h319v-289h-319z" />
<glyph unicode="&#x1e8e;" horiz-adv-x="1511" d="M31 1319h516l209 -420l209 420h516l-477 -840v-479h-496v479zM596 1470v289h319v-289h-319z" />
<glyph unicode="&#x1e8f;" horiz-adv-x="1386" d="M31 971h518l170 -484l162 484h516l-334 -854q-92 -233 -235.5 -355t-358.5 -122q-98 0 -161.5 10t-127.5 37v315q59 -20 123 -20q66 0 106 10t66 39zM559 1130v289h320v-289h-320z" />
<glyph unicode="&#x1e92;" horiz-adv-x="1200" d="M31 0v244l483 669h-455v406h1108v-281l-477 -661h490v-377h-1149zM483 -147h320v-289h-320v289z" />
<glyph unicode="&#x1e93;" horiz-adv-x="1036" d="M31 0v260l325 332h-315v379h948v-287l-309 -328h326v-356h-975zM328 -147h319v-289h-319v289z" />
<glyph unicode="&#x1e97;" horiz-adv-x="827" d="M-10 1323v289h319v-289h-319zM6 614v357h117v190l495 101v-291h199l-10 -357h-189v-206q0 -86 97 -86q63 0 123 20v-307q-129 -55 -301 -55q-414 0 -414 401v233h-117zM471 1323v289h320v-289h-320z" />
<glyph unicode="&#x1e9e;" horiz-adv-x="1345" d="M61 0v821q0 154 75 271.5t213 182t321 64.5q301 0 450.5 -139t149.5 -362l-228 -211h23q113 0 181.5 -76t68.5 -213q0 -182 -120 -270t-343 -88q-78 0 -150.5 12t-113.5 33v309q20 -8 58 -13.5t67 -5.5q53 0 74.5 20.5t21.5 61.5q0 61 -109 62h-110v219l219 201 q0 29 -35 46t-104 17q-143 0 -144 -127v-815h-465z" />
<glyph unicode="&#x1ea0;" horiz-adv-x="1591" d="M31 0l508 1319h514l508 -1319h-517l-94 246h-309l-94 -246h-516zM637 -147h319v-289h-319v289zM694 584h201l-100 252z" />
<glyph unicode="&#x1ea1;" horiz-adv-x="1202" d="M31 303q0 332 422 332h217v10q0 25 -45 41t-129 16q-80 0 -171.5 -13t-170.5 -38v267q78 33 201.5 53t238.5 20q252 0 399.5 -103.5t147.5 -307.5v-580h-434l-21 70q-111 -90 -313 -90q-152 0 -247 79.5t-95 243.5zM487 317q0 -68 72 -67q66 0 111 45v90h-90 q-49 0 -71 -15.5t-22 -52.5zM492 -147h319v-289h-319v289z" />
<glyph unicode="&#x1ea2;" horiz-adv-x="1591" d="M31 0l508 1319h514l508 -1319h-517l-94 246h-309l-94 -246h-516zM580 1692v192q109 31 266 31q145 0 227 -61.5t82 -157.5q0 -90 -39 -137.5t-129 -75.5v-74h-364v166q174 10 174 80q0 31 -24.5 44t-78.5 13q-63 0 -114 -20zM694 584h201l-100 252z" />
<glyph unicode="&#x1ea3;" horiz-adv-x="1202" d="M31 303q0 332 422 332h217v10q0 25 -45 41t-129 16q-80 0 -171.5 -13t-170.5 -38v267q78 33 201.5 53t238.5 20q252 0 399.5 -103.5t147.5 -307.5v-580h-434l-21 70q-111 -90 -313 -90q-152 0 -247 79.5t-95 243.5zM385 1352v192q109 31 266 31q145 0 227.5 -61.5 t82.5 -157.5q0 -90 -39 -137.5t-129 -75.5v-74h-365v166q174 10 174 80q0 31 -24.5 44t-77.5 13q-63 0 -115 -20zM487 317q0 -68 72 -67q66 0 111 45v90h-90q-49 0 -71 -15.5t-22 -52.5z" />
<glyph unicode="&#x1ea4;" horiz-adv-x="1591" d="M31 0l508 1319h514l508 -1319h-517l-94 246h-309l-94 -246h-516zM279 1409l323 344h359l323 -344h-387l-115 156l-108 -156h-395zM694 584h201l-100 252zM1075 1679l154 353h360l-170 -353h-344z" />
<glyph unicode="&#x1ea5;" horiz-adv-x="1202" d="M31 303q0 332 422 332h217v10q0 25 -45 41t-129 16q-80 0 -171.5 -13t-170.5 -38v267q78 33 201.5 53t238.5 20q252 0 399.5 -103.5t147.5 -307.5v-580h-434l-21 70q-111 -90 -313 -90q-152 0 -247 79.5t-95 243.5zM129 1069l324 344h358l324 -344h-387l-115 156 l-109 -156h-395zM487 317q0 -68 72 -67q66 0 111 45v90h-90q-49 0 -71 -15.5t-22 -52.5zM926 1339l153 353h361l-170 -353h-344z" />
<glyph unicode="&#x1ea6;" horiz-adv-x="1591" d="M-10 2032h360l154 -353h-344zM31 0l508 1319h514l508 -1319h-517l-94 246h-309l-94 -246h-516zM295 1409l323 344h359l323 -344h-395l-108 156l-115 -156h-387zM694 584h201l-100 252z" />
<glyph unicode="&#x1ea7;" horiz-adv-x="1202" d="M-184 1692h360l154 -353h-344zM31 303q0 332 422 332h217v10q0 25 -45 41t-129 16q-80 0 -171.5 -13t-170.5 -38v267q78 33 201.5 53t238.5 20q252 0 399.5 -103.5t147.5 -307.5v-580h-434l-21 70q-111 -90 -313 -90q-152 0 -247 79.5t-95 243.5zM121 1069l323 344h359 l323 -344h-395l-108 156l-115 -156h-387zM487 317q0 -68 72 -67q66 0 111 45v90h-90q-49 0 -71 -15.5t-22 -52.5z" />
<glyph unicode="&#x1ea8;" horiz-adv-x="1591" d="M31 0l508 1319h514l508 -1319h-517l-94 246h-309l-94 -246h-516zM287 1409l323 344h359l323 -344h-387l-114 156l-109 -156h-395zM694 584h201l-100 252zM1069 1853v189q94 25 238 24q123 0 193.5 -53t70.5 -135q0 -74 -36 -121t-108 -61v-64h-321v164q74 2 102.5 14.5 t28.5 32.5q0 18 -16.5 24.5t-53.5 6.5q-45 0 -98 -21z" />
<glyph unicode="&#x1ea9;" horiz-adv-x="1202" d="M31 303q0 332 422 332h217v10q0 25 -45 41t-129 16q-80 0 -171.5 -13t-170.5 -38v267q78 33 201.5 53t238.5 20q252 0 399.5 -103.5t147.5 -307.5v-580h-434l-21 70q-111 -90 -313 -90q-152 0 -247 79.5t-95 243.5zM113 1069l323 344h359l323 -344h-387l-115 156 l-108 -156h-395zM487 317q0 -68 72 -67q66 0 111 45v90h-90q-49 0 -71 -15.5t-22 -52.5zM895 1513v189q94 25 238 24q123 0 193.5 -53t70.5 -135q0 -74 -36 -121t-108 -61v-64h-321v164q74 2 102.5 14.5t28.5 32.5q0 18 -16.5 24.5t-53.5 6.5q-45 0 -98 -21z" />
<glyph unicode="&#x1eaa;" horiz-adv-x="1591" d="M31 0l508 1319h514l508 -1319h-517l-94 246h-309l-94 -246h-516zM293 1409l323 344h359l323 -344h-387l-114 156l-109 -156h-395zM418 1790v276q31 29 86 48.5t112 19.5q49 0 94.5 -11.5t110.5 -33.5q61 -20 103.5 -30.5t85.5 -10.5q66 0 117 22.5t75 57.5v-277 q-18 -27 -72.5 -47t-113.5 -20q-47 0 -96.5 11t-114.5 34q-66 20 -104.5 30.5t-77.5 10.5q-125 0 -205 -80zM694 584h201l-100 252z" />
<glyph unicode="&#x1eab;" horiz-adv-x="1202" d="M31 303q0 332 422 332h217v10q0 25 -45 41t-129 16q-80 0 -171.5 -13t-170.5 -38v267q78 33 201.5 53t238.5 20q252 0 399.5 -103.5t147.5 -307.5v-580h-434l-21 70q-111 -90 -313 -90q-152 0 -247 79.5t-95 243.5zM113 1069l323 344h359l323 -344h-387l-115 156 l-108 -156h-395zM238 1450v276q31 29 86 48.5t112 19.5q49 0 94 -11t111 -34q61 -20 103 -30.5t85 -10.5q66 0 117 22.5t76 57.5v-277q-18 -27 -72.5 -47t-113.5 -20q-50 0 -98 11t-113 34q-66 20 -105 30.5t-78 10.5q-125 0 -204 -80zM487 317q0 -68 72 -67q66 0 111 45v90 h-90q-49 0 -71 -15.5t-22 -52.5z" />
<glyph unicode="&#x1eac;" horiz-adv-x="1591" d="M31 0l508 1319h514l508 -1319h-517l-94 246h-309l-94 -246h-516zM295 1409l358 442h289l358 -442h-344l-157 219l-150 -219h-354zM635 -147h319v-289h-319v289zM694 584h201l-100 252z" />
<glyph unicode="&#x1ead;" horiz-adv-x="1202" d="M31 303q0 332 422 332h217v10q0 25 -45 41t-129 16q-80 0 -171.5 -13t-170.5 -38v267q78 33 201.5 53t238.5 20q252 0 399.5 -103.5t147.5 -307.5v-580h-434l-21 70q-111 -90 -313 -90q-152 0 -247 79.5t-95 243.5zM125 1069l358 442h289l358 -442h-344l-157 219 l-150 -219h-354zM467 -147h319v-289h-319v289zM487 317q0 -68 72 -67q66 0 111 45v90h-90q-49 0 -71 -15.5t-22 -52.5z" />
<glyph unicode="&#x1eae;" horiz-adv-x="1591" d="M31 0l508 1319h514l508 -1319h-517l-94 246h-309l-94 -246h-516zM389 1794h275q0 -66 31.5 -105.5t99.5 -39.5t100.5 40t32.5 105h274q0 -193 -107.5 -289t-299.5 -96q-191 0 -298.5 96.5t-107.5 288.5zM655 1833l154 352h319l-170 -352h-303zM694 584h201l-100 252z" />
<glyph unicode="&#x1eaf;" horiz-adv-x="1202" d="M31 303q0 332 422 332h217v10q0 25 -45 41t-129 16q-80 0 -171.5 -13t-170.5 -38v267q78 33 201.5 53t238.5 20q252 0 399.5 -103.5t147.5 -307.5v-580h-434l-21 70q-111 -90 -313 -90q-152 0 -247 79.5t-95 243.5zM231 1454h275q0 -66 31.5 -105.5t99.5 -39.5t100.5 40 t32.5 105h274q0 -193 -107.5 -289t-299.5 -96q-191 0 -298.5 96.5t-107.5 288.5zM487 317q0 -68 72 -67q66 0 111 45v90h-90q-49 0 -71 -15.5t-22 -52.5zM498 1493l153 352h320l-170 -352h-303z" />
<glyph unicode="&#x1eb0;" horiz-adv-x="1591" d="M31 0l508 1319h514l508 -1319h-517l-94 246h-309l-94 -246h-516zM389 1794h275q0 -66 32.5 -105.5t100.5 -39.5t99.5 40t31.5 105h274q0 -193 -107.5 -289t-297.5 -96q-193 0 -300.5 96.5t-107.5 288.5zM463 2185h319l154 -352h-303zM694 584h201l-100 252z" />
<glyph unicode="&#x1eb1;" horiz-adv-x="1202" d="M31 303q0 332 422 332h217v10q0 25 -45 41t-129 16q-80 0 -171.5 -13t-170.5 -38v267q78 33 201.5 53t238.5 20q252 0 399.5 -103.5t147.5 -307.5v-580h-434l-21 70q-111 -90 -313 -90q-152 0 -247 79.5t-95 243.5zM225 1454h275q0 -66 32.5 -105.5t100.5 -39.5t99.5 40 t31.5 105h274q0 -193 -107.5 -289t-297.5 -96q-193 0 -300.5 96.5t-107.5 288.5zM299 1845h319l154 -352h-303zM487 317q0 -68 72 -67q66 0 111 45v90h-90q-49 0 -71 -15.5t-22 -52.5z" />
<glyph unicode="&#x1eb2;" horiz-adv-x="1591" d="M31 0l508 1319h514l508 -1319h-517l-94 246h-309l-94 -246h-516zM389 1794h275q0 -66 32.5 -105.5t100.5 -39.5t99.5 40t31.5 105h274q0 -193 -107.5 -289t-297.5 -96q-193 0 -300.5 96.5t-107.5 288.5zM596 2060v168q43 10 109.5 18.5t128.5 8.5q123 0 193.5 -53.5 t70.5 -135.5q0 -72 -33 -111.5t-111 -64.5v-55h-321v129q76 2 113.5 20.5t37.5 47.5t-21.5 40t-68.5 11q-39 0 -98 -23zM694 584h201l-100 252z" />
<glyph unicode="&#x1eb3;" horiz-adv-x="1202" d="M31 303q0 332 422 332h217v10q0 25 -45 41t-129 16q-80 0 -171.5 -13t-170.5 -38v267q78 33 201.5 53t238.5 20q252 0 399.5 -103.5t147.5 -307.5v-580h-434l-21 70q-111 -90 -313 -90q-152 0 -247 79.5t-95 243.5zM205 1454h274q0 -66 33 -105.5t100 -39.5q68 0 99.5 40 t31.5 105h275q0 -193 -107.5 -289t-298.5 -96q-192 0 -299.5 96.5t-107.5 288.5zM412 1720v168q43 10 109.5 18.5t127.5 8.5q123 0 193.5 -53.5t70.5 -135.5q0 -72 -32.5 -111.5t-110.5 -64.5v-55h-321v129q76 2 113.5 20.5t37.5 47.5t-21.5 40t-68.5 11q-39 0 -98 -23z M487 317q0 -68 72 -67q66 0 111 45v90h-90q-49 0 -71 -15.5t-22 -52.5z" />
<glyph unicode="&#x1eb4;" horiz-adv-x="1591" d="M31 0l508 1319h514l508 -1319h-517l-94 246h-309l-94 -246h-516zM389 1794h275q0 -66 32.5 -105.5t100.5 -39.5t99.5 40t31.5 105h274q0 -193 -107.5 -289t-297.5 -96q-193 0 -300.5 96.5t-107.5 288.5zM408 1851v256q31 29 86 48.5t112 19.5q49 0 94 -11.5t111 -33.5 q61 -20 103 -30.5t85 -10.5q66 0 117 22.5t76 57.5v-256q-18 -27 -72.5 -47.5t-113.5 -20.5q-50 0 -98 11.5t-113 33.5q-66 20 -105 30.5t-78 10.5q-125 0 -204 -80zM694 584h201l-100 252z" />
<glyph unicode="&#x1eb5;" horiz-adv-x="1202" d="M31 303q0 332 422 332h217v10q0 25 -45 41t-129 16q-80 0 -171.5 -13t-170.5 -38v267q78 33 201.5 53t238.5 20q252 0 399.5 -103.5t147.5 -307.5v-580h-434l-21 70q-111 -90 -313 -90q-152 0 -247 79.5t-95 243.5zM201 1454h274q0 -66 33 -105.5t100 -39.5q68 0 99.5 40 t31.5 105h275q0 -193 -107.5 -289t-298.5 -96q-192 0 -299.5 96.5t-107.5 288.5zM219 1511v256q31 29 86 48.5t113 19.5q49 0 94 -11.5t111 -33.5q61 -20 103 -30.5t85 -10.5q66 0 117 22.5t76 57.5v-256q-18 -27 -72.5 -47.5t-114.5 -20.5q-49 0 -97 11.5t-114 33.5 q-66 20 -104.5 30.5t-77.5 10.5q-125 0 -205 -80zM487 317q0 -68 72 -67q66 0 111 45v90h-90q-49 0 -71 -15.5t-22 -52.5z" />
<glyph unicode="&#x1eb6;" horiz-adv-x="1591" d="M31 0l508 1319h514l508 -1319h-517l-94 246h-309l-94 -246h-516zM344 1860h318q0 -78 30.5 -129.5t102.5 -51.5t103.5 51.5t31.5 129.5h317q0 -217 -121.5 -334t-330.5 -117t-330 118t-121 333zM635 -147h319v-289h-319v289zM694 584h201l-100 252z" />
<glyph unicode="&#x1eb7;" horiz-adv-x="1202" d="M31 303q0 332 422 332h217v10q0 25 -45 41t-129 16q-80 0 -171.5 -13t-170.5 -38v267q78 33 201.5 53t238.5 20q252 0 399.5 -103.5t147.5 -307.5v-580h-434l-21 70q-111 -90 -313 -90q-152 0 -247 79.5t-95 243.5zM207 1520h317q0 -78 31 -129.5t102 -51.5 q72 0 104 51.5t32 129.5h317q0 -217 -122 -334t-331 -117q-208 0 -329 118t-121 333zM487 317q0 -68 72 -67q66 0 111 45v90h-90q-49 0 -71 -15.5t-22 -52.5zM502 -147h319v-289h-319v289z" />
<glyph unicode="&#x1eb8;" horiz-adv-x="1136" d="M72 0v1319h1054v-356h-559v-119h482v-369h-482v-119h559v-356h-1054zM418 -147h319v-289h-319v289z" />
<glyph unicode="&#x1eb9;" horiz-adv-x="1161" d="M31 481q0 238 141 374t410 136q252 0 400 -124t148 -349v-166h-647q66 -82 285 -82q86 0 173 14.5t140 34.5v-266q-154 -74 -446 -73q-174 0 -311.5 58t-215 171t-77.5 272zM453 -147h319v-289h-319v289zM483 600h224v18q0 35 -26 57.5t-83 22.5q-59 0 -87 -26.5 t-28 -71.5z" />
<glyph unicode="&#x1eba;" horiz-adv-x="1136" d="M72 0v1319h1054v-356h-559v-119h482v-369h-482v-119h559v-356h-1054zM373 1692v192q109 31 266 31q145 0 227 -61.5t82 -157.5q0 -90 -39 -137.5t-129 -75.5v-74h-364v166q174 10 174 80q0 31 -24.5 44t-78.5 13q-63 0 -114 -20z" />
<glyph unicode="&#x1ebb;" horiz-adv-x="1161" d="M31 481q0 238 141 374t410 136q252 0 400 -124t148 -349v-166h-647q66 -82 285 -82q86 0 173 14.5t140 34.5v-266q-154 -74 -446 -73q-174 0 -311.5 58t-215 171t-77.5 272zM371 1352v192q109 31 266 31q145 0 227 -61.5t82 -157.5q0 -90 -39 -137.5t-129 -75.5v-74h-364 v166q174 10 174 80q0 31 -24.5 44t-78.5 13q-63 0 -114 -20zM483 600h224v18q0 35 -26 57.5t-83 22.5q-59 0 -87 -26.5t-28 -71.5z" />
<glyph unicode="&#x1ebc;" horiz-adv-x="1136" d="M72 0v1319h1054v-356h-559v-119h482v-369h-482v-119h559v-356h-1054zM186 1425v289q33 29 90.5 50.5t118.5 21.5q51 0 97.5 -11.5t113.5 -33.5q66 -23 110 -34t91 -11q68 0 121 23.5t80 60.5v-289q-20 -29 -77 -50.5t-118 -21.5q-49 0 -98 11.5t-125 35.5 q-61 20 -104.5 31.5t-84.5 11.5q-131 0 -215 -84z" />
<glyph unicode="&#x1ebd;" horiz-adv-x="1161" d="M31 481q0 238 141 374t410 136q252 0 400 -124t148 -349v-166h-647q66 -82 285 -82q86 0 173 14.5t140 34.5v-266q-154 -74 -446 -73q-174 0 -311.5 58t-215 171t-77.5 272zM195 1085v289q33 29 90 50.5t118 21.5q51 0 97.5 -11.5t113.5 -33.5q66 -23 110 -34t91 -11 q68 0 121 23.5t80 60.5v-289q-20 -29 -76.5 -50.5t-118.5 -21.5q-49 0 -98 11.5t-125 35.5q-61 20 -104 31.5t-84 11.5q-131 0 -215 -84zM483 600h224v18q0 35 -26 57.5t-83 22.5q-59 0 -87 -26.5t-28 -71.5z" />
<glyph unicode="&#x1ebe;" horiz-adv-x="1136" d="M72 0v1319h1054v-356h-559v-119h482v-369h-482v-119h559v-356h-1054zM109 1409l323 344h359l323 -344h-387l-115 156l-108 -156h-395zM905 1679l154 353h360l-170 -353h-344z" />
<glyph unicode="&#x1ebf;" horiz-adv-x="1161" d="M31 481q0 238 141 374t410 136q252 0 400 -124t148 -349v-166h-647q66 -82 285 -82q86 0 173 14.5t140 34.5v-266q-154 -74 -446 -73q-174 0 -311.5 58t-215 171t-77.5 272zM111 1069l323 344h359l323 -344h-387l-115 156l-108 -156h-395zM483 600h224v18q0 35 -26 57.5 t-83 22.5q-59 0 -87 -26.5t-28 -71.5zM907 1339l154 353h360l-170 -353h-344z" />
<glyph unicode="&#x1ec0;" horiz-adv-x="1136" d="M-203 2032h361l153 -353h-344zM72 0v1319h1054v-356h-559v-119h482v-369h-482v-119h559v-356h-1054zM102 1409l324 344h358l324 -344h-395l-109 156l-115 -156h-387z" />
<glyph unicode="&#x1ec1;" horiz-adv-x="1161" d="M-199 1692h361l153 -353h-344zM31 481q0 238 141 374t410 136q252 0 400 -124t148 -349v-166h-647q66 -82 285 -82q86 0 173 14.5t140 34.5v-266q-154 -74 -446 -73q-174 0 -311.5 58t-215 171t-77.5 272zM106 1069l324 344h358l324 -344h-395l-109 156l-114 -156h-388z M483 600h224v18q0 35 -26 57.5t-83 22.5q-59 0 -87 -26.5t-28 -71.5z" />
<glyph unicode="&#x1ec2;" horiz-adv-x="1136" d="M72 0v1319h1054v-356h-559v-119h482v-369h-482v-119h559v-356h-1054zM92 1409l324 344h358l324 -344h-387l-115 156l-109 -156h-395zM874 1853v189q94 25 238 24q123 0 193.5 -53t70.5 -135q0 -74 -35.5 -121t-107.5 -61v-64h-322v164q74 2 102.5 14.5t28.5 32.5 q0 18 -16 24.5t-53 6.5q-45 0 -99 -21z" />
<glyph unicode="&#x1ec3;" horiz-adv-x="1161" d="M31 481q0 238 141 374t410 136q252 0 400 -124t148 -349v-166h-647q66 -82 285 -82q86 0 173 14.5t140 34.5v-266q-154 -74 -446 -73q-174 0 -311.5 58t-215 171t-77.5 272zM92 1069l324 344h358l324 -344h-387l-115 156l-109 -156h-395zM483 600h224v18q0 35 -26 57.5 t-83 22.5q-59 0 -87 -26.5t-28 -71.5zM874 1513v189q94 25 238 24q123 0 193.5 -53t70.5 -135q0 -74 -35.5 -121t-107.5 -61v-64h-322v164q74 2 102.5 14.5t28.5 32.5q0 18 -16 24.5t-53 6.5q-45 0 -99 -21z" />
<glyph unicode="&#x1ec4;" horiz-adv-x="1136" d="M72 0v1319h1054v-356h-559v-119h482v-369h-482v-119h559v-356h-1054zM92 1409l324 344h358l324 -344h-387l-115 156l-109 -156h-395zM217 1790v276q31 29 86 48.5t113 19.5q49 0 94 -11.5t111 -33.5q61 -20 103 -30.5t85 -10.5q66 0 117 22.5t75 57.5v-277 q-18 -27 -72.5 -47t-113.5 -20q-47 0 -96 11t-115 34q-66 20 -104.5 30.5t-77.5 10.5q-125 0 -205 -80z" />
<glyph unicode="&#x1ec5;" horiz-adv-x="1161" d="M31 481q0 238 141 374t410 136q252 0 400 -124t148 -349v-166h-647q66 -82 285 -82q86 0 173 14.5t140 34.5v-266q-154 -74 -446 -73q-174 0 -311.5 58t-215 171t-77.5 272zM92 1069l324 344h358l324 -344h-387l-115 156l-109 -156h-395zM217 1450v276q31 29 86 48.5 t113 19.5q49 0 94 -11t111 -34q61 -20 103 -30.5t85 -10.5q66 0 117 22.5t75 57.5v-277q-18 -27 -72.5 -47t-113.5 -20q-47 0 -96 11t-115 34q-66 20 -104.5 30.5t-77.5 10.5q-125 0 -205 -80zM483 600h224v18q0 35 -26 57.5t-83 22.5q-59 0 -87 -26.5t-28 -71.5z" />
<glyph unicode="&#x1ec6;" horiz-adv-x="1136" d="M72 0v1319h1054v-356h-559v-119h482v-369h-482v-119h559v-356h-1054zM92 1409l359 442h288l359 -442h-344l-158 219l-150 -219h-354zM436 -147h320v-289h-320v289z" />
<glyph unicode="&#x1ec7;" horiz-adv-x="1161" d="M31 481q0 238 141 374t410 136q252 0 400 -124t148 -349v-166h-647q66 -82 285 -82q86 0 173 14.5t140 34.5v-266q-154 -74 -446 -73q-174 0 -311.5 58t-215 171t-77.5 272zM72 1069l358 442h289l358 -442h-344l-158 219l-149 -219h-354zM416 -147h319v-289h-319v289z M483 600h224v18q0 35 -26 57.5t-83 22.5q-59 0 -87 -26.5t-28 -71.5z" />
<glyph unicode="&#x1ec8;" horiz-adv-x="638" d="M72 0v1319h495v-1319h-495zM90 1692v192q109 31 266 31q145 0 227.5 -61.5t82.5 -157.5q0 -90 -39 -137.5t-129 -75.5v-74h-365v166q174 10 174 80q0 31 -24.5 44t-77.5 13q-63 0 -115 -20z" />
<glyph unicode="&#x1ec9;" horiz-adv-x="774" d="M72 614l41 357h589v-971h-495v614h-135zM193 1352v192q109 31 266 31q145 0 227 -61.5t82 -157.5q0 -90 -39 -137.5t-129 -75.5v-74h-364v166q174 10 174 80q0 31 -25 44t-78 13q-63 0 -114 -20z" />
<glyph unicode="&#x1eca;" horiz-adv-x="638" d="M72 0v1319h495v-1319h-495zM160 -147h319v-289h-319v289z" />
<glyph unicode="&#x1ecb;" horiz-adv-x="774" d="M72 614l41 357h589v-971h-495v614h-135zM172 1051v342h530v-342h-530zM297 -147h319v-289h-319v289z" />
<glyph unicode="&#x1ecc;" horiz-adv-x="1474" d="M31 659q0 360 179 520t527 160t527.5 -159.5t179.5 -520.5q0 -360 -179.5 -519.5t-527.5 -159.5t-527 159.5t-179 519.5zM537 659q0 -143 46 -201.5t154 -58.5q109 0 155 58.5t46 201.5t-46 202t-155 59t-154.5 -58.5t-45.5 -202.5zM578 -147h319v-289h-319v289z" />
<glyph unicode="&#x1ecd;" horiz-adv-x="1284" d="M31 485q0 506 610 506q612 0 612 -506t-612 -505q-610 -1 -610 505zM481 -147h320v-289h-320v289zM537 485q0 -84 25.5 -117.5t78.5 -33.5q55 0 81 33.5t26 117.5t-26 118t-81 34q-53 0 -78.5 -34t-25.5 -118z" />
<glyph unicode="&#x1ece;" horiz-adv-x="1474" d="M31 659q0 360 179 520t527 160t527.5 -159.5t179.5 -520.5q0 -360 -179.5 -519.5t-527.5 -159.5t-527 159.5t-179 519.5zM504 1692v192q109 31 266 31q145 0 227 -61.5t82 -157.5q0 -90 -39 -137.5t-129 -75.5v-74h-364v166q174 10 174 80q0 31 -24.5 44t-78.5 13 q-63 0 -114 -20zM537 659q0 -143 46 -201.5t154 -58.5q109 0 155 58.5t46 201.5t-46 202t-155 59t-154.5 -58.5t-45.5 -202.5z" />
<glyph unicode="&#x1ecf;" horiz-adv-x="1284" d="M31 485q0 506 610 506q612 0 612 -506t-612 -505q-610 -1 -610 505zM422 1352v192q109 31 266 31q145 0 227 -61.5t82 -157.5q0 -90 -38.5 -137.5t-129.5 -75.5v-74h-364v166q174 10 174 80q0 31 -24.5 44t-77.5 13q-63 0 -115 -20zM537 485q0 -84 25.5 -117.5 t78.5 -33.5q55 0 81 33.5t26 117.5t-26 118t-81 34q-53 0 -78.5 -34t-25.5 -118z" />
<glyph unicode="&#x1ed0;" horiz-adv-x="1474" d="M31 659q0 360 179 520t527 160t527.5 -159.5t179.5 -520.5q0 -360 -179.5 -519.5t-527.5 -159.5t-527 159.5t-179 519.5zM231 1409l324 344h358l324 -344h-387l-115 156l-108 -156h-396zM537 659q0 -143 46 -201.5t154 -58.5q109 0 155 58.5t46 201.5t-46 202t-155 59 t-154.5 -58.5t-45.5 -202.5zM1028 1679l154 353h360l-170 -353h-344z" />
<glyph unicode="&#x1ed1;" horiz-adv-x="1284" d="M31 485q0 506 610 506q612 0 612 -506t-612 -505q-610 -1 -610 505zM125 1069l324 344h358l323 -344h-387l-114 156l-109 -156h-395zM537 485q0 -84 25.5 -117.5t78.5 -33.5q55 0 81 33.5t26 117.5t-26 118t-81 34q-53 0 -78.5 -34t-25.5 -118zM922 1339l153 353h361 l-170 -353h-344z" />
<glyph unicode="&#x1ed2;" horiz-adv-x="1474" d="M-72 2032h361l153 -353h-344zM31 659q0 360 179 520t527 160t527.5 -159.5t179.5 -520.5q0 -360 -179.5 -519.5t-527.5 -159.5t-527 159.5t-179 519.5zM233 1409l324 344h358l324 -344h-395l-109 156l-114 -156h-388zM537 659q0 -143 46 -201.5t154 -58.5q109 0 155 58.5 t46 201.5t-46 202t-155 59t-154.5 -58.5t-45.5 -202.5z" />
<glyph unicode="&#x1ed3;" horiz-adv-x="1284" d="M-160 1692h361l153 -353h-344zM31 485q0 506 610 506q612 0 612 -506t-612 -505q-610 -1 -610 505zM145 1069l324 344h358l324 -344h-395l-109 156l-115 -156h-387zM537 485q0 -84 25.5 -117.5t78.5 -33.5q55 0 81 33.5t26 117.5t-26 118t-81 34q-53 0 -78.5 -34 t-25.5 -118z" />
<glyph unicode="&#x1ed4;" horiz-adv-x="1474" d="M31 659q0 360 179 520t527 160t527.5 -159.5t179.5 -520.5q0 -360 -179.5 -519.5t-527.5 -159.5t-527 159.5t-179 519.5zM219 1409l324 344h358l324 -344h-387l-115 156l-109 -156h-395zM537 659q0 -143 46 -201.5t154 -58.5q109 0 155 58.5t46 201.5t-46 202t-155 59 t-154.5 -58.5t-45.5 -202.5zM1001 1853v189q94 25 238 24q123 0 193.5 -53t70.5 -135q0 -74 -35.5 -121t-107.5 -61v-64h-322v164q74 2 102.5 14.5t28.5 32.5q0 18 -16 24.5t-53 6.5q-45 0 -99 -21z" />
<glyph unicode="&#x1ed5;" horiz-adv-x="1284" d="M31 485q0 506 610 506q612 0 612 -506t-612 -505q-610 -1 -610 505zM137 1069l324 344h358l324 -344h-387l-115 156l-109 -156h-395zM537 485q0 -84 25.5 -117.5t78.5 -33.5q55 0 81 33.5t26 117.5t-26 118t-81 34q-53 0 -78.5 -34t-25.5 -118zM920 1513v189 q94 25 237 24q123 0 193.5 -53t70.5 -135q0 -74 -35.5 -121t-107.5 -61v-64h-322v164q74 2 102.5 14.5t28.5 32.5q0 18 -16 24.5t-53 6.5q-45 0 -98 -21z" />
<glyph unicode="&#x1ed6;" horiz-adv-x="1474" d="M31 659q0 360 179 520t527 160t527.5 -159.5t179.5 -520.5q0 -360 -179.5 -519.5t-527.5 -159.5t-527 159.5t-179 519.5zM332 1794h274q0 -66 33 -105.5t100 -39.5q68 0 99.5 40t31.5 105h275q0 -193 -107.5 -289t-298.5 -96q-192 0 -299.5 96.5t-107.5 288.5zM350 1851 v256q31 29 86.5 48.5t112.5 19.5q49 0 94 -11.5t111 -33.5q61 -20 103 -30.5t85 -10.5q66 0 117 22.5t76 57.5v-256q-18 -27 -72.5 -47.5t-114.5 -20.5q-49 0 -97 11.5t-114 33.5q-66 20 -104.5 30.5t-77.5 10.5q-125 0 -205 -80zM537 659q0 -143 46 -201.5t154 -58.5 q109 0 155 58.5t46 201.5t-46 202t-155 59t-154.5 -58.5t-45.5 -202.5z" />
<glyph unicode="&#x1ed7;" horiz-adv-x="1284" d="M31 485q0 506 610 506q612 0 612 -506t-612 -505q-610 -1 -610 505zM236 1454h274q0 -66 32.5 -105.5t100.5 -39.5t99.5 40t31.5 105h275q0 -193 -107.5 -289t-298.5 -96q-192 0 -299.5 96.5t-107.5 288.5zM254 1511v256q31 29 86 48.5t113 19.5q49 0 94 -11.5t110 -33.5 q61 -20 103.5 -30.5t85.5 -10.5q66 0 117 22.5t75 57.5v-256q-18 -27 -72.5 -47.5t-113.5 -20.5q-49 0 -97 11.5t-114 33.5q-66 20 -104.5 30.5t-77.5 10.5q-125 0 -205 -80zM537 485q0 -84 25.5 -117.5t78.5 -33.5q55 0 81 33.5t26 117.5t-26 118t-81 34q-53 0 -78.5 -34 t-25.5 -118z" />
<glyph unicode="&#x1ed8;" horiz-adv-x="1474" d="M31 659q0 360 179 520t527 160t527.5 -159.5t179.5 -520.5q0 -360 -179.5 -519.5t-527.5 -159.5t-527 159.5t-179 519.5zM236 1409l358 442h289l358 -442h-344l-158 219l-149 -219h-354zM537 659q0 -143 46 -201.5t154 -58.5q109 0 155 58.5t46 201.5t-46 202t-155 59 t-154.5 -58.5t-45.5 -202.5zM580 -147h319v-289h-319v289z" />
<glyph unicode="&#x1ed9;" horiz-adv-x="1284" d="M31 485q0 506 610 506q612 0 612 -506t-612 -505q-610 -1 -610 505zM139 1069l359 442h288l359 -442h-344l-158 219l-149 -219h-355zM483 -147h320v-289h-320v289zM537 485q0 -84 25.5 -117.5t78.5 -33.5q55 0 81 33.5t26 117.5t-26 118t-81 34q-53 0 -78.5 -34 t-25.5 -118z" />
<glyph unicode="&#x1eda;" horiz-adv-x="1681" d="M31 659q0 360 179 520t527 160q293 0 461 -108q88 8 118 45t30 133h346q0 -213 -65.5 -322.5t-219.5 -148.5q37 -117 37 -279q0 -360 -179.5 -519.5t-527.5 -159.5t-527 159.5t-179 519.5zM537 659q0 -143 46 -201.5t154 -58.5q109 0 155 58.5t46 201.5t-46 202t-155 59 t-154.5 -58.5t-45.5 -202.5zM569 1409l197 463h381l-215 -463h-363z" />
<glyph unicode="&#x1edb;" horiz-adv-x="1570" d="M31 485q0 506 610 506q262 0 412 -92q109 0 145.5 45t36.5 154h346q0 -229 -78 -347t-258 -153q8 -47 8 -113q0 -506 -612 -505q-610 -1 -610 505zM457 1069l196 463h381l-215 -463h-362zM537 485q0 -84 25.5 -117.5t78.5 -33.5q55 0 81 33.5t26 117.5t-26 118t-81 34 q-53 0 -78.5 -34t-25.5 -118z" />
<glyph unicode="&#x1edc;" horiz-adv-x="1681" d="M31 659q0 360 179 520t527 160q293 0 461 -108q88 8 118 45t30 133h346q0 -213 -65.5 -322.5t-219.5 -148.5q37 -117 37 -279q0 -360 -179.5 -519.5t-527.5 -159.5t-527 159.5t-179 519.5zM381 1872h381l196 -463h-362zM537 659q0 -143 46 -201.5t154 -58.5 q109 0 155 58.5t46 201.5t-46 202t-155 59t-154.5 -58.5t-45.5 -202.5z" />
<glyph unicode="&#x1edd;" horiz-adv-x="1570" d="M31 485q0 506 610 506q262 0 412 -92q109 0 145.5 45t36.5 154h346q0 -229 -78 -347t-258 -153q8 -47 8 -113q0 -506 -612 -505q-610 -1 -610 505zM262 1532h381l197 -463h-363zM537 485q0 -84 25.5 -117.5t78.5 -33.5q55 0 81 33.5t26 117.5t-26 118t-81 34 q-53 0 -78.5 -34t-25.5 -118z" />
<glyph unicode="&#x1ede;" horiz-adv-x="1681" d="M31 659q0 360 179 520t527 160q293 0 461 -108q88 8 118 45t30 133h346q0 -213 -65.5 -322.5t-219.5 -148.5q37 -117 37 -279q0 -360 -179.5 -519.5t-527.5 -159.5t-527 159.5t-179 519.5zM506 1692v192q109 31 266 31q145 0 227 -61.5t82 -157.5q0 -90 -38.5 -137.5 t-129.5 -75.5v-74h-364v166q174 10 174 80q0 31 -24.5 44t-77.5 13q-63 0 -115 -20zM537 659q0 -143 46 -201.5t154 -58.5q109 0 155 58.5t46 201.5t-46 202t-155 59t-154.5 -58.5t-45.5 -202.5z" />
<glyph unicode="&#x1edf;" horiz-adv-x="1570" d="M31 485q0 506 610 506q262 0 412 -92q109 0 145.5 45t36.5 154h346q0 -229 -78 -347t-258 -153q8 -47 8 -113q0 -506 -612 -505q-610 -1 -610 505zM410 1352v192q109 31 266 31q145 0 227 -61.5t82 -157.5q0 -90 -39 -137.5t-129 -75.5v-74h-364v166q174 10 174 80 q0 31 -24.5 44t-78.5 13q-63 0 -114 -20zM537 485q0 -84 25.5 -117.5t78.5 -33.5q55 0 81 33.5t26 117.5t-26 118t-81 34q-53 0 -78.5 -34t-25.5 -118z" />
<glyph unicode="&#x1ee0;" horiz-adv-x="1681" d="M31 659q0 360 179 520t527 160q293 0 461 -108q88 8 118 45t30 133h346q0 -213 -65.5 -322.5t-219.5 -148.5q37 -117 37 -279q0 -360 -179.5 -519.5t-527.5 -159.5t-527 159.5t-179 519.5zM332 1415v289q33 29 90 50.5t119 21.5q51 0 97 -11.5t114 -33.5 q66 -23 109.5 -34t90.5 -11q68 0 121 23.5t80 59.5v-288q-20 -29 -76.5 -50.5t-118.5 -21.5q-49 0 -98 11.5t-125 35.5q-61 20 -104 31.5t-84 11.5q-131 0 -215 -84zM537 659q0 -143 46 -201.5t154 -58.5q109 0 155 58.5t46 201.5t-46 202t-155 59t-154.5 -58.5 t-45.5 -202.5z" />
<glyph unicode="&#x1ee1;" horiz-adv-x="1570" d="M31 485q0 506 610 506q262 0 412 -92q109 0 145.5 45t36.5 154h346q0 -229 -78 -347t-258 -153q8 -47 8 -113q0 -506 -612 -505q-610 -1 -610 505zM246 1075v289q33 29 90 50.5t119 21.5q51 0 97 -11.5t114 -33.5q66 -23 109.5 -34t90.5 -11q68 0 121 23.5t80 60.5v-289 q-20 -29 -76.5 -50.5t-118.5 -21.5q-49 0 -98 11.5t-125 35.5q-61 20 -104 31.5t-84 11.5q-131 0 -215 -84zM537 485q0 -84 25.5 -117.5t78.5 -33.5q55 0 81 33.5t26 117.5t-26 118t-81 34q-53 0 -78.5 -34t-25.5 -118z" />
<glyph unicode="&#x1ee2;" horiz-adv-x="1681" d="M31 659q0 360 179 520t527 160q293 0 461 -108q88 8 118 45t30 133h346q0 -213 -65.5 -322.5t-219.5 -148.5q37 -117 37 -279q0 -360 -179.5 -519.5t-527.5 -159.5t-527 159.5t-179 519.5zM537 659q0 -143 46 -201.5t154 -58.5q109 0 155 58.5t46 201.5t-46 202t-155 59 t-154.5 -58.5t-45.5 -202.5zM582 -147h319v-289h-319v289z" />
<glyph unicode="&#x1ee3;" horiz-adv-x="1570" d="M31 485q0 506 610 506q262 0 412 -92q109 0 145.5 45t36.5 154h346q0 -229 -78 -347t-258 -153q8 -47 8 -113q0 -506 -612 -505q-610 -1 -610 505zM479 -147h320v-289h-320v289zM537 485q0 -84 25.5 -117.5t78.5 -33.5q55 0 81 33.5t26 117.5t-26 118t-81 34 q-53 0 -78.5 -34t-25.5 -118z" />
<glyph unicode="&#x1ee4;" horiz-adv-x="1441" d="M61 520v799h496v-735q0 -184 164 -185q164 0 164 185v735h495v-799q0 -172 -86 -294t-235.5 -184t-337.5 -62q-189 0 -338.5 62t-235.5 184t-86 294zM561 -147h320v-289h-320v289z" />
<glyph unicode="&#x1ee5;" horiz-adv-x="1282" d="M61 356v615h496v-561q0 -66 68 -66q23 0 49 12.5t41 28.5v586h495v-971h-465l-10 55q-57 -35 -140 -55t-177 -20q-166 0 -261.5 97t-95.5 279zM473 -147h320v-289h-320v289z" />
<glyph unicode="&#x1ee6;" horiz-adv-x="1441" d="M61 520v799h496v-735q0 -184 164 -185q164 0 164 185v735h495v-799q0 -172 -86 -294t-235.5 -184t-337.5 -62q-189 0 -338.5 62t-235.5 184t-86 294zM496 1690v192q109 31 266 31q145 0 227 -61.5t82 -157.5q0 -90 -39 -137.5t-129 -75.5v-74h-364v166q174 10 174 80 q0 31 -24.5 44t-78.5 13q-63 0 -114 -20z" />
<glyph unicode="&#x1ee7;" horiz-adv-x="1282" d="M61 356v615h496v-561q0 -66 68 -66q23 0 49 12.5t41 28.5v586h495v-971h-465l-10 55q-57 -35 -140 -55t-177 -20q-166 0 -261.5 97t-95.5 279zM416 1352v192q109 31 266 31q145 0 227 -61.5t82 -157.5q0 -90 -39 -137.5t-129 -75.5v-74h-364v166q174 10 174 80 q0 31 -24.5 44t-78.5 13q-63 0 -114 -20z" />
<glyph unicode="&#x1ee8;" horiz-adv-x="1863" d="M61 520v799h496v-735q0 -184 164 -185q164 0 164 185v735h495v-88q88 6 118 44t30 134h346q0 -180 -51 -286.5t-157.5 -154.5t-285.5 -53v-395q0 -172 -86 -294t-235.5 -184t-337.5 -62q-189 0 -338.5 62t-235.5 184t-86 294zM545 1409l196 463h381l-215 -463h-362z" />
<glyph unicode="&#x1ee9;" horiz-adv-x="1652" d="M61 356v615h496v-561q0 -66 68 -66q23 0 49 12.5t41 28.5v586h495v-68q55 2 83 22.5t36 59.5t8 113h346q0 -178 -46 -285.5t-148.5 -161t-278.5 -67.5v-584h-465l-10 55q-57 -35 -140 -55t-177 -20q-166 0 -261.5 97t-95.5 279zM444 1069l197 463h381l-215 -463h-363z " />
<glyph unicode="&#x1eea;" horiz-adv-x="1863" d="M61 520v799h496v-735q0 -184 164 -185q164 0 164 185v735h495v-88q88 6 118 44t30 134h346q0 -180 -51 -286.5t-157.5 -154.5t-285.5 -53v-395q0 -172 -86 -294t-235.5 -184t-337.5 -62q-189 0 -338.5 62t-235.5 184t-86 294zM342 1872h381l197 -463h-363z" />
<glyph unicode="&#x1eeb;" horiz-adv-x="1652" d="M61 356v615h496v-561q0 -66 68 -66q23 0 49 12.5t41 28.5v586h495v-68q55 2 83 22.5t36 59.5t8 113h346q0 -178 -46 -285.5t-148.5 -161t-278.5 -67.5v-584h-465l-10 55q-57 -35 -140 -55t-177 -20q-166 0 -261.5 97t-95.5 279zM248 1532h381l196 -463h-362z" />
<glyph unicode="&#x1eec;" horiz-adv-x="1863" d="M61 520v799h496v-735q0 -184 164 -185q164 0 164 185v735h495v-88q88 6 118 44t30 134h346q0 -180 -51 -286.5t-157.5 -154.5t-285.5 -53v-395q0 -172 -86 -294t-235.5 -184t-337.5 -62q-189 0 -338.5 62t-235.5 184t-86 294zM500 1692v192q109 31 266 31 q145 0 227 -61.5t82 -157.5q0 -90 -39 -137.5t-129 -75.5v-74h-364v166q174 10 174 80q0 31 -24.5 44t-78.5 13q-63 0 -114 -20z" />
<glyph unicode="&#x1eed;" horiz-adv-x="1652" d="M61 356v615h496v-561q0 -66 68 -66q23 0 49 12.5t41 28.5v586h495v-68q55 2 83 22.5t36 59.5t8 113h346q0 -178 -46 -285.5t-148.5 -161t-278.5 -67.5v-584h-465l-10 55q-57 -35 -140 -55t-177 -20q-166 0 -261.5 97t-95.5 279zM416 1352v192q109 31 266 31 q145 0 227 -61.5t82 -157.5q0 -90 -39 -137.5t-129 -75.5v-74h-364v166q174 10 174 80q0 31 -24.5 44t-78.5 13q-63 0 -114 -20z" />
<glyph unicode="&#x1eee;" horiz-adv-x="1863" d="M61 520v799h496v-735q0 -184 164 -185q164 0 164 185v735h495v-88q88 6 118 44t30 134h346q0 -180 -51 -286.5t-157.5 -154.5t-285.5 -53v-395q0 -172 -86 -294t-235.5 -184t-337.5 -62q-189 0 -338.5 62t-235.5 184t-86 294zM322 1415v289q33 29 90 50.5t118 21.5 q51 0 97.5 -11.5t113.5 -33.5q66 -23 110 -34t91 -11q68 0 121 23.5t80 59.5v-288q-20 -29 -76.5 -50.5t-118.5 -21.5q-49 0 -98 11.5t-125 35.5q-61 20 -104 31.5t-84 11.5q-131 0 -215 -84z" />
<glyph unicode="&#x1eef;" horiz-adv-x="1652" d="M61 356v615h496v-561q0 -66 68 -66q23 0 49 12.5t41 28.5v586h495v-68q55 2 83 22.5t36 59.5t8 113h346q0 -178 -46 -285.5t-148.5 -161t-278.5 -67.5v-584h-465l-10 55q-57 -35 -140 -55t-177 -20q-166 0 -261.5 97t-95.5 279zM227 1075v289q33 29 90.5 50.5t118.5 21.5 q51 0 97.5 -11.5t113.5 -33.5q66 -23 110 -34t91 -11q68 0 121 23.5t80 60.5v-289q-20 -29 -77 -50.5t-118 -21.5q-49 0 -98 11.5t-125 35.5q-61 20 -104.5 31.5t-84.5 11.5q-131 0 -215 -84z" />
<glyph unicode="&#x1ef0;" horiz-adv-x="1863" d="M61 520v799h496v-735q0 -184 164 -185q164 0 164 185v735h495v-88q88 6 118 44t30 134h346q0 -180 -51 -286.5t-157.5 -154.5t-285.5 -53v-395q0 -172 -86 -294t-235.5 -184t-337.5 -62q-189 0 -338.5 62t-235.5 184t-86 294zM565 -147h320v-289h-320v289z" />
<glyph unicode="&#x1ef1;" horiz-adv-x="1652" d="M61 356v615h496v-561q0 -66 68 -66q23 0 49 12.5t41 28.5v586h495v-68q55 2 83 22.5t36 59.5t8 113h346q0 -178 -46 -285.5t-148.5 -161t-278.5 -67.5v-584h-465l-10 55q-57 -35 -140 -55t-177 -20q-166 0 -261.5 97t-95.5 279zM479 -147h320v-289h-320v289z" />
<glyph unicode="&#x1ef2;" horiz-adv-x="1511" d="M31 1319h516l209 -420l209 420h516l-477 -840v-479h-496v479zM367 1872h381l196 -463h-362z" />
<glyph unicode="&#x1ef3;" horiz-adv-x="1386" d="M31 971h518l170 -484l162 484h516l-334 -854q-92 -233 -235.5 -355t-358.5 -122q-98 0 -161.5 10t-127.5 37v315q59 -20 123 -20q66 0 106 10t66 39zM317 1532h381l197 -463h-363z" />
<glyph unicode="&#x1ef4;" horiz-adv-x="1511" d="M31 1319h516l209 -420l209 420h516l-477 -840v-479h-496v479zM596 -147h319v-289h-319v289z" />
<glyph unicode="&#x1ef5;" horiz-adv-x="1386" d="M31 971h518l170 -484l162 484h516l-334 -854q-92 -233 -235.5 -355t-358.5 -122q-98 0 -161.5 10t-127.5 37v315q59 -20 123 -20q66 0 106 10t66 39zM1001 -147h320v-289h-320v289z" />
<glyph unicode="&#x1ef6;" horiz-adv-x="1511" d="M31 1319h516l209 -420l209 420h516l-477 -840v-479h-496v479zM535 1690v192q109 31 266 31q145 0 227 -61.5t82 -157.5q0 -90 -39 -137.5t-129 -75.5v-74h-364v166q174 10 174 80q0 31 -25 44t-78 13q-63 0 -114 -20z" />
<glyph unicode="&#x1ef7;" horiz-adv-x="1386" d="M31 971h518l170 -484l162 484h516l-334 -854q-92 -233 -235.5 -355t-358.5 -122q-98 0 -161.5 10t-127.5 37v315q59 -20 123 -20q66 0 106 10t66 39zM502 1352v192q109 31 266 31q145 0 227 -61.5t82 -157.5q0 -90 -39 -137.5t-129 -75.5v-74h-364v166q174 10 174 80 q0 31 -24.5 44t-78.5 13q-63 0 -114 -20z" />
<glyph unicode="&#x1ef8;" horiz-adv-x="1511" d="M31 1319h516l209 -420l209 420h516l-477 -840v-479h-496v479zM346 1425v289q33 29 90.5 50.5t118.5 21.5q51 0 97 -11.5t114 -33.5q66 -23 110 -34t91 -11q68 0 121 23.5t79 60.5v-289q-20 -29 -76.5 -50.5t-117.5 -21.5q-49 0 -98.5 11.5t-124.5 35.5 q-61 20 -104.5 31.5t-84.5 11.5q-131 0 -215 -84z" />
<glyph unicode="&#x1ef9;" horiz-adv-x="1386" d="M31 971h518l170 -484l162 484h516l-334 -854q-92 -233 -235.5 -355t-358.5 -122q-98 0 -161.5 10t-127.5 37v315q59 -20 123 -20q66 0 106 10t66 39zM309 1085v289q33 29 90.5 50.5t118.5 21.5q51 0 97.5 -11.5t113.5 -33.5q66 -23 110 -34t91 -11q68 0 121 23.5t79 60.5 v-289q-20 -29 -76.5 -50.5t-117.5 -21.5q-49 0 -98.5 11.5t-124.5 35.5q-61 20 -104.5 31.5t-84.5 11.5q-131 0 -215 -84z" />
<glyph unicode="&#x2000;" horiz-adv-x="1202" />
<glyph unicode="&#x2001;" horiz-adv-x="2404" />
<glyph unicode="&#x2002;" horiz-adv-x="1202" />
<glyph unicode="&#x2003;" horiz-adv-x="2404" />
<glyph unicode="&#x2004;" horiz-adv-x="801" />
<glyph unicode="&#x2005;" horiz-adv-x="601" />
<glyph unicode="&#x2006;" horiz-adv-x="400" />
<glyph unicode="&#x2007;" />
<glyph unicode="&#x2008;" horiz-adv-x="300" />
<glyph unicode="&#x2009;" horiz-adv-x="480" />
<glyph unicode="&#x200a;" horiz-adv-x="133" />
<glyph unicode="&#x2010;" horiz-adv-x="976" d="M31 420v377h915v-377h-915z" />
<glyph unicode="&#x2011;" horiz-adv-x="888" d="M31 420v377h827v-377h-827z" />
<glyph unicode="&#x2012;" horiz-adv-x="1146" d="M31 420v377h1085v-377h-1085z" />
<glyph unicode="&#x2013;" horiz-adv-x="1097" d="M31 420v377h1036v-377h-1036z" />
<glyph unicode="&#x2014;" horiz-adv-x="1576" d="M31 420v377h1515v-377h-1515z" />
<glyph unicode="&#x2015;" horiz-adv-x="1654" d="M31 420v377h1593v-377h-1593z" />
<glyph unicode="&#x2018;" horiz-adv-x="608" d="M31 821l176 518h371l-140 -518h-407z" />
<glyph unicode="&#x2019;" horiz-adv-x="608" d="M31 821l139 518h408l-177 -518h-370z" />
<glyph unicode="&#x201a;" horiz-adv-x="608" d="M31 -451l139 519h408l-177 -519h-370z" />
<glyph unicode="&#x201c;" horiz-adv-x="970" d="M31 821l176 518h330l-140 -518h-366zM434 821l176 518h330l-139 -518h-367z" />
<glyph unicode="&#x201d;" horiz-adv-x="970" d="M31 821l139 518h367l-177 -518h-329zM434 821l139 518h367l-176 -518h-330z" />
<glyph unicode="&#x201e;" horiz-adv-x="970" d="M31 -193l139 519h367l-177 -519h-329zM434 -193l139 519h367l-176 -519h-330z" />
<glyph unicode="&#x2020;" horiz-adv-x="1153" d="M31 719v368l311 -8l-18 355h505l-18 -355l311 8v-368l-311 8l12 -727h-493l12 727z" />
<glyph unicode="&#x2021;" horiz-adv-x="1153" d="M31 270v357l311 -2l-18 94l18 90l-311 -2v356l311 -2l-18 273h505l-18 -273l311 2v-356l-311 2l18 -90l-18 -94l311 2v-357l-311 2l12 -272h-493l12 272z" />
<glyph unicode="&#x2022;" horiz-adv-x="649" d="M31 588q0 80 39 147.5t106.5 107.5t147.5 40t147.5 -40t107 -107.5t39.5 -147.5t-39.5 -147.5t-107.5 -106.5t-147 -39q-80 0 -147.5 39t-106.5 106.5t-39 147.5z" />
<glyph unicode="&#x2026;" horiz-adv-x="1339" d="M31 0v346h381v-346h-381zM479 0v346h381v-346h-381zM928 0v346h381v-346h-381z" />
<glyph unicode="&#x202f;" horiz-adv-x="480" />
<glyph unicode="&#x2030;" horiz-adv-x="2353" d="M31 997q0 160 86 251t241 91q156 0 242 -91t86 -251q0 -141 -86 -227t-242 -86q-155 0 -241 86t-86 227zM252 0l684 1319h467l-684 -1319h-467zM281 1008q0 -82 77 -82q78 0 78 82q0 47 -18.5 68.5t-59.5 21.5t-59 -21.5t-18 -68.5zM969 293q0 160 86 251t241 91 q156 0 242 -91t86 -251q0 -141 -86 -227t-242 -86q-155 0 -241 86t-86 227zM1219 303q0 -82 77 -82q78 0 78 82q0 47 -18.5 68.5t-59.5 21.5t-59 -21.5t-18 -68.5zM1667 293q0 160 86 251t242 91t241.5 -91t85.5 -251q0 -141 -86 -227t-241 -86q-156 0 -242 86t-86 227z M1917 303q0 -82 78 -82t78 82q0 47 -18.5 68.5t-59.5 21.5t-59.5 -21.5t-18.5 -68.5z" />
<glyph unicode="&#x2032;" horiz-adv-x="458" d="M31 809v510h397l-35 -510h-362z" />
<glyph unicode="&#x2033;" horiz-adv-x="919" d="M31 809v510h397l-35 -510h-362zM492 809v510h397l-33 -510h-364z" />
<glyph unicode="&#x2039;" horiz-adv-x="815" d="M31 496v168l569 419l184 -268l-319 -235l319 -236l-184 -268z" />
<glyph unicode="&#x203a;" horiz-adv-x="815" d="M31 344l319 236l-319 235l184 268l569 -419v-168l-569 -420z" />
<glyph unicode="&#x2044;" horiz-adv-x="485" d="M-338 0l653 1356h508l-653 -1356h-508z" />
<glyph unicode="&#x205f;" horiz-adv-x="601" />
<glyph unicode="&#x2070;" horiz-adv-x="770" d="M31 1040q0 147 86 223t268 76t268 -75.5t86 -223.5q0 -147 -86 -223t-268 -76t-268 76t-86 223zM328 1040q0 -49 13 -71.5t44 -22.5t44 22.5t13 71.5q0 47 -13 71t-44 24t-44 -24t-13 -71z" />
<glyph unicode="&#x2074;" horiz-adv-x="610" d="M-10 827v199l250 313h321v-297h60v-215h-60v-69h-332v69h-239zM252 1024h80v98z" />
<glyph unicode="&#x2075;" horiz-adv-x="630" d="M31 776v180q29 -14 76 -21t81 -7q72 0 72 39q0 18 -12 26t-41 8h-174v84l14 234h520l-8 -172h-211l-2 -33h31q115 0 169 -42t54 -136q0 -90 -78 -142.5t-248 -52.5q-67 0 -136.5 9.5t-106.5 25.5z" />
<glyph unicode="&#x2076;" horiz-adv-x="659" d="M31 985v96q0 117 85 187.5t246 70.5q57 0 116 -7t91 -19v-160q-59 29 -168 29q-57 0 -92 -16.5t-35 -37.5v-2q16 12 49 19.5t66 7.5q121 0 180.5 -49t59.5 -152q0 -102 -78 -156.5t-221 -54.5q-135 0 -217 64.5t-82 179.5zM274 952q0 -33 13.5 -47t44.5 -14q61 0 61 53 q0 27 -13 41t-46 14q-31 0 -60 -16v-31z" />
<glyph unicode="&#x2077;" horiz-adv-x="608" d="M10 1083v236h588v-162l-176 -399h-338l143 325h-217z" />
<glyph unicode="&#x2078;" horiz-adv-x="698" d="M31 928q0 35 16 69.5t43 53.5q-45 41 -45 104q0 184 303 184q305 0 305 -184q0 -29 -11 -57.5t-32 -48.5q57 -47 58 -121q0 -90 -87 -138.5t-233 -48.5q-145 0 -231 48.5t-86 138.5zM287 938q0 -47 61 -47q64 0 64 41q0 33 -41 41l-52 10q-33 -10 -32 -45zM299 1151 q0 -33 29 -39l41 -8q30 14 30 47q0 39 -51 39q-49 0 -49 -39z" />
<glyph unicode="&#x2079;" horiz-adv-x="659" d="M31 1128q0 102 81 156.5t224 54.5q133 0 213 -63.5t80 -179.5v-97q0 -117 -85 -187.5t-247 -70.5q-57 0 -115.5 7.5t-91.5 19.5v160q59 -29 168 -29q57 0 92 16.5t35 36.5v2q-16 -12 -49 -19t-66 -7q-121 0 -180 49t-59 151zM266 1137q0 -27 13.5 -41.5t46.5 -14.5 q30 1 59 17v30q0 33 -13.5 47.5t-43.5 14.5q-61 0 -62 -53z" />
<glyph unicode="&#x207d;" horiz-adv-x="487" d="M31 1053q0 209 106 331h320q-129 -123 -129 -331q0 -209 129 -332h-320q-106 123 -106 332z" />
<glyph unicode="&#x207e;" horiz-adv-x="487" d="M31 721q129 123 129 332t-129 331h319q106 -123 107 -331q0 -209 -107 -332h-319z" />
<glyph unicode="&#x207f;" horiz-adv-x="706" d="M41 791v536h256l4 -29q37 16 88 28.5t105 12.5q94 0 138 -50t44 -152v-346h-273v311q0 35 -36 35q-12 0 -28.5 -6.5t-27.5 -14.5v-325h-270z" />
<glyph unicode="&#x2080;" horiz-adv-x="770" d="M31 37q0 147 86 223t268 76t268 -76t86 -223t-86 -223t-268 -76t-268 75.5t-86 223.5zM328 37q0 -49 13 -71.5t44 -22.5t44 22.5t13 71.5q0 47 -13 70.5t-44 23.5t-44 -23.5t-13 -70.5z" />
<glyph unicode="&#x2081;" horiz-adv-x="475" d="M31 -14v262l454 88v-582h-358v252z" />
<glyph unicode="&#x2082;" horiz-adv-x="643" d="M31 -121q29 33 54.5 53.5t70.5 51.5q53 35 66.5 50t13.5 36q0 20 -16.5 27t-49.5 7q-27 0 -64.5 -11t-68.5 -27v223q49 18 129 32.5t158 14.5q135 0 209.5 -49t74.5 -133q0 -47 -15 -78t-48 -60l-56 -45h123v-217h-581v125z" />
<glyph unicode="&#x2083;" horiz-adv-x="653" d="M31 -53q39 -18 85 -27.5t85 -9.5t57 7t18 24q0 14 -12 19t-41 5h-104l10 146h90q29 0 38 4t9 18q0 27 -71 27q-41 0 -84 -9.5t-72 -25.5v174q37 14 118 25.5t142 11.5q156 0 234.5 -50t78.5 -128q0 -72 -45 -121q55 -33 56 -113q0 -186 -324 -186q-49 0 -141 10t-127 25 v174z" />
<glyph unicode="&#x2084;" horiz-adv-x="610" d="M-10 23l250 313h321v-297h60v-215h-60v-70h-332v70h-239v199zM252 20h80v99z" />
<glyph unicode="&#x2085;" horiz-adv-x="630" d="M31 -47q29 -14 76 -21.5t81 -7.5q72 0 72 39q0 18 -12 26.5t-41 8.5h-174v84l14 233h520l-8 -172h-211l-2 -32h31q115 0 169 -42t54 -137q0 -90 -78 -142t-248 -52q-67 0 -136.5 9t-106.5 26v180z" />
<glyph unicode="&#x2086;" horiz-adv-x="659" d="M31 -18v96q0 117 85 187.5t246 70.5q57 0 116 -7t91 -20v-159q-59 29 -168 28q-57 0 -92 -16.5t-35 -36.5v-2q16 12 49 19.5t66 7.5q121 0 180.5 -49.5t59.5 -151.5t-78 -156.5t-221 -54.5q-135 0 -217 64.5t-82 179.5zM274 -20v-31q0 -33 13.5 -47.5t44.5 -14.5 q61 1 61 54q0 27 -13 41t-46 14q-31 0 -60 -16z" />
<glyph unicode="&#x2087;" horiz-adv-x="608" d="M10 80v235h588v-161l-176 -400h-338l143 326h-217z" />
<glyph unicode="&#x2088;" horiz-adv-x="698" d="M31 -76q0 35 16 70t43 53q-45 41 -45 105q0 184 303 184q305 0 305 -184q0 -29 -11 -57.5t-32 -49.5q57 -47 58 -121q0 -90 -87 -138t-233 -48q-145 0 -231 48t-86 138zM287 -66q0 -47 61 -47q64 0 64 41q0 33 -41 41l-52 11q-33 -10 -32 -46zM299 147q0 -33 29 -38 l41 -9q30 14 30 47q0 39 -51 39q-49 0 -49 -39z" />
<glyph unicode="&#x2089;" horiz-adv-x="659" d="M31 125q0 102 81 156.5t224 54.5q133 0 213 -63.5t80 -180.5v-96q0 -117 -85 -187.5t-247 -70.5q-57 0 -115.5 7t-91.5 19v160q59 -29 168 -28q57 0 92 16t35 37v2q-16 -12 -49 -19.5t-66 -7.5q-121 0 -180 49.5t-59 151.5zM266 133q0 -27 13.5 -41t46.5 -14q30 0 59 16 v31q0 33 -13.5 47t-43.5 14q-61 0 -62 -53z" />
<glyph unicode="&#x208d;" horiz-adv-x="487" d="M31 33q0 209 106 332h320q-129 -123 -129 -332t129 -332h-320q-106 123 -106 332z" />
<glyph unicode="&#x208e;" horiz-adv-x="487" d="M31 -299q129 123 129 332t-129 332h319q106 -123 107 -332q0 -209 -107 -332h-319z" />
<glyph unicode="&#x20a1;" horiz-adv-x="1122" d="M31 659q0 233 83 367.5t255 187.5l41 160h252l-31 -119l82 2h20l31 117h252l-39 -151q53 -16 110 -37v-432q-98 45 -178 65.5t-164 20.5q-104 0 -156 -41t-52 -140q0 -98 54 -139t159 -41q84 0 163.5 20.5t178.5 65.5v-432q-102 -37 -186.5 -54.5t-188.5 -17.5h-12 l-31 -124h-252l37 145q-53 10 -97 24l-43 -169h-251l77 311q-115 139 -114 411z" />
<glyph unicode="&#x20a4;" horiz-adv-x="985" d="M31 0v328h47q35 0 50 22.5t17 57.5h-114v192h114v98h-114v193h114v37q0 184 106.5 297.5t307.5 113.5q172 0 301 -55v-307q-59 20 -123 20q-96 0 -96 -75v-31h211l-10 -193h-201v-98h211l-10 -192h-205q-10 -57 -33 -80h350v-328h-923z" />
<glyph unicode="&#x20a6;" horiz-adv-x="1468" d="M31 260v285h114v135h-114v285h114v354h416l266 -516v516h496v-354h115v-285h-115v-135h115v-285h-115v-260h-418l-264 516v-516h-496v260h-114z" />
<glyph unicode="&#x20a7;" horiz-adv-x="2990" d="M72 0v1319h671q217 0 336 -119t140 -311h32v272l496 101v-373h199l-11 -357h-188v-124q0 -86 96 -86q63 0 123 20v-307q-129 -55 -301 -55q-414 0 -414 401v151h-94q-59 -113 -166.5 -175t-255.5 -62h-168v-295h-495zM567 682h41q111 0 111 123q0 63 -23.5 95t-79.5 32 h-49v-250zM1982 674q0 317 525 317q98 0 218 -14t181 -35v-311q-66 27 -141.5 43t-132.5 16q-70 0 -107 -4t-37 -22q0 -10 22.5 -18.5t78.5 -22.5q53 -10 100 -25q106 -31 164.5 -68.5t82 -91t23.5 -135.5q0 -152 -133 -237.5t-385 -85.5q-137 0 -261 19t-189 50v313 q68 -37 174 -59t178 -22q61 0 86 3t25 19q0 12 -26 22.5t-77 22.5q-109 33 -117 35q-137 51 -194.5 113.5t-57.5 177.5z" />
<glyph unicode="&#x20ab;" horiz-adv-x="1292" d="M31 455q0 264 130 400t347 136q53 0 112.5 -10t98.5 -27v82h-230v277h230v67h495v-67h68v-277h-68v-1036h-430l-22 63q-57 -41 -123 -62t-150 -21q-459 0 -458 475zM186 -92h1031v-318h-1031v318zM537 459q0 -80 22.5 -102.5t73.5 -22.5q27 0 46 7t40 24v241 q-20 16 -40 23.5t-46 7.5q-45 0 -70.5 -46t-25.5 -132z" />
<glyph unicode="&#x20ac;" horiz-adv-x="1204" d="M10 412v223h103v47h-103v223h131q113 434 695 434q115 0 175 -14t179 -57v-381q-100 45 -161.5 60.5t-160.5 15.5q-137 0 -200 -58h190v-223h-260v-47h260v-223h-188q61 -55 202 -56q98 0 160 15.5t162 60.5v-381q-119 -43 -179.5 -57t-174.5 -14q-295 0 -467 111.5 t-230 320.5h-133z" />
<glyph unicode="&#x20b1;" horiz-adv-x="1347" d="M-10 465v293h114v102h-114v293h114v166h680q129 0 227.5 -44t162.5 -122h184v-293h-76l2 -55q0 -33 -2 -47h76v-293h-191q-70 -82 -169 -126t-222 -44h-176v-295h-496v465h-114zM600 682h80q59 0 90 33t31 90q0 127 -113 127h-88v-250z" />
<glyph unicode="&#x20b2;" horiz-adv-x="1357" d="M31 659q0 250 116.5 411t341.5 226v199h431v-158q193 -8 337 -57v-422q-164 63 -391 64q-156 0 -242.5 -60.5t-86.5 -202.5q0 -143 63.5 -202.5t194.5 -59.5q66 0 123 15v80h-220v299h629v-682q-170 -104 -407 -123v-162h-431v192q-225 61 -341.5 224t-116.5 419z" />
<glyph unicode="&#x20b5;" horiz-adv-x="1265" d="M31 659q0 256 115.5 417t342.5 224v195h431v-160q160 -14 311 -67v-432q-186 86 -383 86q-154 0 -232.5 -59.5t-78.5 -203.5q0 -141 80.5 -201.5t234.5 -60.5q197 0 383 86v-432q-154 -57 -315 -67v-160h-431v194q-227 63 -342.5 224t-115.5 417z" />
<glyph unicode="&#x20b9;" horiz-adv-x="964" d="M31 336v244h145q59 0 99 28.5t51 77.5h-293v264h293q-31 104 -142 105h-153v264h903v-264h-139q6 -16 12 -52t10 -53h117v-264h-117q-51 -188 -231 -270q41 -23 64.5 -52.5t43.5 -80.5l121 -283h-516l-102 231q-25 53 -64 79t-102 26z" />
<glyph unicode="&#x20ba;" horiz-adv-x="1220" d="M31 481v219l106 35v105l-106 -35v219l106 35v260h465v-107l234 78v-217l-234 -78v-106l234 78v-217l-234 -78v-334q57 18 90 66.5t33 125.5v138h465v-90q0 -285 -177 -431.5t-497 -146.5h-379v516z" />
<glyph unicode="&#x20bd;" horiz-adv-x="1355" d="M31 90v260h94v94h-94v320h94v555h700q248 0 374 -119t126 -334q0 -209 -141.5 -315.5t-382.5 -106.5h-180v-94h157v-260h-157v-90h-496v90h-94zM621 764h79q121 0 121 113q0 61 -27.5 88.5t-84.5 27.5h-88v-229z" />
<glyph unicode="&#x210a;" horiz-adv-x="1286" d="M31 465q0 168 60.5 286.5t165.5 179t239 60.5q84 0 145 -21.5t121 -62.5l22 64h430v-824q0 -236 -168.5 -371.5t-566.5 -135.5q-55 0 -156.5 6t-140.5 14v322q43 -10 107.5 -18.5t113.5 -8.5q315 0 316 76v18q-39 -16 -98.5 -26.5t-112.5 -10.5q-164 0 -268.5 42 t-156.5 141.5t-52 269.5zM537 473q0 -82 23.5 -110.5t72.5 -28.5q26 0 45.5 7t40.5 24v241q-23 16 -38 23.5t-42 7.5q-47 0 -74.5 -40t-27.5 -124z" />
<glyph unicode="&#x2113;" horiz-adv-x="960" d="M-10 430v369q14 4 55 13t72 26v303q0 193 105.5 294t264.5 101q205 0 303.5 -100.5t98.5 -284.5q0 -188 -100.5 -327.5t-262.5 -219.5v-229q0 -59 56 -60q37 0 46 28t9 99h334q0 -137 -26.5 -234t-121 -162.5t-278.5 -65.5q-209 0 -318.5 107.5t-109.5 293.5v80zM451 989 q43 21 67.5 49.5t24.5 61.5q0 66 -45 65q-47 0 -47 -63v-113z" />
<glyph unicode="&#x2117;" horiz-adv-x="1421" d="M31 659q0 184 91 341t247.5 248t341.5 91q184 0 340.5 -91t248 -247.5t91.5 -341.5q0 -184 -91.5 -340.5t-248 -247.5t-340.5 -91q-185 0 -341.5 91t-247.5 247.5t-91 340.5zM283 659q0 -129 56 -228t153.5 -154.5t218.5 -55.5q120 0 217.5 55.5t154 154.5t56.5 228 t-56.5 228.5t-154 155t-217.5 55.5q-121 0 -218.5 -55.5t-153.5 -155t-56 -228.5zM453 340v643h381q119 0 181 -66.5t62 -173.5q0 -106 -67.5 -171.5t-180.5 -65.5h-120v-166h-256zM709 694h53q59 0 59 49t-53 50h-59v-99z" />
<glyph unicode="&#x2120;" horiz-adv-x="1400" d="M31 1149q0 190 311 190q57 0 129 -9t109 -19v-187q-37 16 -83 25.5t-81 9.5q-43 0 -63.5 -2t-20.5 -14q0 -6 13 -11.5t26.5 -7.5t19.5 -4l60 -16q94 -27 127.5 -65t33.5 -109q0 -90 -78.5 -141.5t-228.5 -51.5q-82 0 -156.5 11.5t-113.5 29.5v189q41 -23 104.5 -36 t106.5 -13h22q43 0 43 12q0 8 -17.5 14t-41.5 12q-51 14 -72 23q-82 31 -115.5 66.5t-33.5 103.5zM641 741v578h246l119 -197l118 197h246v-578h-258v162l-51 -106h-111l-51 106v-162h-258z" />
<glyph unicode="&#x2122;" horiz-adv-x="1390" d="M31 1063v256h563v-256h-139v-322h-285v322h-139zM631 741v578h246l118 -197l119 197h246v-578h-258v162l-51 -106h-111l-51 106v-162h-258z" />
<glyph unicode="&#x2126;" horiz-adv-x="1523" d="M31 760q0 317 188.5 490t542.5 173t542.5 -173t188.5 -490q0 -270 -184 -402h170v-358h-678v375q100 63 143 149t43 205q0 274 -225 275q-225 0 -225 -275q0 -119 43 -205t143 -149v-375h-678v358h170q-90 74 -137 176.5t-47 225.5z" />
<glyph unicode="&#x212e;" horiz-adv-x="1529" d="M31 696q0 227 100 392t268 250t367 85q195 0 362.5 -88t269 -245.5t101.5 -356.5v-37h-1167v-448q63 -82 178 -133.5t256 -51.5q131 0 219 21.5t160 72t149 142.5h111q-117 -182 -268.5 -256t-370.5 -74q-209 0 -377 96.5t-263 262.5t-95 368zM332 797h868v368 q-63 74 -178 119t-260 45q-264 0 -430 -162v-370z" />
<glyph unicode="&#x2153;" horiz-adv-x="1540" d="M31 989v262l454 88v-581h-358v252zM145 0l684 1319h467l-684 -1319h-467zM918 14v174q39 -18 85 -27t84 -9q39 0 57.5 7t18.5 23q0 14 -12 19.5t-41 5.5h-104l10 145h90q29 0 38 4t9 19q0 27 -72 26q-41 0 -84 -9t-71 -25v174q37 14 117.5 25.5t142.5 11.5 q156 0 234.5 -50.5t78.5 -128.5q0 -72 -45 -120q55 -33 55 -113q0 -186 -323 -186q-49 0 -141.5 10t-126.5 24z" />
<glyph unicode="&#x2154;" horiz-adv-x="1656" d="M31 758v125q29 33 54.5 53t70.5 51q53 35 66.5 50.5t13.5 35.5t-16.5 27.5t-49.5 7.5q-27 0 -64.5 -11.5t-68.5 -27.5v223q49 18 129 32.5t158 14.5q135 0 209.5 -49t74.5 -133q0 -47 -15 -77.5t-48 -59.5l-56 -45h123v-217h-581zM262 0l684 1319h467l-684 -1319h-467z M1034 14v174q39 -18 85 -27t85 -9t57.5 7t18.5 23q0 14 -12.5 19.5t-40.5 5.5h-105l11 145h90q29 0 38 4t9 19q0 27 -72 26q-41 0 -84 -9t-72 -25v174q37 14 118 25.5t143 11.5q156 0 234.5 -50.5t78.5 -128.5q0 -72 -45 -120q55 -33 55 -113q0 -186 -323 -186 q-50 0 -142 10t-127 24z" />
<glyph unicode="&#x215b;" horiz-adv-x="1533" d="M31 989v262l454 88v-581h-358v252zM145 0l684 1319h467l-684 -1319h-467zM866 166q0 35 16.5 69.5t43.5 53.5q-45 41 -45 104q0 184 303 185q305 0 305 -185q0 -29 -11.5 -57.5t-31.5 -48.5q57 -47 57 -121q0 -90 -87 -138t-232 -48q-146 0 -232 48t-86 138zM1122 176 q0 -47 62 -47q63 0 63 41q0 33 -41 41l-51 10q-33 -10 -33 -45zM1135 389q0 -33 28 -39l41 -8q31 14 31 47q0 39 -51 39q-49 0 -49 -39z" />
<glyph unicode="&#x215c;" horiz-adv-x="1589" d="M31 776v174q39 -18 85 -27.5t85 -9.5t57 7.5t18 23.5q0 14 -12 19.5t-41 5.5h-104l10 145h90q29 0 38 4t9 19q0 27 -71 26q-41 0 -84 -9t-72 -26v175q37 14 118 25t142 11q156 0 234.5 -50t78.5 -128q0 -72 -45 -121q55 -33 56 -112q0 -186 -324 -187q-49 0 -141 10.5 t-127 24.5zM201 0l684 1319h467l-684 -1319h-467zM922 166q0 35 16 69.5t43 53.5q-45 41 -45 104q0 184 303 185q305 0 305 -185q0 -29 -11 -57.5t-32 -48.5q57 -47 58 -121q0 -90 -87.5 -138t-232.5 -48t-231 48t-86 138zM1178 176q0 -47 61 -47q64 0 64 41q0 33 -41 41 l-52 10q-33 -10 -32 -45zM1190 389q0 -33 29 -39l41 -8q30 14 30 47q0 39 -51 39q-49 0 -49 -39z" />
<glyph unicode="&#x215d;" horiz-adv-x="1550" d="M31 776v180q29 -14 76 -21t81 -7q72 0 72 39q0 18 -12 26t-41 8h-174v84l14 234h520l-8 -172h-211l-2 -33h31q115 0 169 -42t54 -136q0 -90 -78 -142.5t-248 -52.5q-67 0 -136.5 9.5t-106.5 25.5zM162 0l684 1319h467l-684 -1319h-467zM883 166q0 35 16 69.5t43 53.5 q-45 41 -45 104q0 184 303 185q305 0 305 -185q0 -29 -11 -57.5t-32 -48.5q57 -47 58 -121q0 -90 -87 -138t-233 -48q-145 0 -231 48t-86 138zM1139 176q0 -47 61 -47q64 0 64 41q0 33 -41 41l-52 10q-33 -10 -32 -45zM1151 389q0 -33 29 -39l41 -8q30 14 30 47q0 39 -51 39 q-49 0 -49 -39z" />
<glyph unicode="&#x215e;" horiz-adv-x="1531" d="M31 1083v236h587v-162l-176 -399h-338l144 325h-217zM143 0l684 1319h467l-684 -1319h-467zM864 166q0 35 16.5 69.5t43.5 53.5q-45 41 -45 104q0 184 303 185q305 0 305 -185q0 -29 -11.5 -57.5t-31.5 -48.5q57 -47 57 -121q0 -90 -87 -138t-232 -48q-146 0 -232 48 t-86 138zM1120 176q0 -47 62 -47q63 0 63 41q0 33 -41 41l-51 10q-33 -10 -33 -45zM1133 389q0 -33 28 -39l41 -8q31 14 31 47q0 39 -51 39q-49 0 -49 -39z" />
<glyph unicode="&#x2190;" horiz-adv-x="1417" d="M31 487v119l536 430l140 -188l-183 -143h862v-316h-862l183 -141l-140 -189z" />
<glyph unicode="&#x2191;" horiz-adv-x="1038" d="M31 750l428 536h119l430 -536l-189 -140l-143 183v-863h-316v863l-141 -183z" />
<glyph unicode="&#x2192;" horiz-adv-x="1417" d="M31 389v316h862l-182 143l139 188l536 -430v-119l-536 -428l-139 189l182 141h-862z" />
<glyph unicode="&#x2193;" horiz-adv-x="1038" d="M31 422l188 139l141 -182v862h316v-862l143 182l189 -139l-430 -537h-119z" />
<glyph unicode="&#x2202;" horiz-adv-x="1327" d="M33 352q0 51 12 107q51 221 188.5 331.5t382.5 110.5q61 0 128 -15.5t100 -35.5l2 12q8 51 -43 86t-189 35q-92 0 -173 -15.5t-165 -47.5l76 358q90 33 182.5 47t210.5 14q178 0 302 -63.5t186.5 -171t62.5 -236.5q0 -57 -12 -112l-47 -226q-59 -274 -231 -412t-480 -138 q-245 0 -369 103t-124 269zM475 397q0 -41 27.5 -59.5t93.5 -18.5q70 0 108.5 33t55.5 109l14 65q-70 37 -131 37q-74 0 -111.5 -30.5t-50.5 -92.5q-6 -25 -6 -43z" />
<glyph unicode="&#x220f;" horiz-adv-x="1323" d="M72 -264v1710h1179v-1710h-495v1251h-189v-1251h-495z" />
<glyph unicode="&#x2211;" horiz-adv-x="1116" d="M31 31l383 508l-383 501v279h1054v-377h-417l309 -403l-309 -408h417v-377h-1054v277z" />
<glyph unicode="&#x2212;" horiz-adv-x="888" d="M31 420v377h827v-377h-827z" />
<glyph unicode="&#x2215;" horiz-adv-x="1222" d="M31 0l653 1356h508l-653 -1356h-508z" />
<glyph unicode="&#x2219;" horiz-adv-x="442" d="M31 416v346h381v-346h-381z" />
<glyph unicode="&#x221a;" horiz-adv-x="1521" d="M31 573v377h553l116 -383l297 895h494l-514 -1462h-510l-223 573h-213z" />
<glyph unicode="&#x221e;" horiz-adv-x="1339" d="M31 573q0 180 100 272.5t270 92.5q78 0 149 -28.5t120 -75.5q49 47 119.5 75.5t148.5 28.5q170 0 270.5 -92t100.5 -273q0 -180 -100.5 -272t-270.5 -92q-80 0 -150.5 27.5t-117.5 74.5q-47 -47 -118 -74.5t-151 -27.5q-170 0 -270 92t-100 272zM367 573q0 -57 57 -57 q49 0 90 53q-39 61 -90 62q-57 0 -57 -58zM825 569q41 -53 90 -53q58 0 58 57t-58 58q-51 0 -90 -62z" />
<glyph unicode="&#x222b;" horiz-adv-x="913" d="M-10 53q59 -20 123 -20q96 0 96 82v886q0 184 106.5 298t307.5 114q172 0 301 -55v-307q-59 20 -123 20q-96 0 -96 -82v-887q0 -184 -106.5 -297.5t-307.5 -113.5q-172 0 -301 55v307z" />
<glyph unicode="&#x2248;" horiz-adv-x="888" d="M31 211v340q35 31 93 46t124 15q55 0 104 -14t113 -43q72 -27 110.5 -39t86.5 -12q61 0 106 15.5t90 58.5v-345q-66 -57 -215 -57q-47 0 -89 13.5t-101 39.5q-63 29 -107.5 42.5t-97.5 13.5q-70 0 -121 -16.5t-96 -57.5zM31 625v340q35 31 93 46t124 15q55 0 104 -14.5 t113 -42.5q72 -27 110.5 -39t86.5 -12q61 0 106 15t90 58v-344q-66 -57 -215 -57q-47 0 -89 13t-101 40q-63 29 -107.5 42t-97.5 13q-70 0 -121 -16t-96 -57z" />
<glyph unicode="&#x2260;" horiz-adv-x="888" d="M31 221v336h282l25 90h-307v336h399l41 145h199l-41 -145h229v-336h-321l-25 -90h346v-336h-440l-43 -155h-199l43 155h-188z" />
<glyph unicode="&#x2264;" horiz-adv-x="1103" d="M31 0v326h1042v-326h-1042zM31 766v324l1042 421v-405l-516 -178l516 -178v-406z" />
<glyph unicode="&#x2265;" horiz-adv-x="1103" d="M31 0v326h1042v-326h-1042zM31 344v406l516 178l-516 178v405l1042 -421v-324z" />
<glyph unicode="&#x25a0;" horiz-adv-x="1052" d="M31 246v991h991v-991h-991z" />
<glyph unicode="&#x25b2;" horiz-adv-x="1259" d="M31 0l600 1198l598 -1198h-1198z" />
<glyph unicode="&#x25b3;" horiz-adv-x="1259" d="M31 0l600 1198l598 -1198h-1198zM516 291h227l-114 227z" />
<glyph unicode="&#x25b6;" horiz-adv-x="1259" d="M31 0v1198l1198 -598z" />
<glyph unicode="&#x25b7;" horiz-adv-x="1259" d="M31 0v1198l1198 -598zM322 485l227 113l-227 115v-228z" />
<glyph unicode="&#x25bc;" horiz-adv-x="1259" d="M31 1198h1198l-598 -1198z" />
<glyph unicode="&#x25bd;" horiz-adv-x="1259" d="M31 1198h1198l-598 -1198zM516 907l113 -227l114 227h-227z" />
<glyph unicode="&#x25c0;" horiz-adv-x="1259" d="M31 600l1198 598v-1198z" />
<glyph unicode="&#x25c1;" horiz-adv-x="1259" d="M31 600l1198 598v-1198zM711 598l227 -113v228z" />
<glyph unicode="&#x25c6;" horiz-adv-x="1153" d="M31 678l544 547l547 -547l-547 -545z" />
<glyph unicode="&#x25ca;" horiz-adv-x="1239" d="M31 657l452 662h273l452 -662l-452 -657h-273zM512 657l109 -180l108 180l-111 181z" />
<glyph unicode="&#x25fc;" horiz-adv-x="972" d="M0 0v973h973v-973h-973z" />
<glyph unicode="&#xf6d7;" d="M106 1139v272h312v-272h-312zM324 1475l114 297h365l-152 -297h-327zM575 1139v272h312v-272h-312z" />
<glyph unicode="&#xf6d8;" d="M106 1139v272h312v-272h-312zM190 1772h365l115 -297h-328zM575 1139v272h312v-272h-312z" />
<glyph unicode="&#xf8ff;" horiz-adv-x="903" d="M31 0v1462h841v-1462h-841zM135 104h633v1254h-633v-1254z" />
<glyph horiz-adv-x="1335" d="M31 625v317q119 80 272.5 132t329.5 52q223 0 363.5 -63.5t204 -166.5t63.5 -230v-891h-516v860q0 80 -31 113.5t-113 33.5t-155 -32v-5l202 -73v-195q-94 -31 -94 -121v-18q0 -51 51 -51h47v-287h-385q-102 0 -160.5 58.5t-58.5 154.5v133q0 68 40 131.5t106 87.5z" />
<glyph horiz-adv-x="1382" d="M31 0v307h41q51 0 51 51v23q0 70 27.5 115t93.5 69l-166 60v317q119 80 272.5 132t329.5 52q223 0 363.5 -63.5t204 -166.5t63.5 -230v-891h-516v860q0 80 -31 113.5t-113 33.5t-155 -32v-5l202 -73v-195q-41 -14 -55 -39.5t-14 -75.5v-149q0 -96 -58.5 -154.5 t-160.5 -58.5h-379z" />
<glyph horiz-adv-x="1382" d="M31 102v256h41q51 0 51 52v10q0 53 28.5 96t92.5 59l-166 60v307q119 80 272.5 132t329.5 52q223 0 363.5 -63.5t204 -166.5t63.5 -230v-920h-430q-61 31 -127 44t-156 13q-84 0 -169 -18t-155 -51v305q82 31 161 45t181 14q45 0 100.5 -6t78.5 -14v557q0 80 -31 113.5 t-113 33.5t-155 -32v-5l202 -73v-195q-41 -14 -55 -39.5t-14 -75.5v-47q0 -94 -66.5 -153.5t-171.5 -59.5h-360z" />
<glyph horiz-adv-x="1382" d="M31 102v256h41q51 0 51 52v10q0 53 28.5 96t92.5 59l-166 60v307q119 80 272.5 132t329.5 52q223 0 363.5 -63.5t204 -166.5t63.5 -230v-531q0 -180 -100.5 -292.5t-288.5 -112.5q-207 0 -342 90q-39 -37 -97.5 -55.5t-144.5 -18.5h-162l25 272h86q45 0 66.5 14.5 t29.5 47.5h289q14 -61 69 -62q53 0 54 64v553q0 80 -31 113.5t-113 33.5t-155 -32v-5l202 -73v-195q-41 -14 -55 -39.5t-14 -75.5v-47q0 -94 -66.5 -153.5t-171.5 -59.5h-360z" />
<glyph horiz-adv-x="1986" d="M31 625v317q276 184 594 184q324 0 456.5 -128t132.5 -332v-144q0 -80 23 -111.5t80 -31.5t79.5 31.5t22.5 111.5v584h496v-606q0 -254 -165 -387t-433 -133q-285 0 -436.5 130t-151.5 390v135q0 82 -26.5 114.5t-106.5 32.5q-74 0 -147 -32v-5l202 -73v-195 q-94 -31 -94 -121v-18q0 -51 51 -51h47v-287h-385q-102 0 -160.5 58.5t-58.5 154.5v133q0 68 40 131.5t106 87.5z" />
<glyph horiz-adv-x="1269" d="M31 334l18 340h402l120 -322q37 29 57.5 81t20.5 126q0 123 -53 175t-190 52q-80 0 -181.5 -15t-191.5 -40v318q113 39 244 58t243 19q119 0 228 -20h501l-24 -340h-113q43 -104 43 -209q0 -184 -82 -315t-214 -196.5t-281 -65.5q-84 0 -169 13t-124 34l-115 307h-139z " />
<glyph horiz-adv-x="1550" d="M10 1106h430l113 -653l70 202v84h299l94 -286l37 225q4 33 4 43q0 47 -26.5 59.5t-92.5 12.5h-41l23 229h69q61 0 91 24.5t40 79.5l13 68h423l-20 -96q-16 -74 -49 -109t-96 -55q74 -51 73 -148q0 -31 -14 -96l-178 -690h-402l-92 276l-100 -276h-399z" />
<glyph d="M-1294 1186v432h350v-133h326l-15 -299h-661z" />
<glyph d="M-463 1724v293h391v-293h-391z" />
<glyph d="M-694 1886v287h426v-152h317l-18 -297h-580v162h-145z" />
<glyph d="M-1319 1333v307h401v-161h302l-19 -308h-567v162h-117z" />
<glyph d="M-870 1950q0 113 65.5 181.5t179.5 68.5q53 0 91 -16.5t55 -45.5h2q20 29 60 45.5t89 16.5q111 0 163 -49.5t52 -129.5v-98h11q14 0 18 6t4 25v229h238v-237q0 -102 -61.5 -162t-166.5 -60h-249v222q0 43 -31 43q-33 0 -33 -39v-19h-166v19q0 39 -29 39q-33 0 -32 -43 q0 -47 53 -48h78v-192h-109q-125 0 -203.5 63.5t-78.5 180.5z" />
<glyph d="M-1415 1415q0 113 62.5 181.5t162.5 68.5q106 0 141 -61h2q45 61 144 61q109 0 151.5 -48t42.5 -130v-78h11q14 0 18 6t4 25v209h217v-238q0 -102 -61.5 -161.5t-165.5 -59.5h-209v221q0 43 -31 43q-33 0 -32 -39v-18h-156v18q0 39 -29 39q-33 0 -33 -43q0 -47 54 -47h73 v-193h-104q-113 0 -187.5 64.5t-74.5 179.5z" />
<glyph d="M-590 1802v295h117v76h391v-76h115v-295h-115v-78h-391v78h-117z" />
<glyph d="M-598 1696v395h664l-15 -301h-317v-94h-332z" />
<glyph d="M-1286 1180v413h680l-15 -309h-325v-104h-340z" />
<glyph d="M-1401 1460q0 131 85 214t239 83h491l-18 -235h-434q-31 0 -50.5 -17.5t-19.5 -48.5q0 -29 17.5 -44t43.5 -15q31 0 48.5 19.5t17.5 49.5v9h201v-9q0 -63 63 -63h94v-236h-96q-53 0 -98 16.5t-64 47.5q-23 -31 -87 -49.5t-124 -18.5q-143 0 -226 79t-83 218z" />
<glyph d="M-1405 1188l23 325h747v-325h-770z" />
<glyph d="M-1405 1188l23 325h356v146h391v-471h-770z" />
<glyph d="M-1425 1188l22 325h322q14 76 71.5 125.5t155.5 49.5q256 0 256 -250q0 -106 -75 -178t-199 -72h-553zM-911 1436q0 -29 19.5 -47.5t47.5 -18.5q29 0 47.5 18.5t18.5 47.5t-18.5 48t-47.5 19t-48 -19.5t-19 -47.5z" />
<glyph d="M-1425 1188l22 325h217v146h240v-146h72v146h239v-471h-790z" />
<glyph d="M-629 1462q0 129 90 211t224 82q133 0 223 -82t90 -211t-90 -211t-223 -82q-134 0 -224 82t-90 211zM-463 1929v293h391v-293h-391zM-381 1462q0 -27 19.5 -46t46.5 -19q26 0 45.5 19.5t19.5 45.5q0 27 -19.5 46.5t-45.5 19.5q-27 0 -46.5 -19.5t-19.5 -46.5z" />
<glyph d="M-694 2091v287h426v-152h317l-18 -297h-580v162h-145zM-629 1462q0 129 90 211t224 82q133 0 223 -82t90 -211t-90 -211t-223 -82q-134 0 -224 82t-90 211zM-381 1462q0 -27 19.5 -46t46.5 -19q26 0 45.5 19.5t19.5 45.5q0 27 -19.5 46.5t-45.5 19.5q-27 0 -46.5 -19.5 t-19.5 -46.5z" />
<glyph d="M-809 2154q0 113 65.5 181.5t180.5 68.5q53 0 91 -16t54 -45h2q20 29 60.5 45t89.5 16q111 0 163 -49t52 -129v-98h10q14 0 18.5 6t4.5 25v229h237v-238q0 -102 -61.5 -161.5t-165.5 -59.5h-250v221q0 43 -31 43q-33 0 -33 -39v-18h-165v18q0 39 -29 39q-33 0 -33 -43 q0 -47 53 -47h78v-192h-108q-125 0 -204 63.5t-79 179.5zM-629 1462q0 129 90 211t224 82q133 0 223 -82t90 -211t-90 -211t-223 -82q-134 0 -224 82t-90 211zM-381 1462q0 -27 19.5 -46t46.5 -19q26 0 45.5 19.5t19.5 45.5q0 27 -19.5 46.5t-45.5 19.5q-27 0 -46.5 -19.5 t-19.5 -46.5z" />
<glyph d="M-629 1462q0 129 90 211t224 82q133 0 223 -82t90 -211t-90 -211t-223 -82q-134 0 -224 82t-90 211zM-610 2007v295h116v76h392v-76h114v-295h-114v-78h-392v78h-116zM-381 1462q0 -27 19.5 -46t46.5 -19q26 0 45.5 19.5t19.5 45.5q0 27 -19.5 46.5t-45.5 19.5 q-27 0 -46.5 -19.5t-19.5 -46.5z" />
<glyph d="M-532 -500q0 90 62 151.5t153 61.5q90 0 153.5 -61.5t63.5 -151.5q0 -88 -63.5 -149.5t-153.5 -61.5q-91 0 -153 61.5t-62 149.5z" />
<glyph d="M-580 -588l15 297h495v-477h-389v180h-121z" />
<glyph d="M-956 -567l14 276h434v-160q0 -53 49 -53q51 0 51 53v160h334v-198q0 -135 -91 -223.5t-294 -88.5q-176 0 -276.5 61.5t-100.5 157.5v15h-120z" />
<glyph d="M-1124 1171v355h495v-355h-495z" />
<glyph d="M-1249 1249v295h116v76h394v-76h114v-295h-114v-78h-394v78h-116z" />
<glyph d="M-1262 1462q0 129 90.5 211t223.5 82t223 -82t90 -211t-90 -211t-223 -82t-223.5 82t-90.5 211zM-1014 1462q0 -27 19.5 -46t46.5 -19q26 0 45.5 19.5t19.5 45.5q0 27 -19.5 46.5t-45.5 19.5q-27 0 -46.5 -19.5t-19.5 -46.5z" />
<glyph d="M-1262 1462q0 129 90.5 211t223.5 82t223 -82t90 -211t-90 -211t-223 -82t-223.5 82t-90.5 211zM-1114 1929v293h391v-293h-391zM-1014 1462q0 -27 19.5 -46t46.5 -19q26 0 45.5 19.5t19.5 45.5q0 27 -19.5 46.5t-45.5 19.5q-27 0 -46.5 -19.5t-19.5 -46.5z" />
<glyph d="M-1329 2091v287h426v-152h317l-18 -297h-580v162h-145zM-1262 1462q0 129 90.5 211t223.5 82t223 -82t90 -211t-90 -211t-223 -82t-223.5 82t-90.5 211zM-1014 1462q0 -27 19.5 -46t46.5 -19q26 0 45.5 19.5t19.5 45.5q0 27 -19.5 46.5t-45.5 19.5q-27 0 -46.5 -19.5 t-19.5 -46.5z" />
<glyph d="M-1423 2154q0 113 65.5 181.5t179.5 68.5q53 0 91 -16t55 -45h2q20 29 60 45t89 16q111 0 163 -49t52 -129v-98h11q14 0 18 6t4 25v229h238v-238q0 -102 -61.5 -161.5t-166.5 -59.5h-249v221q0 43 -31 43q-33 0 -33 -39v-18h-166v18q0 39 -28 39q-33 0 -33 -43 q0 -47 53 -47h78v-192h-109q-125 0 -203.5 63.5t-78.5 179.5zM-1262 1462q0 129 90.5 211t223.5 82t223 -82t90 -211t-90 -211t-223 -82t-223.5 82t-90.5 211zM-1014 1462q0 -27 19.5 -46t46.5 -19q26 0 45.5 19.5t19.5 45.5q0 27 -19.5 46.5t-45.5 19.5q-27 0 -46.5 -19.5 t-19.5 -46.5z" />
<glyph d="M-1262 1462q0 129 90.5 211t223.5 82t223 -82t90 -211t-90 -211t-223 -82t-223.5 82t-90.5 211zM-1225 2007v295h117v76h391v-76h115v-295h-115v-78h-391v78h-117zM-1014 1462q0 -27 19.5 -46t46.5 -19q26 0 45.5 19.5t19.5 45.5q0 27 -19.5 46.5t-45.5 19.5 q-27 0 -46.5 -19.5t-19.5 -46.5z" />
<glyph d="M-1186 1055l324 344h358l324 -344h-387l-115 155l-109 -155h-395zM-389 1325l153 352h361l-170 -352h-344z" />
<glyph d="M-1415 1677h360l154 -352h-344zM-1110 1055l324 344h358l324 -344h-396l-108 155l-115 -155h-387z" />
<glyph d="M-1186 1055l324 344h358l324 -344h-387l-115 155l-109 -155h-395zM-403 1499v189q94 25 237 24q123 0 193.5 -53t70.5 -135q0 -74 -35.5 -121t-107.5 -62v-63h-322v164q74 2 102.5 14t28.5 33q0 18 -16 24.5t-53 6.5q-45 0 -98 -21z" />
<glyph d="M-1186 1055l324 344h358l324 -344h-387l-115 155l-109 -155h-395zM-1061 1436v276q31 29 86 48.5t113 19.5q49 0 94 -11.5t111 -33.5q61 -20 103 -30.5t85 -10.5q66 0 117 22.5t76 57.5v-277q-18 -27 -72.5 -47t-114.5 -20q-49 0 -97 11t-114 34q-66 20 -104.5 30.5 t-77.5 10.5q-125 0 -205 -80z" />
<glyph d="M-1116 1417h274q0 -66 32 -105.5t99 -39.5q68 0 100.5 40t32.5 105h275q0 -193 -107.5 -289t-300.5 -96q-190 0 -297.5 96.5t-107.5 288.5zM-850 1456l154 352h319l-170 -352h-303z" />
<glyph d="M-1116 1417h274q0 -66 33 -105.5t100 -39.5q68 0 99.5 40t31.5 105h275q0 -193 -107.5 -289t-298.5 -96q-192 0 -299.5 96.5t-107.5 288.5zM-1042 1808h319l154 -352h-303z" />
<glyph d="M-1116 1417h274q0 -66 33 -105.5t100 -39.5q68 0 99.5 40t31.5 105h275q0 -193 -107.5 -289t-298.5 -96q-192 0 -299.5 96.5t-107.5 288.5zM-909 1683v168q43 10 109.5 18.5t127.5 8.5q123 0 193.5 -53t70.5 -135q0 -72 -32.5 -112t-110.5 -65v-55h-321v129 q76 2 113.5 20.5t37.5 47.5t-21.5 40t-68.5 11q-39 0 -98 -23z" />
<glyph d="M-1116 1417h274q0 -66 33 -105.5t100 -39.5q68 0 99.5 40t31.5 105h275q0 -193 -107.5 -289t-298.5 -96q-192 0 -299.5 96.5t-107.5 288.5zM-1098 1475v256q31 29 86.5 48t112.5 19q49 0 94 -11t111 -34q61 -20 103 -30.5t85 -10.5q66 0 117 22.5t76 57.5v-256 q-18 -27 -72.5 -47.5t-114.5 -20.5q-49 0 -97 11.5t-114 33.5q-66 20 -104.5 30.5t-77.5 10.5q-125 0 -205 -79z" />
<glyph d="M-973 1772h361l114 -150l119 150h354l-305 -297h-338zM-899 1139v272h311v-272h-311zM-430 1139v272h311v-272h-311z" />
</font>
</defs>
</svg>
